<?xml version="1.0" encoding="UTF-8"?>
<svg xmlns="http://www.w3.org/2000/svg" xmlns:xlink="http://www.w3.org/1999/xlink" width="400mm" height="400mm" viewBox="0 0 400 400" version="1.1">
<g id="surface486">
<rect x="0" y="0" width="400" height="400" style="fill:rgb(100%,100%,100%);fill-opacity:1;stroke:none;"/>
<path style=" stroke:none;fill-rule:nonzero;fill:rgb(100%,49.803922%,49.803922%);fill-opacity:1;" d="M 82.265625 250.675781 C 85.585938 246.980469 88.84375 243.40625 92.042969 239.957031 C 95.242188 236.503906 98.382812 233.175781 101.464844 229.972656 C 104.546875 226.765625 107.574219 223.6875 110.542969 220.726562 C 113.515625 217.769531 116.429688 214.933594 119.292969 212.222656 C 122.15625 209.511719 124.96875 206.925781 127.734375 204.457031 C 130.496094 201.992188 133.210938 199.652344 135.878906 197.433594 C 138.546875 195.214844 141.167969 193.117188 143.75 191.148438 C 146.332031 189.175781 148.871094 187.324219 151.371094 185.601562 C 153.871094 183.875 156.335938 182.269531 158.761719 180.792969 C 161.191406 179.3125 163.589844 177.957031 165.957031 176.722656 C 168.324219 175.492188 170.664062 174.382812 172.976562 173.394531 C 175.292969 172.410156 177.585938 171.546875 179.859375 170.804688 C 182.132812 170.066406 184.390625 169.449219 186.632812 168.957031 C 188.875 168.460938 191.109375 168.09375 193.335938 167.84375 C 195.558594 167.597656 197.78125 167.476562 200 167.476562 C 202.21875 167.476562 204.441406 167.597656 206.664062 167.84375 C 208.890625 168.09375 211.125 168.460938 213.367188 168.957031 C 215.609375 169.449219 217.867188 170.066406 220.140625 170.804688 C 222.414062 171.546875 224.707031 172.410156 227.023438 173.394531 C 229.335938 174.382812 231.675781 175.492188 234.042969 176.722656 C 236.410156 177.957031 238.808594 179.3125 241.238281 180.792969 C 243.664062 182.269531 246.128906 183.875 248.628906 185.601562 C 251.128906 187.324219 253.667969 189.175781 256.25 191.148438 C 258.832031 193.117188 261.453125 195.214844 264.121094 197.433594 C 266.789062 199.652344 269.503906 201.992188 272.265625 204.457031 C 275.03125 206.925781 277.84375 209.511719 280.707031 212.222656 C 283.570312 214.933594 286.484375 217.769531 289.457031 220.726562 C 292.425781 223.6875 295.453125 226.765625 298.535156 229.972656 C 301.617188 233.175781 304.757812 236.503906 307.957031 239.957031 C 311.15625 243.40625 314.414062 246.980469 317.734375 250.675781 C 317.800781 247.8125 317.835938 244.875 317.832031 241.871094 C 317.832031 238.867188 317.796875 235.792969 317.730469 232.648438 C 314.410156 228.953125 311.152344 225.378906 307.953125 221.925781 C 304.757812 218.476562 301.617188 215.148438 298.535156 211.941406 C 295.453125 208.738281 292.425781 205.65625 289.457031 202.699219 C 286.484375 199.742188 283.570312 196.90625 280.707031 194.195312 C 277.84375 191.484375 275.03125 188.894531 272.265625 186.429688 C 269.503906 183.964844 266.789062 181.621094 264.121094 179.402344 C 261.453125 177.183594 258.832031 175.089844 256.25 173.117188 C 253.671875 171.144531 251.132812 169.296875 248.632812 167.570312 C 246.132812 165.84375 243.667969 164.242188 241.238281 162.761719 C 238.808594 161.28125 236.414062 159.925781 234.046875 158.691406 C 231.679688 157.460938 229.339844 156.351562 227.027344 155.363281 C 224.710938 154.378906 222.417969 153.515625 220.144531 152.773438 C 217.871094 152.035156 215.613281 151.417969 213.371094 150.925781 C 211.125 150.433594 208.894531 150.0625 206.667969 149.816406 C 204.441406 149.566406 202.21875 149.445312 200 149.445312 C 197.78125 149.445312 195.558594 149.566406 193.332031 149.816406 C 191.105469 150.0625 188.875 150.433594 186.628906 150.925781 C 184.386719 151.417969 182.128906 152.035156 179.855469 152.773438 C 177.582031 153.515625 175.289062 154.378906 172.972656 155.363281 C 170.660156 156.351562 168.320312 157.460938 165.953125 158.691406 C 163.585938 159.925781 161.191406 161.28125 158.761719 162.761719 C 156.332031 164.242188 153.867188 165.84375 151.367188 167.570312 C 148.867188 169.296875 146.328125 171.144531 143.75 173.117188 C 141.167969 175.089844 138.546875 177.183594 135.878906 179.402344 C 133.210938 181.621094 130.496094 183.964844 127.734375 186.429688 C 124.96875 188.894531 122.15625 191.484375 119.292969 194.195312 C 116.429688 196.90625 113.515625 199.742188 110.542969 202.699219 C 107.574219 205.65625 104.546875 208.738281 101.464844 211.941406 C 98.382812 215.148438 95.242188 218.476562 92.046875 221.925781 C 88.847656 225.378906 85.589844 228.953125 82.269531 232.648438 C 82.203125 235.792969 82.167969 238.867188 82.167969 241.871094 C 82.164062 244.875 82.199219 247.8125 82.265625 250.675781 "/>
<path style="fill:none;stroke-width:1;stroke-linecap:butt;stroke-linejoin:miter;stroke:rgb(100%,0%,0%);stroke-opacity:1;stroke-miterlimit:10;" d="M 82.265625 250.675781 C 82.199219 247.8125 82.164062 244.875 82.167969 241.871094 C 82.167969 238.867188 82.203125 235.792969 82.269531 232.648438 "/>
<path style="fill:none;stroke-width:1;stroke-linecap:butt;stroke-linejoin:miter;stroke:rgb(100%,0%,0%);stroke-opacity:1;stroke-miterlimit:10;" d="M 96.796875 234.871094 C 96.730469 232.003906 96.699219 229.070312 96.699219 226.066406 C 96.703125 223.058594 96.734375 219.984375 96.800781 216.84375 "/>
<path style="fill:none;stroke-width:1;stroke-linecap:butt;stroke-linejoin:miter;stroke:rgb(100%,0%,0%);stroke-opacity:1;stroke-miterlimit:10;" d="M 110.542969 220.726562 C 110.480469 217.863281 110.449219 214.925781 110.453125 211.921875 C 110.453125 208.917969 110.484375 205.84375 110.542969 202.699219 "/>
<path style="fill:none;stroke-width:1;stroke-linecap:butt;stroke-linejoin:miter;stroke:rgb(100%,0%,0%);stroke-opacity:1;stroke-miterlimit:10;" d="M 123.550781 208.25 C 123.492188 205.382812 123.464844 202.445312 123.464844 199.441406 C 123.46875 196.4375 123.496094 193.363281 123.550781 190.21875 "/>
<path style="fill:none;stroke-width:1;stroke-linecap:butt;stroke-linejoin:miter;stroke:rgb(100%,0%,0%);stroke-opacity:1;stroke-miterlimit:10;" d="M 135.878906 197.433594 C 135.824219 194.566406 135.800781 191.632812 135.800781 188.625 C 135.800781 185.621094 135.828125 182.546875 135.878906 179.402344 "/>
<path style="fill:none;stroke-width:1;stroke-linecap:butt;stroke-linejoin:miter;stroke:rgb(100%,0%,0%);stroke-opacity:1;stroke-miterlimit:10;" d="M 147.589844 188.28125 C 147.542969 185.414062 147.519531 182.476562 147.523438 179.472656 C 147.523438 176.46875 147.546875 173.394531 147.589844 170.25 "/>
<path style="fill:none;stroke-width:1;stroke-linecap:butt;stroke-linejoin:miter;stroke:rgb(100%,0%,0%);stroke-opacity:1;stroke-miterlimit:10;" d="M 158.761719 180.792969 C 158.722656 177.925781 158.707031 174.988281 158.707031 171.984375 C 158.707031 168.980469 158.726562 165.90625 158.761719 162.761719 "/>
<path style="fill:none;stroke-width:1;stroke-linecap:butt;stroke-linejoin:miter;stroke:rgb(100%,0%,0%);stroke-opacity:1;stroke-miterlimit:10;" d="M 169.488281 174.964844 C 169.453125 172.097656 169.441406 169.164062 169.441406 166.160156 C 169.441406 163.15625 169.457031 160.082031 169.484375 156.9375 "/>
<path style="fill:none;stroke-width:1;stroke-linecap:butt;stroke-linejoin:miter;stroke:rgb(100%,0%,0%);stroke-opacity:1;stroke-miterlimit:10;" d="M 179.859375 170.804688 C 179.835938 167.9375 179.828125 165.003906 179.828125 161.996094 C 179.828125 158.992188 179.839844 155.917969 179.855469 152.773438 "/>
<path style="fill:none;stroke-width:1;stroke-linecap:butt;stroke-linejoin:miter;stroke:rgb(100%,0%,0%);stroke-opacity:1;stroke-miterlimit:10;" d="M 189.992188 168.308594 C 189.980469 165.441406 189.972656 162.503906 189.976562 159.5 C 189.976562 156.496094 189.980469 153.421875 189.988281 150.277344 "/>
<path style="fill:none;stroke-width:1;stroke-linecap:butt;stroke-linejoin:miter;stroke:rgb(100%,0%,0%);stroke-opacity:1;stroke-miterlimit:10;" d="M 200 167.476562 C 200 164.609375 200 161.671875 200 158.667969 C 200 155.664062 200 152.589844 200 149.445312 "/>
<path style="fill:none;stroke-width:1;stroke-linecap:butt;stroke-linejoin:miter;stroke:rgb(100%,0%,0%);stroke-opacity:1;stroke-miterlimit:10;" d="M 210.007812 168.308594 C 210.019531 165.441406 210.027344 162.503906 210.023438 159.5 C 210.023438 156.496094 210.019531 153.421875 210.011719 150.277344 "/>
<path style="fill:none;stroke-width:1;stroke-linecap:butt;stroke-linejoin:miter;stroke:rgb(100%,0%,0%);stroke-opacity:1;stroke-miterlimit:10;" d="M 220.140625 170.804688 C 220.164062 167.9375 220.171875 165.003906 220.171875 161.996094 C 220.171875 158.992188 220.160156 155.917969 220.144531 152.773438 "/>
<path style="fill:none;stroke-width:1;stroke-linecap:butt;stroke-linejoin:miter;stroke:rgb(100%,0%,0%);stroke-opacity:1;stroke-miterlimit:10;" d="M 230.511719 174.964844 C 230.546875 172.097656 230.558594 169.164062 230.558594 166.160156 C 230.558594 163.15625 230.542969 160.082031 230.515625 156.9375 "/>
<path style="fill:none;stroke-width:1;stroke-linecap:butt;stroke-linejoin:miter;stroke:rgb(100%,0%,0%);stroke-opacity:1;stroke-miterlimit:10;" d="M 241.238281 180.792969 C 241.277344 177.925781 241.292969 174.988281 241.292969 171.984375 C 241.292969 168.980469 241.273438 165.90625 241.238281 162.761719 "/>
<path style="fill:none;stroke-width:1;stroke-linecap:butt;stroke-linejoin:miter;stroke:rgb(100%,0%,0%);stroke-opacity:1;stroke-miterlimit:10;" d="M 252.410156 188.28125 C 252.457031 185.414062 252.480469 182.476562 252.476562 179.472656 C 252.476562 176.46875 252.453125 173.394531 252.410156 170.25 "/>
<path style="fill:none;stroke-width:1;stroke-linecap:butt;stroke-linejoin:miter;stroke:rgb(100%,0%,0%);stroke-opacity:1;stroke-miterlimit:10;" d="M 264.121094 197.433594 C 264.175781 194.566406 264.199219 191.632812 264.199219 188.625 C 264.199219 185.621094 264.171875 182.546875 264.121094 179.402344 "/>
<path style="fill:none;stroke-width:1;stroke-linecap:butt;stroke-linejoin:miter;stroke:rgb(100%,0%,0%);stroke-opacity:1;stroke-miterlimit:10;" d="M 276.449219 208.25 C 276.507812 205.382812 276.535156 202.445312 276.535156 199.441406 C 276.53125 196.4375 276.503906 193.363281 276.449219 190.21875 "/>
<path style="fill:none;stroke-width:1;stroke-linecap:butt;stroke-linejoin:miter;stroke:rgb(100%,0%,0%);stroke-opacity:1;stroke-miterlimit:10;" d="M 289.457031 220.726562 C 289.519531 217.863281 289.550781 214.925781 289.546875 211.921875 C 289.546875 208.917969 289.515625 205.84375 289.457031 202.699219 "/>
<path style="fill:none;stroke-width:1;stroke-linecap:butt;stroke-linejoin:miter;stroke:rgb(100%,0%,0%);stroke-opacity:1;stroke-miterlimit:10;" d="M 303.203125 234.871094 C 303.269531 232.003906 303.300781 229.070312 303.300781 226.066406 C 303.296875 223.058594 303.265625 219.984375 303.199219 216.84375 "/>
<path style="fill:none;stroke-width:1;stroke-linecap:butt;stroke-linejoin:miter;stroke:rgb(100%,0%,0%);stroke-opacity:1;stroke-miterlimit:10;" d="M 317.734375 250.675781 C 317.800781 247.8125 317.835938 244.875 317.832031 241.871094 C 317.832031 238.867188 317.796875 235.792969 317.730469 232.648438 "/>
<path style="fill:none;stroke-width:1;stroke-linecap:butt;stroke-linejoin:miter;stroke:rgb(100%,0%,0%);stroke-opacity:1;stroke-miterlimit:10;" d="M 82.265625 250.675781 C 85.585938 246.980469 88.84375 243.40625 92.042969 239.957031 C 95.242188 236.503906 98.382812 233.175781 101.464844 229.972656 C 104.546875 226.765625 107.574219 223.6875 110.542969 220.726562 C 113.515625 217.769531 116.429688 214.933594 119.292969 212.222656 C 122.15625 209.511719 124.96875 206.925781 127.734375 204.457031 C 130.496094 201.992188 133.210938 199.652344 135.878906 197.433594 C 138.546875 195.214844 141.167969 193.117188 143.75 191.148438 C 146.332031 189.175781 148.871094 187.324219 151.371094 185.601562 C 153.871094 183.875 156.335938 182.269531 158.761719 180.792969 C 161.191406 179.3125 163.589844 177.957031 165.957031 176.722656 C 168.324219 175.492188 170.664062 174.382812 172.976562 173.394531 C 175.292969 172.410156 177.585938 171.546875 179.859375 170.804688 C 182.132812 170.066406 184.390625 169.449219 186.632812 168.957031 C 188.875 168.460938 191.109375 168.09375 193.335938 167.84375 C 195.558594 167.597656 197.78125 167.476562 200 167.476562 C 202.21875 167.476562 204.441406 167.597656 206.664062 167.84375 C 208.890625 168.09375 211.125 168.460938 213.367188 168.957031 C 215.609375 169.449219 217.867188 170.066406 220.140625 170.804688 C 222.414062 171.546875 224.707031 172.410156 227.023438 173.394531 C 229.335938 174.382812 231.675781 175.492188 234.042969 176.722656 C 236.410156 177.957031 238.808594 179.3125 241.238281 180.792969 C 243.664062 182.269531 246.128906 183.875 248.628906 185.601562 C 251.128906 187.324219 253.667969 189.175781 256.25 191.148438 C 258.832031 193.117188 261.453125 195.214844 264.121094 197.433594 C 266.789062 199.652344 269.503906 201.992188 272.265625 204.457031 C 275.03125 206.925781 277.84375 209.511719 280.707031 212.222656 C 283.570312 214.933594 286.484375 217.769531 289.457031 220.726562 C 292.425781 223.6875 295.453125 226.765625 298.535156 229.972656 C 301.617188 233.175781 304.757812 236.503906 307.957031 239.957031 C 311.15625 243.40625 314.414062 246.980469 317.734375 250.675781 "/>
<path style="fill:none;stroke-width:1;stroke-linecap:butt;stroke-linejoin:miter;stroke:rgb(100%,0%,0%);stroke-opacity:1;stroke-miterlimit:10;" d="M 82.269531 232.648438 C 85.589844 228.953125 88.847656 225.378906 92.046875 221.925781 C 95.242188 218.476562 98.382812 215.148438 101.464844 211.941406 C 104.546875 208.738281 107.574219 205.65625 110.542969 202.699219 C 113.515625 199.742188 116.429688 196.90625 119.292969 194.195312 C 122.15625 191.484375 124.96875 188.894531 127.734375 186.429688 C 130.496094 183.964844 133.210938 181.621094 135.878906 179.402344 C 138.546875 177.183594 141.167969 175.089844 143.75 173.117188 C 146.328125 171.144531 148.867188 169.296875 151.367188 167.570312 C 153.867188 165.84375 156.332031 164.242188 158.761719 162.761719 C 161.191406 161.28125 163.585938 159.925781 165.953125 158.691406 C 168.320312 157.460938 170.660156 156.351562 172.972656 155.363281 C 175.289062 154.378906 177.582031 153.515625 179.855469 152.773438 C 182.128906 152.035156 184.386719 151.417969 186.628906 150.925781 C 188.875 150.433594 191.105469 150.0625 193.332031 149.816406 C 195.558594 149.566406 197.78125 149.445312 200 149.445312 C 202.21875 149.445312 204.441406 149.566406 206.667969 149.816406 C 208.894531 150.0625 211.125 150.433594 213.371094 150.925781 C 215.613281 151.417969 217.871094 152.035156 220.144531 152.773438 C 222.417969 153.515625 224.710938 154.378906 227.027344 155.363281 C 229.339844 156.351562 231.679688 157.460938 234.046875 158.691406 C 236.414062 159.925781 238.808594 161.28125 241.238281 162.761719 C 243.667969 164.242188 246.132812 165.84375 248.632812 167.570312 C 251.132812 169.296875 253.671875 171.144531 256.25 173.117188 C 258.832031 175.089844 261.453125 177.183594 264.121094 179.402344 C 266.789062 181.621094 269.503906 183.964844 272.265625 186.429688 C 275.03125 188.894531 277.84375 191.484375 280.707031 194.195312 C 283.570312 196.90625 286.484375 199.742188 289.457031 202.699219 C 292.425781 205.65625 295.453125 208.738281 298.535156 211.941406 C 301.617188 215.148438 304.757812 218.476562 307.953125 221.925781 C 311.152344 225.378906 314.410156 228.953125 317.730469 232.648438 "/>
</g>
</svg>
