<?xml version="1.0" encoding="UTF-8"?>
<svg xmlns="http://www.w3.org/2000/svg" xmlns:xlink="http://www.w3.org/1999/xlink" width="200" height="30" viewBox="0 0 200 30">
<rect x="-20" y="-3" width="240" height="36" fill="rgb(100%, 100%, 100%)" fill-opacity="1"/>
<path fill-rule="nonzero" fill="rgb(100%, 50.196078%, 50.196078%)" fill-opacity="1" d="M 27.570312 10.394531 C 29.164062 10.820312 30.734375 11.234375 32.277344 11.640625 C 33.878906 12.0625 35.449219 12.476562 36.992188 12.875 C 38.597656 13.296875 40.171875 13.703125 41.714844 14.097656 C 43.328125 14.511719 44.90625 14.914062 46.449219 15.304688 C 48.066406 15.714844 49.648438 16.109375 51.191406 16.492188 C 52.816406 16.894531 54.402344 17.28125 55.949219 17.652344 C 57.582031 18.046875 59.171875 18.425781 60.71875 18.785156 C 62.363281 19.171875 63.960938 19.535156 65.511719 19.882812 C 67.167969 20.253906 68.769531 20.601562 70.324219 20.929688 C 71.992188 21.285156 73.605469 21.613281 75.167969 21.917969 C 76.851562 22.246094 78.476562 22.542969 80.042969 22.816406 C 81.746094 23.109375 83.382812 23.371094 84.964844 23.601562 C 86.679688 23.847656 88.328125 24.054688 89.933594 24.226562 C 91.652344 24.40625 93.316406 24.542969 94.953125 24.632812 C 96.65625 24.730469 98.328125 24.777344 100 24.777344 C 101.671875 24.777344 103.34375 24.730469 105.046875 24.632812 C 106.683594 24.542969 108.347656 24.40625 110.066406 24.226562 C 111.671875 24.054688 113.320312 23.847656 115.035156 23.601562 C 116.617188 23.371094 118.253906 23.109375 119.957031 22.816406 C 121.523438 22.542969 123.148438 22.246094 124.832031 21.917969 C 126.394531 21.613281 128.007812 21.285156 129.675781 20.929688 C 131.230469 20.601562 132.832031 20.253906 134.488281 19.882812 C 136.039062 19.535156 137.636719 19.171875 139.28125 18.785156 C 140.828125 18.425781 142.417969 18.046875 144.050781 17.652344 C 145.597656 17.28125 147.183594 16.894531 148.808594 16.492188 C 150.351562 16.109375 151.933594 15.714844 153.550781 15.304688 C 155.09375 14.914062 156.671875 14.511719 158.285156 14.097656 C 159.828125 13.703125 161.402344 13.296875 163.007812 12.875 C 164.550781 12.476562 166.121094 12.0625 167.722656 11.640625 C 169.265625 11.234375 170.835938 10.820312 172.429688 10.394531 C 172.359375 9.546875 172.324219 8.6875 172.324219 7.816406 C 172.324219 6.949219 172.359375 6.066406 172.429688 5.171875 C 170.832031 5.597656 169.261719 6.011719 167.71875 6.417969 C 166.117188 6.839844 164.546875 7.253906 163.003906 7.65625 C 161.398438 8.074219 159.824219 8.480469 158.28125 8.875 C 156.667969 9.289062 155.09375 9.691406 153.546875 10.082031 C 151.929688 10.492188 150.351562 10.886719 148.804688 11.269531 C 147.179688 11.671875 145.59375 12.058594 144.050781 12.429688 C 142.414062 12.824219 140.824219 13.203125 139.277344 13.5625 C 137.632812 13.949219 136.039062 14.3125 134.488281 14.660156 C 132.832031 15.03125 131.226562 15.378906 129.675781 15.707031 C 128.003906 16.058594 126.390625 16.386719 124.832031 16.691406 C 123.148438 17.019531 121.523438 17.320312 119.953125 17.589844 C 118.253906 17.886719 116.617188 18.148438 115.035156 18.375 C 113.320312 18.621094 111.667969 18.828125 110.0625 19 C 108.347656 19.179688 106.683594 19.316406 105.046875 19.40625 C 103.34375 19.503906 101.671875 19.550781 100 19.550781 C 98.328125 19.550781 96.65625 19.503906 94.953125 19.40625 C 93.316406 19.316406 91.652344 19.179688 89.9375 19 C 88.332031 18.828125 86.679688 18.621094 84.964844 18.375 C 83.382812 18.148438 81.746094 17.886719 80.046875 17.589844 C 78.476562 17.320312 76.851562 17.019531 75.167969 16.691406 C 73.609375 16.386719 71.996094 16.058594 70.324219 15.707031 C 68.773438 15.378906 67.167969 15.03125 65.511719 14.660156 C 63.960938 14.3125 62.367188 13.949219 60.722656 13.5625 C 59.175781 13.203125 57.585938 12.824219 55.949219 12.429688 C 54.40625 12.058594 52.820312 11.671875 51.195312 11.269531 C 49.648438 10.886719 48.070312 10.492188 46.453125 10.082031 C 44.90625 9.691406 43.332031 9.289062 41.71875 8.875 C 40.175781 8.480469 38.601562 8.074219 36.996094 7.65625 C 35.453125 7.253906 33.882812 6.839844 32.28125 6.417969 C 30.738281 6.011719 29.167969 5.597656 27.570312 5.171875 C 27.640625 6.066406 27.675781 6.949219 27.675781 7.816406 C 27.675781 8.6875 27.640625 9.546875 27.570312 10.394531 "/>
<path fill="none" stroke-width="1" stroke-linecap="butt" stroke-linejoin="miter" stroke="rgb(100%, 0%, 0%)" stroke-opacity="1" stroke-miterlimit="10" d="M 27.570312 10.394531 C 27.640625 9.546875 27.675781 8.6875 27.675781 7.816406 C 27.675781 6.949219 27.640625 6.066406 27.570312 5.171875 "/>
<path fill="none" stroke-width="1" stroke-linecap="butt" stroke-linejoin="miter" stroke="rgb(100%, 0%, 0%)" stroke-opacity="1" stroke-miterlimit="10" d="M 37.953125 13.125 C 38.023438 12.28125 38.058594 11.421875 38.058594 10.550781 C 38.058594 9.679688 38.023438 8.800781 37.953125 7.90625 "/>
<path fill="none" stroke-width="1" stroke-linecap="butt" stroke-linejoin="miter" stroke="rgb(100%, 0%, 0%)" stroke-opacity="1" stroke-miterlimit="10" d="M 47.507812 15.570312 C 47.578125 14.726562 47.609375 13.867188 47.609375 12.996094 C 47.613281 12.125 47.578125 11.246094 47.511719 10.351562 "/>
<path fill="none" stroke-width="1" stroke-linecap="butt" stroke-linejoin="miter" stroke="rgb(100%, 0%, 0%)" stroke-opacity="1" stroke-miterlimit="10" d="M 56.265625 17.730469 C 56.332031 16.882812 56.363281 16.023438 56.363281 15.15625 C 56.363281 14.285156 56.332031 13.402344 56.269531 12.507812 "/>
<path fill="none" stroke-width="1" stroke-linecap="butt" stroke-linejoin="miter" stroke="rgb(100%, 0%, 0%)" stroke-opacity="1" stroke-miterlimit="10" d="M 64.257812 19.601562 C 64.316406 18.753906 64.347656 17.894531 64.347656 17.023438 C 64.347656 16.15625 64.316406 15.273438 64.257812 14.375 "/>
<path fill="none" stroke-width="1" stroke-linecap="butt" stroke-linejoin="miter" stroke="rgb(100%, 0%, 0%)" stroke-opacity="1" stroke-miterlimit="10" d="M 71.527344 21.183594 C 71.582031 20.335938 71.609375 19.476562 71.609375 18.605469 C 71.609375 17.738281 71.582031 16.855469 71.527344 15.957031 "/>
<path fill="none" stroke-width="1" stroke-linecap="butt" stroke-linejoin="miter" stroke="rgb(100%, 0%, 0%)" stroke-opacity="1" stroke-miterlimit="10" d="M 78.136719 22.476562 C 78.1875 21.628906 78.210938 20.769531 78.210938 19.902344 C 78.210938 19.03125 78.1875 18.148438 78.140625 17.253906 "/>
<path fill="none" stroke-width="1" stroke-linecap="butt" stroke-linejoin="miter" stroke="rgb(100%, 0%, 0%)" stroke-opacity="1" stroke-miterlimit="10" d="M 84.171875 23.484375 C 84.210938 22.636719 84.230469 21.777344 84.230469 20.90625 C 84.230469 20.035156 84.210938 19.15625 84.171875 18.257812 "/>
<path fill="none" stroke-width="1" stroke-linecap="butt" stroke-linejoin="miter" stroke="rgb(100%, 0%, 0%)" stroke-opacity="1" stroke-miterlimit="10" d="M 89.730469 24.203125 C 89.761719 23.355469 89.773438 22.496094 89.773438 21.625 C 89.773438 20.753906 89.761719 19.875 89.730469 18.976562 "/>
<path fill="none" stroke-width="1" stroke-linecap="butt" stroke-linejoin="miter" stroke="rgb(100%, 0%, 0%)" stroke-opacity="1" stroke-miterlimit="10" d="M 94.953125 24.632812 C 94.96875 23.785156 94.976562 22.925781 94.976562 22.058594 C 94.976562 21.1875 94.96875 20.304688 94.953125 19.40625 "/>
<path fill="none" stroke-width="1" stroke-linecap="butt" stroke-linejoin="miter" stroke="rgb(100%, 0%, 0%)" stroke-opacity="1" stroke-miterlimit="10" d="M 100 24.777344 C 100 23.929688 100 23.070312 100 22.199219 C 100 21.328125 100 20.449219 100 19.550781 "/>
<path fill="none" stroke-width="1" stroke-linecap="butt" stroke-linejoin="miter" stroke="rgb(100%, 0%, 0%)" stroke-opacity="1" stroke-miterlimit="10" d="M 105.046875 24.632812 C 105.03125 23.785156 105.023438 22.925781 105.023438 22.058594 C 105.023438 21.1875 105.03125 20.304688 105.046875 19.40625 "/>
<path fill="none" stroke-width="1" stroke-linecap="butt" stroke-linejoin="miter" stroke="rgb(100%, 0%, 0%)" stroke-opacity="1" stroke-miterlimit="10" d="M 110.269531 24.203125 C 110.238281 23.355469 110.226562 22.496094 110.226562 21.625 C 110.226562 20.753906 110.238281 19.875 110.269531 18.976562 "/>
<path fill="none" stroke-width="1" stroke-linecap="butt" stroke-linejoin="miter" stroke="rgb(100%, 0%, 0%)" stroke-opacity="1" stroke-miterlimit="10" d="M 115.828125 23.484375 C 115.789062 22.636719 115.769531 21.777344 115.769531 20.90625 C 115.769531 20.035156 115.789062 19.15625 115.828125 18.257812 "/>
<path fill="none" stroke-width="1" stroke-linecap="butt" stroke-linejoin="miter" stroke="rgb(100%, 0%, 0%)" stroke-opacity="1" stroke-miterlimit="10" d="M 121.863281 22.476562 C 121.8125 21.628906 121.789062 20.769531 121.789062 19.902344 C 121.789062 19.03125 121.8125 18.148438 121.859375 17.253906 "/>
<path fill="none" stroke-width="1" stroke-linecap="butt" stroke-linejoin="miter" stroke="rgb(100%, 0%, 0%)" stroke-opacity="1" stroke-miterlimit="10" d="M 128.472656 21.183594 C 128.417969 20.335938 128.390625 19.476562 128.390625 18.605469 C 128.390625 17.738281 128.417969 16.855469 128.472656 15.957031 "/>
<path fill="none" stroke-width="1" stroke-linecap="butt" stroke-linejoin="miter" stroke="rgb(100%, 0%, 0%)" stroke-opacity="1" stroke-miterlimit="10" d="M 135.742188 19.601562 C 135.683594 18.753906 135.652344 17.894531 135.652344 17.023438 C 135.652344 16.15625 135.683594 15.273438 135.742188 14.375 "/>
<path fill="none" stroke-width="1" stroke-linecap="butt" stroke-linejoin="miter" stroke="rgb(100%, 0%, 0%)" stroke-opacity="1" stroke-miterlimit="10" d="M 143.734375 17.730469 C 143.667969 16.882812 143.636719 16.023438 143.636719 15.15625 C 143.636719 14.285156 143.667969 13.402344 143.730469 12.507812 "/>
<path fill="none" stroke-width="1" stroke-linecap="butt" stroke-linejoin="miter" stroke="rgb(100%, 0%, 0%)" stroke-opacity="1" stroke-miterlimit="10" d="M 152.492188 15.570312 C 152.421875 14.726562 152.390625 13.867188 152.390625 12.996094 C 152.386719 12.125 152.421875 11.246094 152.488281 10.351562 "/>
<path fill="none" stroke-width="1" stroke-linecap="butt" stroke-linejoin="miter" stroke="rgb(100%, 0%, 0%)" stroke-opacity="1" stroke-miterlimit="10" d="M 162.046875 13.125 C 161.976562 12.28125 161.941406 11.421875 161.941406 10.550781 C 161.941406 9.679688 161.976562 8.800781 162.046875 7.90625 "/>
<path fill="none" stroke-width="1" stroke-linecap="butt" stroke-linejoin="miter" stroke="rgb(100%, 0%, 0%)" stroke-opacity="1" stroke-miterlimit="10" d="M 172.429688 10.394531 C 172.359375 9.546875 172.324219 8.6875 172.324219 7.816406 C 172.324219 6.949219 172.359375 6.066406 172.429688 5.171875 "/>
<path fill="none" stroke-width="1" stroke-linecap="butt" stroke-linejoin="miter" stroke="rgb(100%, 0%, 0%)" stroke-opacity="1" stroke-miterlimit="10" d="M 27.570312 10.394531 C 29.164062 10.820312 30.734375 11.234375 32.277344 11.640625 C 33.878906 12.0625 35.449219 12.476562 36.992188 12.875 C 38.597656 13.296875 40.171875 13.703125 41.714844 14.097656 C 43.328125 14.511719 44.90625 14.914062 46.449219 15.304688 C 48.066406 15.714844 49.648438 16.109375 51.191406 16.492188 C 52.816406 16.894531 54.402344 17.28125 55.949219 17.652344 C 57.582031 18.046875 59.171875 18.425781 60.71875 18.785156 C 62.363281 19.171875 63.960938 19.535156 65.511719 19.882812 C 67.167969 20.253906 68.769531 20.601562 70.324219 20.929688 C 71.992188 21.285156 73.605469 21.613281 75.167969 21.917969 C 76.851562 22.246094 78.476562 22.542969 80.042969 22.816406 C 81.746094 23.109375 83.382812 23.371094 84.964844 23.601562 C 86.679688 23.847656 88.328125 24.054688 89.933594 24.226562 C 91.652344 24.40625 93.316406 24.542969 94.953125 24.632812 C 96.65625 24.730469 98.328125 24.777344 100 24.777344 C 101.671875 24.777344 103.34375 24.730469 105.046875 24.632812 C 106.683594 24.542969 108.347656 24.40625 110.066406 24.226562 C 111.671875 24.054688 113.320312 23.847656 115.035156 23.601562 C 116.617188 23.371094 118.253906 23.109375 119.957031 22.816406 C 121.523438 22.542969 123.148438 22.246094 124.832031 21.917969 C 126.394531 21.613281 128.007812 21.285156 129.675781 20.929688 C 131.230469 20.601562 132.832031 20.253906 134.488281 19.882812 C 136.039062 19.535156 137.636719 19.171875 139.28125 18.785156 C 140.828125 18.425781 142.417969 18.046875 144.050781 17.652344 C 145.597656 17.28125 147.183594 16.894531 148.808594 16.492188 C 150.351562 16.109375 151.933594 15.714844 153.550781 15.304688 C 155.09375 14.914062 156.671875 14.511719 158.285156 14.097656 C 159.828125 13.703125 161.402344 13.296875 163.007812 12.875 C 164.550781 12.476562 166.121094 12.0625 167.722656 11.640625 C 169.265625 11.234375 170.835938 10.820312 172.429688 10.394531 "/>
<path fill="none" stroke-width="1" stroke-linecap="butt" stroke-linejoin="miter" stroke="rgb(100%, 0%, 0%)" stroke-opacity="1" stroke-miterlimit="10" d="M 27.570312 5.171875 C 29.167969 5.597656 30.738281 6.011719 32.28125 6.417969 C 33.882812 6.839844 35.453125 7.253906 36.996094 7.65625 C 38.601562 8.074219 40.175781 8.480469 41.71875 8.875 C 43.332031 9.289062 44.90625 9.691406 46.453125 10.082031 C 48.070312 10.492188 49.648438 10.886719 51.195312 11.269531 C 52.820312 11.671875 54.40625 12.058594 55.949219 12.429688 C 57.585938 12.824219 59.175781 13.203125 60.722656 13.5625 C 62.367188 13.949219 63.960938 14.3125 65.511719 14.660156 C 67.167969 15.03125 68.773438 15.378906 70.324219 15.707031 C 71.996094 16.058594 73.609375 16.386719 75.167969 16.691406 C 76.851562 17.019531 78.476562 17.320312 80.046875 17.589844 C 81.746094 17.886719 83.382812 18.148438 84.964844 18.375 C 86.679688 18.621094 88.332031 18.828125 89.9375 19 C 91.652344 19.179688 93.316406 19.316406 94.953125 19.40625 C 96.65625 19.503906 98.328125 19.550781 100 19.550781 C 101.671875 19.550781 103.34375 19.503906 105.046875 19.40625 C 106.683594 19.316406 108.347656 19.179688 110.0625 19 C 111.667969 18.828125 113.320312 18.621094 115.035156 18.375 C 116.617188 18.148438 118.253906 17.886719 119.953125 17.589844 C 121.523438 17.320312 123.148438 17.019531 124.832031 16.691406 C 126.390625 16.386719 128.003906 16.058594 129.675781 15.707031 C 131.226562 15.378906 132.832031 15.03125 134.488281 14.660156 C 136.039062 14.3125 137.632812 13.949219 139.277344 13.5625 C 140.824219 13.203125 142.414062 12.824219 144.050781 12.429688 C 145.59375 12.058594 147.179688 11.671875 148.804688 11.269531 C 150.351562 10.886719 151.929688 10.492188 153.546875 10.082031 C 155.09375 9.691406 156.667969 9.289062 158.28125 8.875 C 159.824219 8.480469 161.398438 8.074219 163.003906 7.65625 C 164.546875 7.253906 166.117188 6.839844 167.71875 6.417969 C 169.261719 6.011719 170.832031 5.597656 172.429688 5.171875 "/>
</svg>
