<?xml version="1.0" encoding="UTF-8"?>
<svg xmlns="http://www.w3.org/2000/svg" xmlns:xlink="http://www.w3.org/1999/xlink" width="160mm" height="160mm" viewBox="0 0 160 160" version="1.1">
<g id="surface436">
<rect x="0" y="0" width="160" height="160" style="fill:rgb(100%,100%,100%);fill-opacity:1;stroke:none;"/>
<path style=" stroke:none;fill-rule:nonzero;fill:rgb(100%,49.803922%,49.803922%);fill-opacity:1;" d="M 36.320312 153.304688 C 32.605469 150.820312 29.101562 148.027344 25.863281 144.957031 C 22.621094 141.886719 19.644531 138.535156 16.972656 134.960938 C 14.296875 131.386719 11.929688 127.582031 9.902344 123.605469 C 7.871094 119.625 6.183594 115.476562 4.855469 111.214844 C 3.53125 106.949219 2.570312 102.574219 1.984375 98.148438 C 1.402344 93.722656 1.195312 89.246094 1.367188 84.785156 C 1.542969 80.324219 2.097656 75.875 3.023438 71.507812 C 3.949219 67.140625 5.25 62.851562 6.902344 58.707031 C 8.554688 54.558594 10.5625 50.550781 12.894531 46.746094 C 15.226562 42.9375 17.882812 39.328125 20.828125 35.972656 C 23.769531 32.617188 27 29.507812 30.46875 26.699219 C 33.9375 23.890625 37.644531 21.375 41.542969 19.191406 C 45.4375 17.011719 49.519531 15.160156 53.726562 13.671875 C 57.933594 12.179688 62.269531 11.046875 66.671875 10.292969 C 71.070312 9.535156 75.535156 9.15625 80 9.15625 C 84.464844 9.15625 88.929688 9.535156 93.328125 10.292969 C 97.730469 11.046875 102.066406 12.179688 106.273438 13.671875 C 110.480469 15.160156 114.5625 17.011719 118.457031 19.191406 C 122.355469 21.375 126.0625 23.890625 129.53125 26.699219 C 133 29.507812 136.230469 32.617188 139.171875 35.972656 C 142.117188 39.328125 144.773438 42.9375 147.105469 46.746094 C 149.4375 50.550781 151.445312 54.558594 153.097656 58.707031 C 154.75 62.851562 156.050781 67.140625 156.976562 71.507812 C 157.902344 75.875 158.457031 80.324219 158.632812 84.785156 C 158.804688 89.246094 158.597656 93.722656 158.015625 98.148438 C 157.429688 102.574219 156.46875 106.949219 155.144531 111.214844 C 153.816406 115.476562 152.128906 119.625 150.097656 123.605469 C 148.070312 127.582031 145.703125 131.386719 143.027344 134.960938 C 140.355469 138.535156 137.378906 141.886719 134.136719 144.957031 C 130.898438 148.027344 127.394531 150.820312 123.679688 153.304688 C 124.714844 154.851562 125.785156 156.453125 126.894531 158.109375 C 128 159.769531 129.144531 161.492188 130.335938 163.277344 C 134.617188 160.421875 138.652344 157.199219 142.386719 153.660156 C 146.121094 150.121094 149.554688 146.261719 152.632812 142.140625 C 155.714844 138.019531 158.441406 133.636719 160.78125 129.054688 C 163.117188 124.46875 165.066406 119.6875 166.59375 114.773438 C 168.121094 109.863281 169.230469 104.816406 169.902344 99.71875 C 170.578125 94.617188 170.816406 89.457031 170.617188 84.316406 C 170.414062 79.175781 169.777344 74.050781 168.707031 69.019531 C 167.640625 63.988281 166.140625 59.042969 164.238281 54.265625 C 162.332031 49.484375 160.019531 44.871094 157.332031 40.480469 C 154.644531 36.09375 151.582031 31.9375 148.191406 28.066406 C 144.800781 24.199219 141.078125 20.617188 137.078125 17.378906 C 133.082031 14.140625 128.808594 11.246094 124.320312 8.730469 C 119.832031 6.214844 115.128906 4.085938 110.277344 2.367188 C 105.425781 0.648438 100.429688 -0.65625 95.359375 -1.527344 C 90.289062 -2.398438 85.144531 -2.835938 80 -2.835938 C 74.855469 -2.835938 69.710938 -2.398438 64.640625 -1.527344 C 59.570312 -0.65625 54.574219 0.648438 49.722656 2.367188 C 44.871094 4.085938 40.167969 6.214844 35.679688 8.730469 C 31.191406 11.246094 26.917969 14.140625 22.921875 17.378906 C 18.921875 20.617188 15.199219 24.199219 11.808594 28.066406 C 8.417969 31.9375 5.355469 36.09375 2.667969 40.480469 C -0.0195312 44.871094 -2.332031 49.484375 -4.238281 54.265625 C -6.140625 59.042969 -7.640625 63.988281 -8.707031 69.019531 C -9.777344 74.050781 -10.414062 79.175781 -10.617188 84.316406 C -10.816406 89.457031 -10.578125 94.617188 -9.902344 99.71875 C -9.230469 104.816406 -8.121094 109.863281 -6.59375 114.773438 C -5.066406 119.6875 -3.117188 124.46875 -0.78125 129.054688 C 1.558594 133.636719 4.285156 138.019531 7.367188 142.140625 C 10.445312 146.261719 13.878906 150.121094 17.613281 153.660156 C 21.347656 157.199219 25.382812 160.421875 29.664062 163.277344 C 30.855469 161.492188 32 159.769531 33.105469 158.109375 C 34.214844 156.453125 35.285156 154.851562 36.320312 153.304688 "/>
<path style="fill:none;stroke-width:1;stroke-linecap:butt;stroke-linejoin:miter;stroke:rgb(100%,0%,0%);stroke-opacity:1;stroke-miterlimit:10;" d="M 36.320312 153.304688 C 35.285156 154.851562 34.214844 156.453125 33.105469 158.109375 C 32 159.769531 30.855469 161.492188 29.664062 163.277344 "/>
<path style="fill:none;stroke-width:1;stroke-linecap:butt;stroke-linejoin:miter;stroke:rgb(100%,0%,0%);stroke-opacity:1;stroke-miterlimit:10;" d="M 27.503906 146.46875 C 26.261719 147.855469 24.976562 149.289062 23.644531 150.777344 C 22.3125 152.265625 20.9375 153.804688 19.503906 155.402344 "/>
<path style="fill:none;stroke-width:1;stroke-linecap:butt;stroke-linejoin:miter;stroke:rgb(100%,0%,0%);stroke-opacity:1;stroke-miterlimit:10;" d="M 19.746094 138.460938 C 18.316406 139.65625 16.84375 140.894531 15.316406 142.179688 C 13.789062 143.460938 12.203125 144.792969 10.5625 146.171875 "/>
<path style="fill:none;stroke-width:1;stroke-linecap:butt;stroke-linejoin:miter;stroke:rgb(100%,0%,0%);stroke-opacity:1;stroke-miterlimit:10;" d="M 13.195312 129.433594 C 11.613281 130.417969 9.980469 131.433594 8.285156 132.488281 C 6.589844 133.542969 4.835938 134.636719 3.015625 135.769531 "/>
<path style="fill:none;stroke-width:1;stroke-linecap:butt;stroke-linejoin:miter;stroke:rgb(100%,0%,0%);stroke-opacity:1;stroke-miterlimit:10;" d="M 7.988281 119.570312 C 6.28125 120.320312 4.519531 121.097656 2.695312 121.902344 C 0.867188 122.707031 -1.023438 123.539062 -2.988281 124.40625 "/>
<path style="fill:none;stroke-width:1;stroke-linecap:butt;stroke-linejoin:miter;stroke:rgb(100%,0%,0%);stroke-opacity:1;stroke-miterlimit:10;" d="M 4.226562 109.074219 C 2.429688 109.574219 0.578125 110.09375 -1.34375 110.632812 C -3.265625 111.171875 -5.257812 111.726562 -7.324219 112.308594 "/>
<path style="fill:none;stroke-width:1;stroke-linecap:butt;stroke-linejoin:miter;stroke:rgb(100%,0%,0%);stroke-opacity:1;stroke-miterlimit:10;" d="M 1.984375 98.148438 C 0.140625 98.390625 -1.769531 98.644531 -3.75 98.90625 C -5.726562 99.164062 -7.777344 99.4375 -9.902344 99.71875 "/>
<path style="fill:none;stroke-width:1;stroke-linecap:butt;stroke-linejoin:miter;stroke:rgb(100%,0%,0%);stroke-opacity:1;stroke-miterlimit:10;" d="M 1.3125 87.015625 C -0.550781 86.996094 -2.476562 86.976562 -4.46875 86.953125 C -6.464844 86.933594 -8.53125 86.910156 -10.679688 86.890625 "/>
<path style="fill:none;stroke-width:1;stroke-linecap:butt;stroke-linejoin:miter;stroke:rgb(100%,0%,0%);stroke-opacity:1;stroke-miterlimit:10;" d="M 2.21875 75.898438 C 0.378906 75.617188 -1.523438 75.324219 -3.496094 75.023438 C -5.46875 74.71875 -7.511719 74.40625 -9.632812 74.078125 "/>
<path style="fill:none;stroke-width:1;stroke-linecap:butt;stroke-linejoin:miter;stroke:rgb(100%,0%,0%);stroke-opacity:1;stroke-miterlimit:10;" d="M 4.691406 65.023438 C 2.90625 64.484375 1.066406 63.925781 -0.84375 63.347656 C -2.753906 62.769531 -4.734375 62.167969 -6.785156 61.546875 "/>
<path style="fill:none;stroke-width:1;stroke-linecap:butt;stroke-linejoin:miter;stroke:rgb(100%,0%,0%);stroke-opacity:1;stroke-miterlimit:10;" d="M 8.671875 54.609375 C 6.984375 53.820312 5.238281 53.007812 3.429688 52.164062 C 1.621094 51.320312 -0.253906 50.449219 -2.195312 49.542969 "/>
<path style="fill:none;stroke-width:1;stroke-linecap:butt;stroke-linejoin:miter;stroke:rgb(100%,0%,0%);stroke-opacity:1;stroke-miterlimit:10;" d="M 14.085938 44.859375 C 12.527344 43.839844 10.914062 42.789062 9.242188 41.699219 C 7.570312 40.609375 5.839844 39.480469 4.042969 38.308594 "/>
<path style="fill:none;stroke-width:1;stroke-linecap:butt;stroke-linejoin:miter;stroke:rgb(100%,0%,0%);stroke-opacity:1;stroke-miterlimit:10;" d="M 20.828125 35.972656 C 19.425781 34.746094 17.976562 33.476562 16.476562 32.160156 C 14.976562 30.84375 13.421875 29.480469 11.808594 28.066406 "/>
<path style="fill:none;stroke-width:1;stroke-linecap:butt;stroke-linejoin:miter;stroke:rgb(100%,0%,0%);stroke-opacity:1;stroke-miterlimit:10;" d="M 28.753906 28.128906 C 27.539062 26.714844 26.289062 25.253906 24.988281 23.738281 C 23.6875 22.226562 22.339844 20.65625 20.945312 19.027344 "/>
<path style="fill:none;stroke-width:1;stroke-linecap:butt;stroke-linejoin:miter;stroke:rgb(100%,0%,0%);stroke-opacity:1;stroke-miterlimit:10;" d="M 37.710938 21.484375 C 36.710938 19.914062 35.675781 18.289062 34.601562 16.605469 C 33.53125 14.921875 32.417969 13.179688 31.265625 11.371094 "/>
<path style="fill:none;stroke-width:1;stroke-linecap:butt;stroke-linejoin:miter;stroke:rgb(100%,0%,0%);stroke-opacity:1;stroke-miterlimit:10;" d="M 47.515625 16.171875 C 46.746094 14.476562 45.953125 12.722656 45.128906 10.90625 C 44.304688 9.085938 43.453125 7.203125 42.566406 5.25 "/>
<path style="fill:none;stroke-width:1;stroke-linecap:butt;stroke-linejoin:miter;stroke:rgb(100%,0%,0%);stroke-opacity:1;stroke-miterlimit:10;" d="M 57.976562 12.300781 C 57.453125 10.511719 56.914062 8.664062 56.355469 6.746094 C 55.796875 4.832031 55.21875 2.847656 54.617188 0.789062 "/>
<path style="fill:none;stroke-width:1;stroke-linecap:butt;stroke-linejoin:miter;stroke:rgb(100%,0%,0%);stroke-opacity:1;stroke-miterlimit:10;" d="M 68.875 9.945312 C 68.613281 8.101562 68.339844 6.195312 68.058594 4.21875 C 67.777344 2.242188 67.484375 0.199219 67.179688 -1.925781 "/>
<path style="fill:none;stroke-width:1;stroke-linecap:butt;stroke-linejoin:miter;stroke:rgb(100%,0%,0%);stroke-opacity:1;stroke-miterlimit:10;" d="M 80 9.15625 C 80 7.292969 80 5.367188 80 3.371094 C 80 1.375 80 -0.691406 80 -2.835938 "/>
<path style="fill:none;stroke-width:1;stroke-linecap:butt;stroke-linejoin:miter;stroke:rgb(100%,0%,0%);stroke-opacity:1;stroke-miterlimit:10;" d="M 91.125 9.945312 C 91.386719 8.101562 91.660156 6.195312 91.941406 4.21875 C 92.222656 2.242188 92.515625 0.199219 92.820312 -1.925781 "/>
<path style="fill:none;stroke-width:1;stroke-linecap:butt;stroke-linejoin:miter;stroke:rgb(100%,0%,0%);stroke-opacity:1;stroke-miterlimit:10;" d="M 102.023438 12.300781 C 102.546875 10.511719 103.085938 8.664062 103.644531 6.746094 C 104.203125 4.832031 104.78125 2.847656 105.382812 0.789062 "/>
<path style="fill:none;stroke-width:1;stroke-linecap:butt;stroke-linejoin:miter;stroke:rgb(100%,0%,0%);stroke-opacity:1;stroke-miterlimit:10;" d="M 112.484375 16.171875 C 113.253906 14.476562 114.046875 12.722656 114.871094 10.90625 C 115.695312 9.085938 116.546875 7.203125 117.433594 5.25 "/>
<path style="fill:none;stroke-width:1;stroke-linecap:butt;stroke-linejoin:miter;stroke:rgb(100%,0%,0%);stroke-opacity:1;stroke-miterlimit:10;" d="M 122.289062 21.484375 C 123.289062 19.914062 124.324219 18.289062 125.398438 16.605469 C 126.46875 14.921875 127.582031 13.179688 128.734375 11.371094 "/>
<path style="fill:none;stroke-width:1;stroke-linecap:butt;stroke-linejoin:miter;stroke:rgb(100%,0%,0%);stroke-opacity:1;stroke-miterlimit:10;" d="M 131.246094 28.128906 C 132.460938 26.714844 133.710938 25.253906 135.011719 23.738281 C 136.3125 22.226562 137.660156 20.65625 139.054688 19.027344 "/>
<path style="fill:none;stroke-width:1;stroke-linecap:butt;stroke-linejoin:miter;stroke:rgb(100%,0%,0%);stroke-opacity:1;stroke-miterlimit:10;" d="M 139.171875 35.972656 C 140.574219 34.746094 142.023438 33.476562 143.523438 32.160156 C 145.023438 30.84375 146.578125 29.480469 148.191406 28.066406 "/>
<path style="fill:none;stroke-width:1;stroke-linecap:butt;stroke-linejoin:miter;stroke:rgb(100%,0%,0%);stroke-opacity:1;stroke-miterlimit:10;" d="M 145.914062 44.859375 C 147.472656 43.839844 149.085938 42.789062 150.757812 41.699219 C 152.429688 40.609375 154.160156 39.480469 155.957031 38.308594 "/>
<path style="fill:none;stroke-width:1;stroke-linecap:butt;stroke-linejoin:miter;stroke:rgb(100%,0%,0%);stroke-opacity:1;stroke-miterlimit:10;" d="M 151.328125 54.609375 C 153.015625 53.820312 154.761719 53.007812 156.570312 52.164062 C 158.378906 51.320312 160.253906 50.449219 162.195312 49.542969 "/>
<path style="fill:none;stroke-width:1;stroke-linecap:butt;stroke-linejoin:miter;stroke:rgb(100%,0%,0%);stroke-opacity:1;stroke-miterlimit:10;" d="M 155.308594 65.023438 C 157.09375 64.484375 158.933594 63.925781 160.84375 63.347656 C 162.753906 62.769531 164.734375 62.167969 166.785156 61.546875 "/>
<path style="fill:none;stroke-width:1;stroke-linecap:butt;stroke-linejoin:miter;stroke:rgb(100%,0%,0%);stroke-opacity:1;stroke-miterlimit:10;" d="M 157.78125 75.898438 C 159.621094 75.617188 161.523438 75.324219 163.496094 75.023438 C 165.46875 74.71875 167.511719 74.40625 169.632812 74.078125 "/>
<path style="fill:none;stroke-width:1;stroke-linecap:butt;stroke-linejoin:miter;stroke:rgb(100%,0%,0%);stroke-opacity:1;stroke-miterlimit:10;" d="M 158.6875 87.015625 C 160.550781 86.996094 162.476562 86.976562 164.46875 86.953125 C 166.464844 86.933594 168.53125 86.910156 170.679688 86.890625 "/>
<path style="fill:none;stroke-width:1;stroke-linecap:butt;stroke-linejoin:miter;stroke:rgb(100%,0%,0%);stroke-opacity:1;stroke-miterlimit:10;" d="M 158.015625 98.148438 C 159.859375 98.390625 161.769531 98.644531 163.75 98.90625 C 165.726562 99.164062 167.777344 99.4375 169.902344 99.71875 "/>
<path style="fill:none;stroke-width:1;stroke-linecap:butt;stroke-linejoin:miter;stroke:rgb(100%,0%,0%);stroke-opacity:1;stroke-miterlimit:10;" d="M 155.773438 109.074219 C 157.570312 109.574219 159.421875 110.09375 161.34375 110.632812 C 163.265625 111.171875 165.257812 111.726562 167.324219 112.308594 "/>
<path style="fill:none;stroke-width:1;stroke-linecap:butt;stroke-linejoin:miter;stroke:rgb(100%,0%,0%);stroke-opacity:1;stroke-miterlimit:10;" d="M 152.011719 119.570312 C 153.71875 120.320312 155.480469 121.097656 157.304688 121.902344 C 159.132812 122.707031 161.023438 123.539062 162.988281 124.40625 "/>
<path style="fill:none;stroke-width:1;stroke-linecap:butt;stroke-linejoin:miter;stroke:rgb(100%,0%,0%);stroke-opacity:1;stroke-miterlimit:10;" d="M 146.804688 129.433594 C 148.386719 130.417969 150.019531 131.433594 151.714844 132.488281 C 153.410156 133.542969 155.164062 134.636719 156.984375 135.769531 "/>
<path style="fill:none;stroke-width:1;stroke-linecap:butt;stroke-linejoin:miter;stroke:rgb(100%,0%,0%);stroke-opacity:1;stroke-miterlimit:10;" d="M 140.253906 138.460938 C 141.683594 139.65625 143.15625 140.894531 144.683594 142.179688 C 146.210938 143.460938 147.796875 144.792969 149.4375 146.171875 "/>
<path style="fill:none;stroke-width:1;stroke-linecap:butt;stroke-linejoin:miter;stroke:rgb(100%,0%,0%);stroke-opacity:1;stroke-miterlimit:10;" d="M 132.496094 146.46875 C 133.738281 147.855469 135.023438 149.289062 136.355469 150.777344 C 137.6875 152.265625 139.0625 153.804688 140.496094 155.402344 "/>
<path style="fill:none;stroke-width:1;stroke-linecap:butt;stroke-linejoin:miter;stroke:rgb(100%,0%,0%);stroke-opacity:1;stroke-miterlimit:10;" d="M 123.679688 153.304688 C 124.714844 154.851562 125.785156 156.453125 126.894531 158.109375 C 128 159.769531 129.144531 161.492188 130.335938 163.277344 "/>
<path style="fill:none;stroke-width:1;stroke-linecap:butt;stroke-linejoin:miter;stroke:rgb(100%,0%,0%);stroke-opacity:1;stroke-miterlimit:10;" d="M 36.320312 153.304688 C 32.605469 150.820312 29.101562 148.027344 25.863281 144.957031 C 22.621094 141.886719 19.644531 138.535156 16.972656 134.960938 C 14.296875 131.386719 11.929688 127.582031 9.902344 123.605469 C 7.871094 119.625 6.183594 115.476562 4.855469 111.214844 C 3.53125 106.949219 2.570312 102.574219 1.984375 98.148438 C 1.402344 93.722656 1.195312 89.246094 1.367188 84.785156 C 1.542969 80.324219 2.097656 75.875 3.023438 71.507812 C 3.949219 67.140625 5.25 62.851562 6.902344 58.707031 C 8.554688 54.558594 10.5625 50.550781 12.894531 46.746094 C 15.226562 42.9375 17.882812 39.328125 20.828125 35.972656 C 23.769531 32.617188 27 29.507812 30.46875 26.699219 C 33.9375 23.890625 37.644531 21.375 41.542969 19.191406 C 45.4375 17.011719 49.519531 15.160156 53.726562 13.671875 C 57.933594 12.179688 62.269531 11.046875 66.671875 10.292969 C 71.070312 9.535156 75.535156 9.15625 80 9.15625 C 84.464844 9.15625 88.929688 9.535156 93.328125 10.292969 C 97.730469 11.046875 102.066406 12.179688 106.273438 13.671875 C 110.480469 15.160156 114.5625 17.011719 118.457031 19.191406 C 122.355469 21.375 126.0625 23.890625 129.53125 26.699219 C 133 29.507812 136.230469 32.617188 139.171875 35.972656 C 142.117188 39.328125 144.773438 42.9375 147.105469 46.746094 C 149.4375 50.550781 151.445312 54.558594 153.097656 58.707031 C 154.75 62.851562 156.050781 67.140625 156.976562 71.507812 C 157.902344 75.875 158.457031 80.324219 158.632812 84.785156 C 158.804688 89.246094 158.597656 93.722656 158.015625 98.148438 C 157.429688 102.574219 156.46875 106.949219 155.144531 111.214844 C 153.816406 115.476562 152.128906 119.625 150.097656 123.605469 C 148.070312 127.582031 145.703125 131.386719 143.027344 134.960938 C 140.355469 138.535156 137.378906 141.886719 134.136719 144.957031 C 130.898438 148.027344 127.394531 150.820312 123.679688 153.304688 "/>
<path style="fill:none;stroke-width:1;stroke-linecap:butt;stroke-linejoin:miter;stroke:rgb(100%,0%,0%);stroke-opacity:1;stroke-miterlimit:10;" d="M 29.664062 163.277344 C 25.382812 160.421875 21.347656 157.199219 17.613281 153.660156 C 13.878906 150.121094 10.445312 146.261719 7.367188 142.140625 C 4.285156 138.019531 1.558594 133.636719 -0.78125 129.054688 C -3.117188 124.46875 -5.066406 119.6875 -6.59375 114.773438 C -8.121094 109.863281 -9.230469 104.816406 -9.902344 99.71875 C -10.578125 94.617188 -10.816406 89.457031 -10.617188 84.316406 C -10.414062 79.175781 -9.777344 74.050781 -8.707031 69.019531 C -7.640625 63.988281 -6.140625 59.042969 -4.238281 54.265625 C -2.332031 49.484375 -0.0195312 44.871094 2.667969 40.480469 C 5.355469 36.09375 8.417969 31.9375 11.808594 28.066406 C 15.199219 24.199219 18.921875 20.617188 22.921875 17.378906 C 26.917969 14.140625 31.191406 11.246094 35.679688 8.730469 C 40.167969 6.214844 44.871094 4.085938 49.722656 2.367188 C 54.574219 0.648438 59.570312 -0.65625 64.640625 -1.527344 C 69.710938 -2.398438 74.855469 -2.835938 80 -2.835938 C 85.144531 -2.835938 90.289062 -2.398438 95.359375 -1.527344 C 100.429688 -0.65625 105.425781 0.648438 110.277344 2.367188 C 115.128906 4.085938 119.832031 6.214844 124.320312 8.730469 C 128.808594 11.246094 133.082031 14.140625 137.078125 17.378906 C 141.078125 20.617188 144.800781 24.199219 148.191406 28.066406 C 151.582031 31.9375 154.644531 36.09375 157.332031 40.480469 C 160.019531 44.871094 162.332031 49.484375 164.238281 54.265625 C 166.140625 59.042969 167.640625 63.988281 168.707031 69.019531 C 169.777344 74.050781 170.414062 79.175781 170.617188 84.316406 C 170.816406 89.457031 170.578125 94.617188 169.902344 99.71875 C 169.230469 104.816406 168.121094 109.863281 166.59375 114.773438 C 165.066406 119.6875 163.117188 124.46875 160.78125 129.054688 C 158.441406 133.636719 155.714844 138.019531 152.632812 142.140625 C 149.554688 146.261719 146.121094 150.121094 142.386719 153.660156 C 138.652344 157.199219 134.617188 160.421875 130.335938 163.277344 "/>
</g>
</svg>
