<?xml version="1.0" encoding="UTF-8"?>
<svg xmlns="http://www.w3.org/2000/svg" xmlns:xlink="http://www.w3.org/1999/xlink" width="160mm" height="160mm" viewBox="0 0 160 160" version="1.1">
<g id="surface446">
<rect x="0" y="0" width="160" height="160" style="fill:rgb(100%,100%,100%);fill-opacity:1;stroke:none;"/>
<path style=" stroke:none;fill-rule:nonzero;fill:rgb(100%,49.803922%,49.803922%);fill-opacity:1;" d="M 51.273438 173.488281 C 45.570312 171.675781 40.039062 169.324219 34.777344 166.476562 C 29.515625 163.628906 24.523438 160.28125 19.886719 156.496094 C 15.253906 152.707031 10.980469 148.484375 7.140625 143.894531 C 3.300781 139.304688 -0.101562 134.351562 -3.011719 129.125 C -5.921875 123.894531 -8.335938 118.390625 -10.210938 112.710938 C -12.085938 107.027344 -13.421875 101.167969 -14.199219 95.234375 C -14.972656 89.300781 -15.183594 83.292969 -14.832031 77.320312 C -14.476562 71.347656 -13.558594 65.410156 -12.089844 59.609375 C -10.621094 53.808594 -8.601562 48.148438 -6.066406 42.726562 C -3.535156 37.304688 -0.488281 32.125 3.015625 27.277344 C 6.523438 22.425781 10.488281 17.910156 14.839844 13.804688 C 19.195312 9.703125 23.9375 6.011719 28.988281 2.796875 C 34.035156 -0.414062 39.386719 -3.152344 44.949219 -5.359375 C 50.507812 -7.566406 56.277344 -9.246094 62.15625 -10.371094 C 68.03125 -11.496094 74.015625 -12.0625 80 -12.0625 C 85.984375 -12.0625 91.96875 -11.496094 97.84375 -10.371094 C 103.722656 -9.246094 109.492188 -7.566406 115.050781 -5.359375 C 120.613281 -3.152344 125.964844 -0.414062 131.011719 2.796875 C 136.0625 6.011719 140.804688 9.703125 145.160156 13.804688 C 149.511719 17.910156 153.476562 22.425781 156.984375 27.277344 C 160.488281 32.125 163.535156 37.304688 166.066406 42.726562 C 168.601562 48.148438 170.621094 53.808594 172.089844 59.609375 C 173.558594 65.410156 174.476562 71.347656 174.832031 77.320312 C 175.183594 83.292969 174.972656 89.300781 174.199219 95.234375 C 173.421875 101.167969 172.085938 107.027344 170.210938 112.710938 C 168.335938 118.390625 165.921875 123.894531 163.011719 129.125 C 160.101562 134.351562 156.699219 139.304688 152.859375 143.894531 C 149.019531 148.484375 144.746094 152.707031 140.113281 156.496094 C 135.476562 160.28125 130.484375 163.628906 125.222656 166.476562 C 119.960938 169.324219 114.429688 171.675781 108.726562 173.488281 C 109.480469 175.863281 110.265625 178.332031 111.082031 180.902344 C 111.898438 183.472656 112.742188 186.144531 113.625 188.925781 C 120.304688 186.808594 126.777344 184.058594 132.9375 180.722656 C 139.097656 177.390625 144.941406 173.472656 150.363281 169.039062 C 155.785156 164.609375 160.789062 159.664062 165.285156 154.289062 C 169.777344 148.917969 173.765625 143.121094 177.167969 137 C 180.574219 130.882812 183.398438 124.4375 185.59375 117.785156 C 187.789062 111.136719 189.355469 104.277344 190.261719 97.332031 C 191.167969 90.386719 191.417969 83.355469 191.003906 76.363281 C 190.589844 69.371094 189.511719 62.421875 187.792969 55.632812 C 186.074219 48.839844 183.710938 42.214844 180.746094 35.871094 C 177.78125 29.523438 174.214844 23.460938 170.113281 17.785156 C 166.007812 12.109375 161.367188 6.820312 156.269531 2.015625 C 151.171875 -2.789062 145.621094 -7.109375 139.714844 -10.871094 C 133.804688 -14.628906 127.539062 -17.832031 121.03125 -20.417969 C 114.519531 -23 107.765625 -24.96875 100.886719 -26.285156 C 94.007812 -27.597656 87.003906 -28.261719 80 -28.261719 C 72.996094 -28.261719 65.992188 -27.597656 59.113281 -26.285156 C 52.234375 -24.96875 45.480469 -23 38.96875 -20.417969 C 32.460938 -17.832031 26.195312 -14.628906 20.285156 -10.871094 C 14.378906 -7.109375 8.828125 -2.789062 3.730469 2.015625 C -1.367188 6.820312 -6.007812 12.109375 -10.113281 17.785156 C -14.214844 23.460938 -17.78125 29.523438 -20.746094 35.871094 C -23.710938 42.214844 -26.074219 48.839844 -27.792969 55.632812 C -29.511719 62.421875 -30.589844 69.371094 -31.003906 76.363281 C -31.417969 83.355469 -31.167969 90.386719 -30.261719 97.332031 C -29.355469 104.277344 -27.789062 111.136719 -25.59375 117.785156 C -23.398438 124.4375 -20.574219 130.882812 -17.167969 137 C -13.765625 143.121094 -9.777344 148.917969 -5.285156 154.289062 C -0.789062 159.664062 4.214844 164.609375 9.636719 169.039062 C 15.058594 173.472656 20.902344 177.390625 27.0625 180.722656 C 33.222656 184.058594 39.695312 186.808594 46.375 188.925781 C 47.257812 186.144531 48.101562 183.472656 48.917969 180.902344 C 49.734375 178.332031 50.519531 175.863281 51.273438 173.488281 "/>
<path style="fill:none;stroke-width:1;stroke-linecap:butt;stroke-linejoin:miter;stroke:rgb(100%,0%,0%);stroke-opacity:1;stroke-miterlimit:10;" d="M 51.273438 173.488281 C 50.519531 175.863281 49.734375 178.332031 48.917969 180.902344 C 48.101562 183.472656 47.257812 186.144531 46.375 188.925781 "/>
<path style="fill:none;stroke-width:1;stroke-linecap:butt;stroke-linejoin:miter;stroke:rgb(100%,0%,0%);stroke-opacity:1;stroke-miterlimit:10;" d="M 37.429688 167.859375 C 36.3125 170.089844 35.148438 172.40625 33.941406 174.816406 C 32.734375 177.226562 31.476562 179.734375 30.167969 182.34375 "/>
<path style="fill:none;stroke-width:1;stroke-linecap:butt;stroke-linejoin:miter;stroke:rgb(100%,0%,0%);stroke-opacity:1;stroke-miterlimit:10;" d="M 24.636719 160.132812 C 23.183594 162.160156 21.675781 164.265625 20.101562 166.457031 C 18.53125 168.648438 16.898438 170.925781 15.195312 173.296875 "/>
<path style="fill:none;stroke-width:1;stroke-linecap:butt;stroke-linejoin:miter;stroke:rgb(100%,0%,0%);stroke-opacity:1;stroke-miterlimit:10;" d="M 13.21875 150.496094 C 11.464844 152.269531 9.640625 154.113281 7.746094 156.03125 C 5.851562 157.949219 3.878906 159.941406 1.828125 162.019531 "/>
<path style="fill:none;stroke-width:1;stroke-linecap:butt;stroke-linejoin:miter;stroke:rgb(100%,0%,0%);stroke-opacity:1;stroke-miterlimit:10;" d="M 3.449219 139.1875 C 1.4375 140.664062 -0.648438 142.199219 -2.820312 143.796875 C -4.996094 145.390625 -7.253906 147.050781 -9.605469 148.78125 "/>
<path style="fill:none;stroke-width:1;stroke-linecap:butt;stroke-linejoin:miter;stroke:rgb(100%,0%,0%);stroke-opacity:1;stroke-miterlimit:10;" d="M -4.425781 126.488281 C -6.644531 127.632812 -8.945312 128.820312 -11.339844 130.054688 C -13.738281 131.292969 -16.230469 132.574219 -18.824219 133.914062 "/>
<path style="fill:none;stroke-width:1;stroke-linecap:butt;stroke-linejoin:miter;stroke:rgb(100%,0%,0%);stroke-opacity:1;stroke-miterlimit:10;" d="M -10.210938 112.710938 C -12.578125 113.492188 -15.039062 114.304688 -17.601562 115.148438 C -20.160156 115.992188 -22.824219 116.871094 -25.59375 117.785156 "/>
<path style="fill:none;stroke-width:1;stroke-linecap:butt;stroke-linejoin:miter;stroke:rgb(100%,0%,0%);stroke-opacity:1;stroke-miterlimit:10;" d="M -13.761719 98.195312 C -16.226562 98.59375 -18.78125 99.011719 -21.445312 99.445312 C -24.105469 99.878906 -26.871094 100.328125 -29.753906 100.796875 "/>
<path style="fill:none;stroke-width:1;stroke-linecap:butt;stroke-linejoin:miter;stroke:rgb(100%,0%,0%);stroke-opacity:1;stroke-miterlimit:10;" d="M -13.878906 68.402344 C -16.34375 68.019531 -18.902344 67.621094 -21.570312 67.210938 C -24.234375 66.796875 -27.003906 66.367188 -29.886719 65.921875 "/>
<path style="fill:none;stroke-width:1;stroke-linecap:butt;stroke-linejoin:miter;stroke:rgb(100%,0%,0%);stroke-opacity:1;stroke-miterlimit:10;" d="M -10.4375 53.859375 C -12.8125 53.09375 -15.277344 52.300781 -17.847656 51.476562 C -20.414062 50.652344 -23.082031 49.792969 -25.859375 48.898438 "/>
<path style="fill:none;stroke-width:1;stroke-linecap:butt;stroke-linejoin:miter;stroke:rgb(100%,0%,0%);stroke-opacity:1;stroke-miterlimit:10;" d="M -4.757812 40.035156 C -6.984375 38.910156 -9.296875 37.738281 -11.703125 36.523438 C -14.109375 35.304688 -16.609375 34.039062 -19.214844 32.71875 "/>
<path style="fill:none;stroke-width:1;stroke-linecap:butt;stroke-linejoin:miter;stroke:rgb(100%,0%,0%);stroke-opacity:1;stroke-miterlimit:10;" d="M 3.015625 27.277344 C 0.996094 25.8125 -1.105469 24.296875 -3.289062 22.714844 C -5.476562 21.136719 -7.746094 19.492188 -10.113281 17.785156 "/>
<path style="fill:none;stroke-width:1;stroke-linecap:butt;stroke-linejoin:miter;stroke:rgb(100%,0%,0%);stroke-opacity:1;stroke-miterlimit:10;" d="M 12.699219 15.890625 C 10.929688 14.132812 9.09375 12.304688 7.183594 10.398438 C 5.273438 8.496094 3.289062 6.519531 1.21875 4.457031 "/>
<path style="fill:none;stroke-width:1;stroke-linecap:butt;stroke-linejoin:miter;stroke:rgb(100%,0%,0%);stroke-opacity:1;stroke-miterlimit:10;" d="M 24.042969 6.167969 C 22.574219 4.152344 21.046875 2.058594 19.460938 -0.121094 C 17.871094 -2.300781 16.21875 -4.566406 14.5 -6.925781 "/>
<path style="fill:none;stroke-width:1;stroke-linecap:butt;stroke-linejoin:miter;stroke:rgb(100%,0%,0%);stroke-opacity:1;stroke-miterlimit:10;" d="M 36.773438 -1.65625 C 35.640625 -3.878906 34.460938 -6.1875 33.234375 -8.585938 C 32.007812 -10.988281 30.730469 -13.484375 29.402344 -16.085938 "/>
<path style="fill:none;stroke-width:1;stroke-linecap:butt;stroke-linejoin:miter;stroke:rgb(100%,0%,0%);stroke-opacity:1;stroke-miterlimit:10;" d="M 50.574219 -7.390625 C 49.800781 -9.761719 49 -12.222656 48.164062 -14.789062 C 47.328125 -17.351562 46.460938 -20.015625 45.554688 -22.792969 "/>
<path style="fill:none;stroke-width:1;stroke-linecap:butt;stroke-linejoin:miter;stroke:rgb(100%,0%,0%);stroke-opacity:1;stroke-miterlimit:10;" d="M 65.101562 -10.886719 C 64.710938 -13.351562 64.304688 -15.910156 63.882812 -18.570312 C 63.460938 -21.234375 63.019531 -24.003906 62.5625 -26.886719 "/>
<path style="fill:none;stroke-width:1;stroke-linecap:butt;stroke-linejoin:miter;stroke:rgb(100%,0%,0%);stroke-opacity:1;stroke-miterlimit:10;" d="M 80 -12.0625 C 80 -14.554688 80 -17.148438 80 -19.84375 C 80 -22.539062 80 -25.34375 80 -28.261719 "/>
<path style="fill:none;stroke-width:1;stroke-linecap:butt;stroke-linejoin:miter;stroke:rgb(100%,0%,0%);stroke-opacity:1;stroke-miterlimit:10;" d="M 94.898438 -10.886719 C 95.289062 -13.351562 95.695312 -15.910156 96.117188 -18.570312 C 96.539062 -21.234375 96.980469 -24.003906 97.4375 -26.886719 "/>
<path style="fill:none;stroke-width:1;stroke-linecap:butt;stroke-linejoin:miter;stroke:rgb(100%,0%,0%);stroke-opacity:1;stroke-miterlimit:10;" d="M 109.425781 -7.390625 C 110.199219 -9.761719 111 -12.222656 111.835938 -14.789062 C 112.671875 -17.351562 113.539062 -20.015625 114.445312 -22.792969 "/>
<path style="fill:none;stroke-width:1;stroke-linecap:butt;stroke-linejoin:miter;stroke:rgb(100%,0%,0%);stroke-opacity:1;stroke-miterlimit:10;" d="M 123.226562 -1.65625 C 124.359375 -3.878906 125.539062 -6.1875 126.765625 -8.585938 C 127.992188 -10.988281 129.269531 -13.484375 130.597656 -16.085938 "/>
<path style="fill:none;stroke-width:1;stroke-linecap:butt;stroke-linejoin:miter;stroke:rgb(100%,0%,0%);stroke-opacity:1;stroke-miterlimit:10;" d="M 135.957031 6.167969 C 137.425781 4.152344 138.953125 2.058594 140.539062 -0.121094 C 142.128906 -2.300781 143.78125 -4.566406 145.5 -6.925781 "/>
<path style="fill:none;stroke-width:1;stroke-linecap:butt;stroke-linejoin:miter;stroke:rgb(100%,0%,0%);stroke-opacity:1;stroke-miterlimit:10;" d="M 147.300781 15.890625 C 149.070312 14.132812 150.90625 12.304688 152.816406 10.398438 C 154.726562 8.496094 156.710938 6.519531 158.78125 4.457031 "/>
<path style="fill:none;stroke-width:1;stroke-linecap:butt;stroke-linejoin:miter;stroke:rgb(100%,0%,0%);stroke-opacity:1;stroke-miterlimit:10;" d="M 156.984375 27.277344 C 159.003906 25.8125 161.105469 24.296875 163.289062 22.714844 C 165.476562 21.136719 167.746094 19.492188 170.113281 17.785156 "/>
<path style="fill:none;stroke-width:1;stroke-linecap:butt;stroke-linejoin:miter;stroke:rgb(100%,0%,0%);stroke-opacity:1;stroke-miterlimit:10;" d="M 164.757812 40.035156 C 166.984375 38.910156 169.296875 37.738281 171.703125 36.523438 C 174.109375 35.304688 176.609375 34.039062 179.214844 32.71875 "/>
<path style="fill:none;stroke-width:1;stroke-linecap:butt;stroke-linejoin:miter;stroke:rgb(100%,0%,0%);stroke-opacity:1;stroke-miterlimit:10;" d="M 170.4375 53.859375 C 172.8125 53.09375 175.277344 52.300781 177.847656 51.476562 C 180.414062 50.652344 183.082031 49.792969 185.859375 48.898438 "/>
<path style="fill:none;stroke-width:1;stroke-linecap:butt;stroke-linejoin:miter;stroke:rgb(100%,0%,0%);stroke-opacity:1;stroke-miterlimit:10;" d="M 173.878906 68.402344 C 176.34375 68.019531 178.902344 67.621094 181.570312 67.210938 C 184.234375 66.796875 187.003906 66.367188 189.886719 65.921875 "/>
<path style="fill:none;stroke-width:1;stroke-linecap:butt;stroke-linejoin:miter;stroke:rgb(100%,0%,0%);stroke-opacity:1;stroke-miterlimit:10;" d="M 173.761719 98.195312 C 176.226562 98.59375 178.78125 99.011719 181.445312 99.445312 C 184.105469 99.878906 186.871094 100.328125 189.753906 100.796875 "/>
<path style="fill:none;stroke-width:1;stroke-linecap:butt;stroke-linejoin:miter;stroke:rgb(100%,0%,0%);stroke-opacity:1;stroke-miterlimit:10;" d="M 170.210938 112.710938 C 172.578125 113.492188 175.039062 114.304688 177.601562 115.148438 C 180.160156 115.992188 182.824219 116.871094 185.59375 117.785156 "/>
<path style="fill:none;stroke-width:1;stroke-linecap:butt;stroke-linejoin:miter;stroke:rgb(100%,0%,0%);stroke-opacity:1;stroke-miterlimit:10;" d="M 164.425781 126.488281 C 166.644531 127.632812 168.945312 128.820312 171.339844 130.054688 C 173.738281 131.292969 176.230469 132.574219 178.824219 133.914062 "/>
<path style="fill:none;stroke-width:1;stroke-linecap:butt;stroke-linejoin:miter;stroke:rgb(100%,0%,0%);stroke-opacity:1;stroke-miterlimit:10;" d="M 156.550781 139.1875 C 158.5625 140.664062 160.648438 142.199219 162.820312 143.796875 C 164.996094 145.390625 167.253906 147.050781 169.605469 148.78125 "/>
<path style="fill:none;stroke-width:1;stroke-linecap:butt;stroke-linejoin:miter;stroke:rgb(100%,0%,0%);stroke-opacity:1;stroke-miterlimit:10;" d="M 146.78125 150.496094 C 148.535156 152.269531 150.359375 154.113281 152.253906 156.03125 C 154.148438 157.949219 156.121094 159.941406 158.171875 162.019531 "/>
<path style="fill:none;stroke-width:1;stroke-linecap:butt;stroke-linejoin:miter;stroke:rgb(100%,0%,0%);stroke-opacity:1;stroke-miterlimit:10;" d="M 135.363281 160.132812 C 136.816406 162.160156 138.324219 164.265625 139.898438 166.457031 C 141.46875 168.648438 143.101562 170.925781 144.804688 173.296875 "/>
<path style="fill:none;stroke-width:1;stroke-linecap:butt;stroke-linejoin:miter;stroke:rgb(100%,0%,0%);stroke-opacity:1;stroke-miterlimit:10;" d="M 122.570312 167.859375 C 123.6875 170.089844 124.851562 172.40625 126.058594 174.816406 C 127.265625 177.226562 128.523438 179.734375 129.832031 182.34375 "/>
<path style="fill:none;stroke-width:1;stroke-linecap:butt;stroke-linejoin:miter;stroke:rgb(100%,0%,0%);stroke-opacity:1;stroke-miterlimit:10;" d="M 108.726562 173.488281 C 109.480469 175.863281 110.265625 178.332031 111.082031 180.902344 C 111.898438 183.472656 112.742188 186.144531 113.625 188.925781 "/>
<path style="fill:none;stroke-width:1;stroke-linecap:butt;stroke-linejoin:miter;stroke:rgb(100%,0%,0%);stroke-opacity:1;stroke-miterlimit:10;" d="M 51.273438 173.488281 C 45.570312 171.675781 40.039062 169.324219 34.777344 166.476562 C 29.515625 163.628906 24.523438 160.28125 19.886719 156.496094 C 15.253906 152.707031 10.980469 148.484375 7.140625 143.894531 C 3.300781 139.304688 -0.101562 134.351562 -3.011719 129.125 C -5.921875 123.894531 -8.335938 118.390625 -10.210938 112.710938 C -12.085938 107.027344 -13.421875 101.167969 -14.199219 95.234375 C -14.972656 89.300781 -15.183594 83.292969 -14.832031 77.320312 C -14.476562 71.347656 -13.558594 65.410156 -12.089844 59.609375 C -10.621094 53.808594 -8.601562 48.148438 -6.066406 42.726562 C -3.535156 37.304688 -0.488281 32.125 3.015625 27.277344 C 6.523438 22.425781 10.488281 17.910156 14.839844 13.804688 C 19.195312 9.703125 23.9375 6.011719 28.988281 2.796875 C 34.035156 -0.414062 39.386719 -3.152344 44.949219 -5.359375 C 50.507812 -7.566406 56.277344 -9.246094 62.15625 -10.371094 C 68.03125 -11.496094 74.015625 -12.0625 80 -12.0625 C 85.984375 -12.0625 91.96875 -11.496094 97.84375 -10.371094 C 103.722656 -9.246094 109.492188 -7.566406 115.050781 -5.359375 C 120.613281 -3.152344 125.964844 -0.414062 131.011719 2.796875 C 136.0625 6.011719 140.804688 9.703125 145.160156 13.804688 C 149.511719 17.910156 153.476562 22.425781 156.984375 27.277344 C 160.488281 32.125 163.535156 37.304688 166.066406 42.726562 C 168.601562 48.148438 170.621094 53.808594 172.089844 59.609375 C 173.558594 65.410156 174.476562 71.347656 174.832031 77.320312 C 175.183594 83.292969 174.972656 89.300781 174.199219 95.234375 C 173.421875 101.167969 172.085938 107.027344 170.210938 112.710938 C 168.335938 118.390625 165.921875 123.894531 163.011719 129.125 C 160.101562 134.351562 156.699219 139.304688 152.859375 143.894531 C 149.019531 148.484375 144.746094 152.707031 140.113281 156.496094 C 135.476562 160.28125 130.484375 163.628906 125.222656 166.476562 C 119.960938 169.324219 114.429688 171.675781 108.726562 173.488281 "/>
<path style="fill:none;stroke-width:1;stroke-linecap:butt;stroke-linejoin:miter;stroke:rgb(100%,0%,0%);stroke-opacity:1;stroke-miterlimit:10;" d="M 46.375 188.925781 C 39.695312 186.808594 33.222656 184.058594 27.0625 180.722656 C 20.902344 177.390625 15.058594 173.472656 9.636719 169.039062 C 4.214844 164.609375 -0.789062 159.664062 -5.285156 154.289062 C -9.777344 148.917969 -13.765625 143.121094 -17.167969 137 C -20.574219 130.882812 -23.398438 124.4375 -25.59375 117.785156 C -27.789062 111.136719 -29.355469 104.277344 -30.261719 97.332031 C -31.167969 90.386719 -31.417969 83.355469 -31.003906 76.363281 C -30.589844 69.371094 -29.511719 62.421875 -27.792969 55.632812 C -26.074219 48.839844 -23.710938 42.214844 -20.746094 35.871094 C -17.78125 29.523438 -14.214844 23.460938 -10.113281 17.785156 C -6.007812 12.109375 -1.367188 6.820312 3.730469 2.015625 C 8.828125 -2.789062 14.378906 -7.109375 20.285156 -10.871094 C 26.195312 -14.628906 32.460938 -17.832031 38.96875 -20.417969 C 45.480469 -23 52.234375 -24.96875 59.113281 -26.285156 C 65.992188 -27.597656 72.996094 -28.261719 80 -28.261719 C 87.003906 -28.261719 94.007812 -27.597656 100.886719 -26.285156 C 107.765625 -24.96875 114.519531 -23 121.03125 -20.417969 C 127.539062 -17.832031 133.804688 -14.628906 139.714844 -10.871094 C 145.621094 -7.109375 151.171875 -2.789062 156.269531 2.015625 C 161.367188 6.820312 166.007812 12.109375 170.113281 17.785156 C 174.214844 23.460938 177.78125 29.523438 180.746094 35.871094 C 183.710938 42.214844 186.074219 48.839844 187.792969 55.632812 C 189.511719 62.421875 190.589844 69.371094 191.003906 76.363281 C 191.417969 83.355469 191.167969 90.386719 190.261719 97.332031 C 189.355469 104.277344 187.789062 111.136719 185.59375 117.785156 C 183.398438 124.4375 180.574219 130.882812 177.167969 137 C 173.765625 143.121094 169.777344 148.917969 165.285156 154.289062 C 160.789062 159.664062 155.785156 164.609375 150.363281 169.039062 C 144.941406 173.472656 139.097656 177.390625 132.9375 180.722656 C 126.777344 184.058594 120.304688 186.808594 113.625 188.925781 "/>
</g>
</svg>
