<?xml version="1.0" encoding="UTF-8"?>
<svg xmlns="http://www.w3.org/2000/svg" xmlns:xlink="http://www.w3.org/1999/xlink" width="160mm" height="160mm" viewBox="0 0 160 160" version="1.1">
<g id="surface431">
<rect x="0" y="0" width="160" height="160" style="fill:rgb(100%,100%,100%);fill-opacity:1;stroke:none;"/>
<path style=" stroke:none;fill-rule:nonzero;fill:rgb(100%,49.803922%,49.803922%);fill-opacity:1;" d="M 25.734375 145.691406 C 23.011719 142.863281 20.507812 139.832031 18.253906 136.625 C 16.003906 133.414062 14.003906 130.03125 12.277344 126.511719 C 10.550781 122.992188 9.097656 119.335938 7.9375 115.59375 C 6.78125 111.847656 5.914062 108.011719 5.351562 104.132812 C 4.785156 100.253906 4.527344 96.328125 4.570312 92.410156 C 4.617188 88.488281 4.96875 84.570312 5.625 80.707031 C 6.277344 76.839844 7.234375 73.027344 8.480469 69.308594 C 9.726562 65.59375 11.261719 61.972656 13.070312 58.496094 C 14.878906 55.015625 16.960938 51.679688 19.285156 48.523438 C 21.613281 45.371094 24.183594 42.394531 26.972656 39.640625 C 29.761719 36.886719 32.765625 34.347656 35.949219 32.058594 C 39.128906 29.769531 42.492188 27.726562 45.988281 25.960938 C 49.488281 24.191406 53.125 22.699219 56.859375 21.496094 C 60.589844 20.292969 64.414062 19.382812 68.285156 18.773438 C 72.160156 18.164062 76.078125 17.859375 80 17.859375 C 83.921875 17.859375 87.839844 18.164062 91.714844 18.773438 C 95.585938 19.382812 99.410156 20.292969 103.140625 21.496094 C 106.875 22.699219 110.511719 24.191406 114.011719 25.960938 C 117.507812 27.726562 120.871094 29.769531 124.050781 32.058594 C 127.234375 34.347656 130.238281 36.886719 133.027344 39.640625 C 135.816406 42.394531 138.386719 45.371094 140.714844 48.523438 C 143.039062 51.679688 145.121094 55.015625 146.929688 58.496094 C 148.738281 61.972656 150.273438 65.59375 151.519531 69.308594 C 152.765625 73.027344 153.722656 76.839844 154.375 80.707031 C 155.03125 84.570312 155.382812 88.488281 155.429688 92.410156 C 155.472656 96.328125 155.214844 100.253906 154.648438 104.132812 C 154.085938 108.011719 153.21875 111.847656 152.0625 115.59375 C 150.902344 119.335938 149.449219 122.992188 147.722656 126.511719 C 145.996094 130.03125 143.996094 133.414062 141.746094 136.625 C 139.492188 139.832031 136.988281 142.863281 134.265625 145.691406 C 135.445312 146.824219 136.660156 147.992188 137.910156 149.203125 C 139.164062 150.410156 140.453125 151.660156 141.792969 152.957031 C 144.898438 149.746094 147.746094 146.289062 150.3125 142.636719 C 152.875 138.980469 155.15625 135.128906 157.121094 131.121094 C 159.085938 127.113281 160.738281 122.949219 162.058594 118.6875 C 163.378906 114.421875 164.367188 110.054688 165.007812 105.636719 C 165.648438 101.21875 165.945312 96.75 165.894531 92.285156 C 165.839844 87.824219 165.441406 83.363281 164.695312 78.960938 C 163.949219 74.558594 162.863281 70.214844 161.441406 65.984375 C 160.023438 61.75 158.273438 57.628906 156.214844 53.667969 C 154.15625 49.707031 151.785156 45.90625 149.136719 42.3125 C 146.488281 38.722656 143.558594 35.335938 140.382812 32.195312 C 137.207031 29.058594 133.789062 26.167969 130.164062 23.5625 C 126.539062 20.953125 122.714844 18.628906 118.730469 16.617188 C 114.742188 14.605469 110.601562 12.902344 106.351562 11.535156 C 102.105469 10.164062 97.75 9.128906 93.339844 8.433594 C 88.929688 7.742188 84.464844 7.390625 80 7.390625 C 75.535156 7.390625 71.070312 7.742188 66.660156 8.433594 C 62.25 9.128906 57.894531 10.164062 53.648438 11.535156 C 49.398438 12.902344 45.257812 14.605469 41.269531 16.617188 C 37.285156 18.628906 33.460938 20.953125 29.835938 23.5625 C 26.210938 26.167969 22.792969 29.058594 19.617188 32.195312 C 16.441406 35.335938 13.511719 38.722656 10.863281 42.3125 C 8.214844 45.90625 5.84375 49.707031 3.785156 53.667969 C 1.726562 57.628906 -0.0234375 61.75 -1.441406 65.984375 C -2.863281 70.214844 -3.949219 74.558594 -4.695312 78.960938 C -5.441406 83.363281 -5.839844 87.824219 -5.894531 92.285156 C -5.945312 96.75 -5.648438 101.21875 -5.007812 105.636719 C -4.367188 110.054688 -3.378906 114.421875 -2.058594 118.6875 C -0.738281 122.949219 0.914062 127.113281 2.878906 131.121094 C 4.84375 135.128906 7.125 138.980469 9.6875 142.636719 C 12.253906 146.289062 15.101562 149.746094 18.207031 152.957031 C 19.546875 151.660156 20.835938 150.410156 22.089844 149.203125 C 23.339844 147.992188 24.554688 146.824219 25.734375 145.691406 "/>
<path style="fill:none;stroke-width:1;stroke-linecap:butt;stroke-linejoin:miter;stroke:rgb(100%,0%,0%);stroke-opacity:1;stroke-miterlimit:10;" d="M 25.734375 145.691406 C 24.554688 146.824219 23.339844 147.992188 22.089844 149.203125 C 20.835938 150.410156 19.546875 151.660156 18.207031 152.957031 "/>
<path style="fill:none;stroke-width:1;stroke-linecap:butt;stroke-linejoin:miter;stroke:rgb(100%,0%,0%);stroke-opacity:1;stroke-miterlimit:10;" d="M 19.402344 138.214844 C 18.089844 139.1875 16.734375 140.191406 15.335938 141.230469 C 13.933594 142.265625 12.492188 143.335938 10.996094 144.445312 "/>
<path style="fill:none;stroke-width:1;stroke-linecap:butt;stroke-linejoin:miter;stroke:rgb(100%,0%,0%);stroke-opacity:1;stroke-miterlimit:10;" d="M 14.09375 129.984375 C 12.664062 130.78125 11.191406 131.601562 9.667969 132.445312 C 8.148438 133.292969 6.574219 134.167969 4.949219 135.074219 "/>
<path style="fill:none;stroke-width:1;stroke-linecap:butt;stroke-linejoin:miter;stroke:rgb(100%,0%,0%);stroke-opacity:1;stroke-miterlimit:10;" d="M 9.894531 121.136719 C 8.375 121.738281 6.808594 122.363281 5.1875 123.003906 C 3.570312 123.648438 1.898438 124.3125 0.167969 125 "/>
<path style="fill:none;stroke-width:1;stroke-linecap:butt;stroke-linejoin:miter;stroke:rgb(100%,0%,0%);stroke-opacity:1;stroke-miterlimit:10;" d="M 6.878906 111.820312 C 5.292969 112.21875 3.65625 112.632812 1.96875 113.0625 C 0.28125 113.488281 -1.460938 113.929688 -3.269531 114.390625 "/>
<path style="fill:none;stroke-width:1;stroke-linecap:butt;stroke-linejoin:miter;stroke:rgb(100%,0%,0%);stroke-opacity:1;stroke-miterlimit:10;" d="M 5.09375 102.1875 C 3.46875 102.382812 1.796875 102.582031 0.0664062 102.785156 C -1.664062 102.992188 -3.449219 103.203125 -5.300781 103.421875 "/>
<path style="fill:none;stroke-width:1;stroke-linecap:butt;stroke-linejoin:miter;stroke:rgb(100%,0%,0%);stroke-opacity:1;stroke-miterlimit:10;" d="M 4.570312 92.410156 C 2.9375 92.390625 1.25 92.371094 -0.492188 92.347656 C -2.234375 92.328125 -4.03125 92.308594 -5.894531 92.285156 "/>
<path style="fill:none;stroke-width:1;stroke-linecap:butt;stroke-linejoin:miter;stroke:rgb(100%,0%,0%);stroke-opacity:1;stroke-miterlimit:10;" d="M 5.320312 82.644531 C 3.703125 82.414062 2.035156 82.175781 0.308594 81.929688 C -1.414062 81.683594 -3.195312 81.429688 -5.039062 81.167969 "/>
<path style="fill:none;stroke-width:1;stroke-linecap:butt;stroke-linejoin:miter;stroke:rgb(100%,0%,0%);stroke-opacity:1;stroke-miterlimit:10;" d="M 7.332031 73.058594 C 5.753906 72.621094 4.132812 72.167969 2.453125 71.699219 C 0.777344 71.234375 -0.957031 70.75 -2.75 70.25 "/>
<path style="fill:none;stroke-width:1;stroke-linecap:butt;stroke-linejoin:miter;stroke:rgb(100%,0%,0%);stroke-opacity:1;stroke-miterlimit:10;" d="M 10.566406 63.8125 C 9.058594 63.175781 7.507812 62.515625 5.90625 61.835938 C 4.300781 61.15625 2.644531 60.453125 0.929688 59.722656 "/>
<path style="fill:none;stroke-width:1;stroke-linecap:butt;stroke-linejoin:miter;stroke:rgb(100%,0%,0%);stroke-opacity:1;stroke-miterlimit:10;" d="M 14.96875 55.066406 C 13.558594 54.238281 12.105469 53.382812 10.605469 52.5 C 9.101562 51.617188 7.550781 50.707031 5.945312 49.761719 "/>
<path style="fill:none;stroke-width:1;stroke-linecap:butt;stroke-linejoin:miter;stroke:rgb(100%,0%,0%);stroke-opacity:1;stroke-miterlimit:10;" d="M 20.46875 46.960938 C 19.179688 45.957031 17.847656 44.921875 16.472656 43.851562 C 15.097656 42.785156 13.679688 41.679688 12.210938 40.535156 "/>
<path style="fill:none;stroke-width:1;stroke-linecap:butt;stroke-linejoin:miter;stroke:rgb(100%,0%,0%);stroke-opacity:1;stroke-miterlimit:10;" d="M 26.972656 39.640625 C 25.824219 38.476562 24.640625 37.277344 23.414062 36.039062 C 22.191406 34.800781 20.925781 33.523438 19.617188 32.195312 "/>
<path style="fill:none;stroke-width:1;stroke-linecap:butt;stroke-linejoin:miter;stroke:rgb(100%,0%,0%);stroke-opacity:1;stroke-miterlimit:10;" d="M 34.371094 33.222656 C 33.382812 31.921875 32.363281 30.578125 31.308594 29.191406 C 30.253906 27.804688 29.167969 26.371094 28.039062 24.886719 "/>
<path style="fill:none;stroke-width:1;stroke-linecap:butt;stroke-linejoin:miter;stroke:rgb(100%,0%,0%);stroke-opacity:1;stroke-miterlimit:10;" d="M 42.539062 27.816406 C 41.726562 26.398438 40.890625 24.933594 40.023438 23.421875 C 39.160156 21.910156 38.265625 20.351562 37.339844 18.734375 "/>
<path style="fill:none;stroke-width:1;stroke-linecap:butt;stroke-linejoin:miter;stroke:rgb(100%,0%,0%);stroke-opacity:1;stroke-miterlimit:10;" d="M 51.335938 23.515625 C 50.714844 22.003906 50.074219 20.445312 49.414062 18.832031 C 48.75 17.222656 48.066406 15.558594 47.359375 13.835938 "/>
<path style="fill:none;stroke-width:1;stroke-linecap:butt;stroke-linejoin:miter;stroke:rgb(100%,0%,0%);stroke-opacity:1;stroke-miterlimit:10;" d="M 60.617188 20.390625 C 60.199219 18.808594 59.765625 17.179688 59.316406 15.496094 C 58.871094 13.8125 58.40625 12.074219 57.929688 10.277344 "/>
<path style="fill:none;stroke-width:1;stroke-linecap:butt;stroke-linejoin:miter;stroke:rgb(100%,0%,0%);stroke-opacity:1;stroke-miterlimit:10;" d="M 70.226562 18.492188 C 70.015625 16.871094 69.796875 15.199219 69.570312 13.472656 C 69.34375 11.746094 69.113281 9.960938 68.871094 8.117188 "/>
<path style="fill:none;stroke-width:1;stroke-linecap:butt;stroke-linejoin:miter;stroke:rgb(100%,0%,0%);stroke-opacity:1;stroke-miterlimit:10;" d="M 80 17.859375 C 80 16.222656 80 14.535156 80 12.792969 C 80 11.054688 80 9.253906 80 7.390625 "/>
<path style="fill:none;stroke-width:1;stroke-linecap:butt;stroke-linejoin:miter;stroke:rgb(100%,0%,0%);stroke-opacity:1;stroke-miterlimit:10;" d="M 89.773438 18.492188 C 89.984375 16.871094 90.203125 15.199219 90.429688 13.472656 C 90.65625 11.746094 90.886719 9.960938 91.128906 8.117188 "/>
<path style="fill:none;stroke-width:1;stroke-linecap:butt;stroke-linejoin:miter;stroke:rgb(100%,0%,0%);stroke-opacity:1;stroke-miterlimit:10;" d="M 99.382812 20.390625 C 99.800781 18.808594 100.234375 17.179688 100.683594 15.496094 C 101.128906 13.8125 101.59375 12.074219 102.070312 10.277344 "/>
<path style="fill:none;stroke-width:1;stroke-linecap:butt;stroke-linejoin:miter;stroke:rgb(100%,0%,0%);stroke-opacity:1;stroke-miterlimit:10;" d="M 108.664062 23.515625 C 109.285156 22.003906 109.925781 20.445312 110.585938 18.832031 C 111.25 17.222656 111.933594 15.558594 112.640625 13.835938 "/>
<path style="fill:none;stroke-width:1;stroke-linecap:butt;stroke-linejoin:miter;stroke:rgb(100%,0%,0%);stroke-opacity:1;stroke-miterlimit:10;" d="M 117.460938 27.816406 C 118.273438 26.398438 119.109375 24.933594 119.976562 23.421875 C 120.839844 21.910156 121.734375 20.351562 122.660156 18.734375 "/>
<path style="fill:none;stroke-width:1;stroke-linecap:butt;stroke-linejoin:miter;stroke:rgb(100%,0%,0%);stroke-opacity:1;stroke-miterlimit:10;" d="M 125.628906 33.222656 C 126.617188 31.921875 127.636719 30.578125 128.691406 29.191406 C 129.746094 27.804688 130.832031 26.371094 131.960938 24.886719 "/>
<path style="fill:none;stroke-width:1;stroke-linecap:butt;stroke-linejoin:miter;stroke:rgb(100%,0%,0%);stroke-opacity:1;stroke-miterlimit:10;" d="M 133.027344 39.640625 C 134.175781 38.476562 135.359375 37.277344 136.585938 36.039062 C 137.808594 34.800781 139.074219 33.523438 140.382812 32.195312 "/>
<path style="fill:none;stroke-width:1;stroke-linecap:butt;stroke-linejoin:miter;stroke:rgb(100%,0%,0%);stroke-opacity:1;stroke-miterlimit:10;" d="M 139.53125 46.960938 C 140.820312 45.957031 142.152344 44.921875 143.527344 43.851562 C 144.902344 42.785156 146.320312 41.679688 147.789062 40.535156 "/>
<path style="fill:none;stroke-width:1;stroke-linecap:butt;stroke-linejoin:miter;stroke:rgb(100%,0%,0%);stroke-opacity:1;stroke-miterlimit:10;" d="M 145.03125 55.066406 C 146.441406 54.238281 147.894531 53.382812 149.394531 52.5 C 150.898438 51.617188 152.449219 50.707031 154.054688 49.761719 "/>
<path style="fill:none;stroke-width:1;stroke-linecap:butt;stroke-linejoin:miter;stroke:rgb(100%,0%,0%);stroke-opacity:1;stroke-miterlimit:10;" d="M 149.433594 63.8125 C 150.941406 63.175781 152.492188 62.515625 154.09375 61.835938 C 155.699219 61.15625 157.355469 60.453125 159.070312 59.722656 "/>
<path style="fill:none;stroke-width:1;stroke-linecap:butt;stroke-linejoin:miter;stroke:rgb(100%,0%,0%);stroke-opacity:1;stroke-miterlimit:10;" d="M 152.667969 73.058594 C 154.246094 72.621094 155.867188 72.167969 157.546875 71.699219 C 159.222656 71.234375 160.957031 70.75 162.75 70.25 "/>
<path style="fill:none;stroke-width:1;stroke-linecap:butt;stroke-linejoin:miter;stroke:rgb(100%,0%,0%);stroke-opacity:1;stroke-miterlimit:10;" d="M 154.679688 82.644531 C 156.296875 82.414062 157.964844 82.175781 159.691406 81.929688 C 161.414062 81.683594 163.195312 81.429688 165.039062 81.167969 "/>
<path style="fill:none;stroke-width:1;stroke-linecap:butt;stroke-linejoin:miter;stroke:rgb(100%,0%,0%);stroke-opacity:1;stroke-miterlimit:10;" d="M 155.429688 92.410156 C 157.0625 92.390625 158.75 92.371094 160.492188 92.347656 C 162.234375 92.328125 164.03125 92.308594 165.894531 92.285156 "/>
<path style="fill:none;stroke-width:1;stroke-linecap:butt;stroke-linejoin:miter;stroke:rgb(100%,0%,0%);stroke-opacity:1;stroke-miterlimit:10;" d="M 154.90625 102.1875 C 156.53125 102.382812 158.203125 102.582031 159.933594 102.785156 C 161.664062 102.992188 163.449219 103.203125 165.300781 103.421875 "/>
<path style="fill:none;stroke-width:1;stroke-linecap:butt;stroke-linejoin:miter;stroke:rgb(100%,0%,0%);stroke-opacity:1;stroke-miterlimit:10;" d="M 153.121094 111.820312 C 154.707031 112.21875 156.34375 112.632812 158.03125 113.0625 C 159.71875 113.488281 161.460938 113.929688 163.269531 114.390625 "/>
<path style="fill:none;stroke-width:1;stroke-linecap:butt;stroke-linejoin:miter;stroke:rgb(100%,0%,0%);stroke-opacity:1;stroke-miterlimit:10;" d="M 150.105469 121.136719 C 151.625 121.738281 153.191406 122.363281 154.8125 123.003906 C 156.429688 123.648438 158.101562 124.3125 159.832031 125 "/>
<path style="fill:none;stroke-width:1;stroke-linecap:butt;stroke-linejoin:miter;stroke:rgb(100%,0%,0%);stroke-opacity:1;stroke-miterlimit:10;" d="M 145.90625 129.984375 C 147.335938 130.78125 148.808594 131.601562 150.332031 132.445312 C 151.851562 133.292969 153.425781 134.167969 155.050781 135.074219 "/>
<path style="fill:none;stroke-width:1;stroke-linecap:butt;stroke-linejoin:miter;stroke:rgb(100%,0%,0%);stroke-opacity:1;stroke-miterlimit:10;" d="M 140.597656 138.214844 C 141.910156 139.1875 143.265625 140.191406 144.664062 141.230469 C 146.066406 142.265625 147.507812 143.335938 149.003906 144.445312 "/>
<path style="fill:none;stroke-width:1;stroke-linecap:butt;stroke-linejoin:miter;stroke:rgb(100%,0%,0%);stroke-opacity:1;stroke-miterlimit:10;" d="M 134.265625 145.691406 C 135.445312 146.824219 136.660156 147.992188 137.910156 149.203125 C 139.164062 150.410156 140.453125 151.660156 141.792969 152.957031 "/>
<path style="fill:none;stroke-width:1;stroke-linecap:butt;stroke-linejoin:miter;stroke:rgb(100%,0%,0%);stroke-opacity:1;stroke-miterlimit:10;" d="M 25.734375 145.691406 C 23.011719 142.863281 20.507812 139.832031 18.253906 136.625 C 16.003906 133.414062 14.003906 130.03125 12.277344 126.511719 C 10.550781 122.992188 9.097656 119.335938 7.9375 115.59375 C 6.78125 111.847656 5.914062 108.011719 5.351562 104.132812 C 4.785156 100.253906 4.527344 96.328125 4.570312 92.410156 C 4.617188 88.488281 4.96875 84.570312 5.625 80.707031 C 6.277344 76.839844 7.234375 73.027344 8.480469 69.308594 C 9.726562 65.59375 11.261719 61.972656 13.070312 58.496094 C 14.878906 55.015625 16.960938 51.679688 19.285156 48.523438 C 21.613281 45.371094 24.183594 42.394531 26.972656 39.640625 C 29.761719 36.886719 32.765625 34.347656 35.949219 32.058594 C 39.128906 29.769531 42.492188 27.726562 45.988281 25.960938 C 49.488281 24.191406 53.125 22.699219 56.859375 21.496094 C 60.589844 20.292969 64.414062 19.382812 68.285156 18.773438 C 72.160156 18.164062 76.078125 17.859375 80 17.859375 C 83.921875 17.859375 87.839844 18.164062 91.714844 18.773438 C 95.585938 19.382812 99.410156 20.292969 103.140625 21.496094 C 106.875 22.699219 110.511719 24.191406 114.011719 25.960938 C 117.507812 27.726562 120.871094 29.769531 124.050781 32.058594 C 127.234375 34.347656 130.238281 36.886719 133.027344 39.640625 C 135.816406 42.394531 138.386719 45.371094 140.714844 48.523438 C 143.039062 51.679688 145.121094 55.015625 146.929688 58.496094 C 148.738281 61.972656 150.273438 65.59375 151.519531 69.308594 C 152.765625 73.027344 153.722656 76.839844 154.375 80.707031 C 155.03125 84.570312 155.382812 88.488281 155.429688 92.410156 C 155.472656 96.328125 155.214844 100.253906 154.648438 104.132812 C 154.085938 108.011719 153.21875 111.847656 152.0625 115.59375 C 150.902344 119.335938 149.449219 122.992188 147.722656 126.511719 C 145.996094 130.03125 143.996094 133.414062 141.746094 136.625 C 139.492188 139.832031 136.988281 142.863281 134.265625 145.691406 "/>
<path style="fill:none;stroke-width:1;stroke-linecap:butt;stroke-linejoin:miter;stroke:rgb(100%,0%,0%);stroke-opacity:1;stroke-miterlimit:10;" d="M 18.207031 152.957031 C 15.101562 149.746094 12.253906 146.289062 9.6875 142.636719 C 7.125 138.980469 4.84375 135.128906 2.878906 131.121094 C 0.914062 127.113281 -0.738281 122.949219 -2.058594 118.6875 C -3.378906 114.421875 -4.367188 110.054688 -5.007812 105.636719 C -5.648438 101.21875 -5.945312 96.75 -5.894531 92.285156 C -5.839844 87.824219 -5.441406 83.363281 -4.695312 78.960938 C -3.949219 74.558594 -2.863281 70.214844 -1.441406 65.984375 C -0.0234375 61.75 1.726562 57.628906 3.785156 53.667969 C 5.84375 49.707031 8.214844 45.90625 10.863281 42.3125 C 13.511719 38.722656 16.441406 35.335938 19.617188 32.195312 C 22.792969 29.058594 26.210938 26.167969 29.835938 23.5625 C 33.460938 20.953125 37.285156 18.628906 41.269531 16.617188 C 45.257812 14.605469 49.398438 12.902344 53.648438 11.535156 C 57.894531 10.164062 62.25 9.128906 66.660156 8.433594 C 71.070312 7.742188 75.535156 7.390625 80 7.390625 C 84.464844 7.390625 88.929688 7.742188 93.339844 8.433594 C 97.75 9.128906 102.105469 10.164062 106.351562 11.535156 C 110.601562 12.902344 114.742188 14.605469 118.730469 16.617188 C 122.714844 18.628906 126.539062 20.953125 130.164062 23.5625 C 133.789062 26.167969 137.207031 29.058594 140.382812 32.195312 C 143.558594 35.335938 146.488281 38.722656 149.136719 42.3125 C 151.785156 45.90625 154.15625 49.707031 156.214844 53.667969 C 158.273438 57.628906 160.023438 61.75 161.441406 65.984375 C 162.863281 70.214844 163.949219 74.558594 164.695312 78.960938 C 165.441406 83.363281 165.839844 87.824219 165.894531 92.285156 C 165.945312 96.75 165.648438 101.21875 165.007812 105.636719 C 164.367188 110.054688 163.378906 114.421875 162.058594 118.6875 C 160.738281 122.949219 159.085938 127.113281 157.121094 131.121094 C 155.15625 135.128906 152.875 138.980469 150.3125 142.636719 C 147.746094 146.289062 144.898438 149.746094 141.792969 152.957031 "/>
</g>
</svg>
