<?xml version="1.0" encoding="UTF-8"?>
<svg xmlns="http://www.w3.org/2000/svg" xmlns:xlink="http://www.w3.org/1999/xlink" width="160mm" height="160mm" viewBox="0 0 160 160" version="1.1">
<g id="surface441">
<rect x="0" y="0" width="160" height="160" style="fill:rgb(100%,100%,100%);fill-opacity:1;stroke:none;"/>
<path style=" stroke:none;fill-rule:nonzero;fill:rgb(100%,49.803922%,49.803922%);fill-opacity:1;" d="M 44.691406 162.363281 C 40.003906 160.230469 35.515625 157.675781 31.292969 154.738281 C 27.066406 151.796875 23.109375 148.476562 19.484375 144.824219 C 15.859375 141.175781 12.5625 137.195312 9.652344 132.949219 C 6.746094 128.707031 4.21875 124.199219 2.121094 119.5 C 0.0234375 114.804688 -1.648438 109.914062 -2.867188 104.914062 C -4.085938 99.917969 -4.851562 94.804688 -5.148438 89.667969 C -5.445312 84.53125 -5.28125 79.367188 -4.648438 74.261719 C -4.015625 69.15625 -2.921875 64.105469 -1.382812 59.195312 C 0.15625 54.285156 2.140625 49.515625 4.539062 44.964844 C 6.9375 40.414062 9.75 36.078125 12.929688 32.03125 C 16.105469 27.984375 19.652344 24.226562 23.507812 20.820312 C 27.363281 17.410156 31.527344 14.351562 35.933594 11.695312 C 40.339844 9.035156 44.984375 6.777344 49.796875 4.957031 C 54.609375 3.132812 59.585938 1.746094 64.648438 0.820312 C 69.710938 -0.105469 74.855469 -0.570312 80 -0.570312 C 85.144531 -0.570312 90.289062 -0.105469 95.351562 0.820312 C 100.414062 1.746094 105.390625 3.132812 110.203125 4.957031 C 115.015625 6.777344 119.660156 9.035156 124.066406 11.695312 C 128.472656 14.351562 132.636719 17.410156 136.492188 20.820312 C 140.347656 24.226562 143.894531 27.984375 147.070312 32.03125 C 150.25 36.078125 153.0625 40.414062 155.460938 44.964844 C 157.859375 49.515625 159.84375 54.285156 161.382812 59.195312 C 162.921875 64.105469 164.015625 69.15625 164.648438 74.261719 C 165.28125 79.367188 165.445312 84.53125 165.148438 89.667969 C 164.851562 94.804688 164.085938 99.917969 162.867188 104.914062 C 161.648438 109.914062 159.976562 114.804688 157.878906 119.5 C 155.78125 124.199219 153.253906 128.707031 150.347656 132.949219 C 147.4375 137.195312 144.140625 141.175781 140.515625 144.824219 C 136.890625 148.476562 132.933594 151.796875 128.707031 154.738281 C 124.484375 157.675781 119.996094 160.230469 115.308594 162.363281 C 116.199219 164.316406 117.121094 166.335938 118.078125 168.441406 C 119.035156 170.542969 120.023438 172.726562 121.054688 175 C 126.507812 172.523438 131.726562 169.550781 136.636719 166.132812 C 141.550781 162.71875 146.152344 158.855469 150.367188 154.609375 C 154.582031 150.363281 158.414062 145.738281 161.796875 140.800781 C 165.179688 135.867188 168.117188 130.625 170.554688 125.164062 C 172.996094 119.699219 174.941406 114.015625 176.355469 108.203125 C 177.773438 102.390625 178.664062 96.449219 179.007812 90.476562 C 179.355469 84.503906 179.160156 78.496094 178.429688 72.558594 C 177.695312 66.621094 176.421875 60.75 174.632812 55.042969 C 172.839844 49.332031 170.53125 43.785156 167.742188 38.492188 C 164.953125 33.199219 161.6875 28.160156 157.988281 23.453125 C 154.292969 18.75 150.171875 14.378906 145.6875 10.417969 C 141.207031 6.453125 136.363281 2.898438 131.242188 -0.191406 C 126.117188 -3.285156 120.714844 -5.910156 115.121094 -8.03125 C 109.523438 -10.148438 103.738281 -11.757812 97.851562 -12.835938 C 91.964844 -13.914062 85.984375 -14.457031 80 -14.457031 C 74.015625 -14.457031 68.035156 -13.914062 62.148438 -12.835938 C 56.261719 -11.757812 50.476562 -10.148438 44.878906 -8.03125 C 39.285156 -5.910156 33.882812 -3.285156 28.757812 -0.191406 C 23.636719 2.898438 18.792969 6.453125 14.3125 10.417969 C 9.828125 14.378906 5.707031 18.75 2.011719 23.453125 C -1.6875 28.160156 -4.953125 33.199219 -7.742188 38.492188 C -10.53125 43.785156 -12.839844 49.332031 -14.632812 55.042969 C -16.421875 60.75 -17.695312 66.621094 -18.429688 72.558594 C -19.160156 78.496094 -19.355469 84.503906 -19.007812 90.476562 C -18.664062 96.449219 -17.773438 102.390625 -16.355469 108.203125 C -14.941406 114.015625 -12.996094 119.699219 -10.554688 125.164062 C -8.117188 130.625 -5.179688 135.867188 -1.796875 140.800781 C 1.585938 145.738281 5.417969 150.363281 9.632812 154.609375 C 13.847656 158.855469 18.449219 162.71875 23.363281 166.132812 C 28.273438 169.550781 33.492188 172.523438 38.945312 175 C 39.976562 172.726562 40.964844 170.542969 41.921875 168.441406 C 42.878906 166.335938 43.800781 164.316406 44.691406 162.363281 "/>
<path style="fill:none;stroke-width:1;stroke-linecap:butt;stroke-linejoin:miter;stroke:rgb(100%,0%,0%);stroke-opacity:1;stroke-miterlimit:10;" d="M 44.691406 162.363281 C 43.800781 164.316406 42.878906 166.335938 41.921875 168.441406 C 40.964844 170.542969 39.976562 172.726562 38.945312 175 "/>
<path style="fill:none;stroke-width:1;stroke-linecap:butt;stroke-linejoin:miter;stroke:rgb(100%,0%,0%);stroke-opacity:1;stroke-miterlimit:10;" d="M 33.425781 156.171875 C 32.253906 157.972656 31.039062 159.835938 29.777344 161.769531 C 28.515625 163.707031 27.207031 165.714844 25.84375 167.804688 "/>
<path style="fill:none;stroke-width:1;stroke-linecap:butt;stroke-linejoin:miter;stroke:rgb(100%,0%,0%);stroke-opacity:1;stroke-miterlimit:10;" d="M 23.21875 148.363281 C 21.789062 149.964844 20.308594 151.625 18.769531 153.347656 C 17.230469 155.074219 15.636719 156.863281 13.976562 158.726562 "/>
<path style="fill:none;stroke-width:1;stroke-linecap:butt;stroke-linejoin:miter;stroke:rgb(100%,0%,0%);stroke-opacity:1;stroke-miterlimit:10;" d="M 14.300781 139.109375 C 12.648438 140.480469 10.933594 141.898438 9.152344 143.371094 C 7.375 144.84375 5.527344 146.375 3.605469 147.964844 "/>
<path style="fill:none;stroke-width:1;stroke-linecap:butt;stroke-linejoin:miter;stroke:rgb(100%,0%,0%);stroke-opacity:1;stroke-miterlimit:10;" d="M 6.875 128.621094 C 5.035156 129.726562 3.128906 130.871094 1.144531 132.0625 C -0.835938 133.25 -2.890625 134.484375 -5.03125 135.769531 "/>
<path style="fill:none;stroke-width:1;stroke-linecap:butt;stroke-linejoin:miter;stroke:rgb(100%,0%,0%);stroke-opacity:1;stroke-miterlimit:10;" d="M 1.109375 117.136719 C -0.875 117.953125 -2.933594 118.796875 -5.070312 119.675781 C -7.207031 120.554688 -9.425781 121.464844 -11.734375 122.414062 "/>
<path style="fill:none;stroke-width:1;stroke-linecap:butt;stroke-linejoin:miter;stroke:rgb(100%,0%,0%);stroke-opacity:1;stroke-miterlimit:10;" d="M -2.867188 104.914062 C -4.953125 105.421875 -7.113281 105.949219 -9.359375 106.496094 C -11.601562 107.042969 -13.933594 107.613281 -16.355469 108.203125 "/>
<path style="fill:none;stroke-width:1;stroke-linecap:butt;stroke-linejoin:miter;stroke:rgb(100%,0%,0%);stroke-opacity:1;stroke-miterlimit:10;" d="M -4.960938 92.234375 C -7.097656 92.425781 -9.3125 92.621094 -11.613281 92.824219 C -13.917969 93.027344 -16.304688 93.238281 -18.789062 93.457031 "/>
<path style="fill:none;stroke-width:1;stroke-linecap:butt;stroke-linejoin:miter;stroke:rgb(100%,0%,0%);stroke-opacity:1;stroke-miterlimit:10;" d="M -5.125 79.386719 C -7.265625 79.25 -9.484375 79.113281 -11.792969 78.96875 C -14.097656 78.824219 -16.492188 78.671875 -18.980469 78.515625 "/>
<path style="fill:none;stroke-width:1;stroke-linecap:butt;stroke-linejoin:miter;stroke:rgb(100%,0%,0%);stroke-opacity:1;stroke-miterlimit:10;" d="M -3.355469 66.65625 C -5.453125 66.199219 -7.628906 65.730469 -9.886719 65.242188 C -12.144531 64.75 -14.488281 64.242188 -16.925781 63.714844 "/>
<path style="fill:none;stroke-width:1;stroke-linecap:butt;stroke-linejoin:miter;stroke:rgb(100%,0%,0%);stroke-opacity:1;stroke-miterlimit:10;" d="M 0.304688 54.335938 C -1.703125 53.570312 -3.78125 52.78125 -5.9375 51.957031 C -8.097656 51.132812 -10.339844 50.277344 -12.667969 49.390625 "/>
<path style="fill:none;stroke-width:1;stroke-linecap:butt;stroke-linejoin:miter;stroke:rgb(100%,0%,0%);stroke-opacity:1;stroke-miterlimit:10;" d="M 5.773438 42.707031 C 3.90625 41.648438 1.96875 40.554688 -0.0390625 39.417969 C -2.050781 38.277344 -4.136719 37.097656 -6.308594 35.867188 "/>
<path style="fill:none;stroke-width:1;stroke-linecap:butt;stroke-linejoin:miter;stroke:rgb(100%,0%,0%);stroke-opacity:1;stroke-miterlimit:10;" d="M 12.929688 32.03125 C 11.242188 30.707031 9.492188 29.332031 7.675781 27.90625 C 5.859375 26.476562 3.972656 24.996094 2.011719 23.453125 "/>
<path style="fill:none;stroke-width:1;stroke-linecap:butt;stroke-linejoin:miter;stroke:rgb(100%,0%,0%);stroke-opacity:1;stroke-miterlimit:10;" d="M 21.605469 22.550781 C 20.136719 20.988281 18.613281 19.367188 17.03125 17.683594 C 15.449219 16 13.808594 14.25 12.101562 12.433594 "/>
<path style="fill:none;stroke-width:1;stroke-linecap:butt;stroke-linejoin:miter;stroke:rgb(100%,0%,0%);stroke-opacity:1;stroke-miterlimit:10;" d="M 31.609375 14.484375 C 30.394531 12.71875 29.132812 10.886719 27.820312 8.984375 C 26.507812 7.082031 25.148438 5.105469 23.734375 3.050781 "/>
<path style="fill:none;stroke-width:1;stroke-linecap:butt;stroke-linejoin:miter;stroke:rgb(100%,0%,0%);stroke-opacity:1;stroke-miterlimit:10;" d="M 42.710938 8.011719 C 41.773438 6.082031 40.800781 4.082031 39.792969 2.003906 C 38.78125 -0.0742188 37.734375 -2.230469 36.640625 -4.476562 "/>
<path style="fill:none;stroke-width:1;stroke-linecap:butt;stroke-linejoin:miter;stroke:rgb(100%,0%,0%);stroke-opacity:1;stroke-miterlimit:10;" d="M 54.660156 3.28125 C 54.023438 1.230469 53.363281 -0.894531 52.675781 -3.097656 C 51.988281 -5.304688 51.277344 -7.59375 50.535156 -9.976562 "/>
<path style="fill:none;stroke-width:1;stroke-linecap:butt;stroke-linejoin:miter;stroke:rgb(100%,0%,0%);stroke-opacity:1;stroke-miterlimit:10;" d="M 67.183594 0.398438 C 66.863281 -1.722656 66.527344 -3.921875 66.179688 -6.207031 C 65.835938 -8.492188 65.472656 -10.863281 65.097656 -13.328125 "/>
<path style="fill:none;stroke-width:1;stroke-linecap:butt;stroke-linejoin:miter;stroke:rgb(100%,0%,0%);stroke-opacity:1;stroke-miterlimit:10;" d="M 80 -0.570312 C 80 -2.71875 80 -4.941406 80 -7.253906 C 80 -9.5625 80 -11.960938 80 -14.457031 "/>
<path style="fill:none;stroke-width:1;stroke-linecap:butt;stroke-linejoin:miter;stroke:rgb(100%,0%,0%);stroke-opacity:1;stroke-miterlimit:10;" d="M 92.816406 0.398438 C 93.136719 -1.722656 93.472656 -3.921875 93.820312 -6.207031 C 94.164062 -8.492188 94.527344 -10.863281 94.902344 -13.328125 "/>
<path style="fill:none;stroke-width:1;stroke-linecap:butt;stroke-linejoin:miter;stroke:rgb(100%,0%,0%);stroke-opacity:1;stroke-miterlimit:10;" d="M 105.339844 3.28125 C 105.976562 1.230469 106.636719 -0.894531 107.324219 -3.097656 C 108.011719 -5.304688 108.722656 -7.59375 109.464844 -9.976562 "/>
<path style="fill:none;stroke-width:1;stroke-linecap:butt;stroke-linejoin:miter;stroke:rgb(100%,0%,0%);stroke-opacity:1;stroke-miterlimit:10;" d="M 117.289062 8.011719 C 118.226562 6.082031 119.199219 4.082031 120.207031 2.003906 C 121.21875 -0.0742188 122.265625 -2.230469 123.359375 -4.476562 "/>
<path style="fill:none;stroke-width:1;stroke-linecap:butt;stroke-linejoin:miter;stroke:rgb(100%,0%,0%);stroke-opacity:1;stroke-miterlimit:10;" d="M 128.390625 14.484375 C 129.605469 12.71875 130.867188 10.886719 132.179688 8.984375 C 133.492188 7.082031 134.851562 5.105469 136.265625 3.050781 "/>
<path style="fill:none;stroke-width:1;stroke-linecap:butt;stroke-linejoin:miter;stroke:rgb(100%,0%,0%);stroke-opacity:1;stroke-miterlimit:10;" d="M 138.394531 22.550781 C 139.863281 20.988281 141.386719 19.367188 142.96875 17.683594 C 144.550781 16 146.191406 14.25 147.898438 12.433594 "/>
<path style="fill:none;stroke-width:1;stroke-linecap:butt;stroke-linejoin:miter;stroke:rgb(100%,0%,0%);stroke-opacity:1;stroke-miterlimit:10;" d="M 147.070312 32.03125 C 148.757812 30.707031 150.507812 29.332031 152.324219 27.90625 C 154.140625 26.476562 156.027344 24.996094 157.988281 23.453125 "/>
<path style="fill:none;stroke-width:1;stroke-linecap:butt;stroke-linejoin:miter;stroke:rgb(100%,0%,0%);stroke-opacity:1;stroke-miterlimit:10;" d="M 154.226562 42.707031 C 156.09375 41.648438 158.03125 40.554688 160.039062 39.417969 C 162.050781 38.277344 164.136719 37.097656 166.308594 35.867188 "/>
<path style="fill:none;stroke-width:1;stroke-linecap:butt;stroke-linejoin:miter;stroke:rgb(100%,0%,0%);stroke-opacity:1;stroke-miterlimit:10;" d="M 159.695312 54.335938 C 161.703125 53.570312 163.78125 52.78125 165.9375 51.957031 C 168.097656 51.132812 170.339844 50.277344 172.667969 49.390625 "/>
<path style="fill:none;stroke-width:1;stroke-linecap:butt;stroke-linejoin:miter;stroke:rgb(100%,0%,0%);stroke-opacity:1;stroke-miterlimit:10;" d="M 163.355469 66.65625 C 165.453125 66.199219 167.628906 65.730469 169.886719 65.242188 C 172.144531 64.75 174.488281 64.242188 176.925781 63.714844 "/>
<path style="fill:none;stroke-width:1;stroke-linecap:butt;stroke-linejoin:miter;stroke:rgb(100%,0%,0%);stroke-opacity:1;stroke-miterlimit:10;" d="M 165.125 79.386719 C 167.265625 79.25 169.484375 79.113281 171.792969 78.96875 C 174.097656 78.824219 176.492188 78.671875 178.980469 78.515625 "/>
<path style="fill:none;stroke-width:1;stroke-linecap:butt;stroke-linejoin:miter;stroke:rgb(100%,0%,0%);stroke-opacity:1;stroke-miterlimit:10;" d="M 164.960938 92.234375 C 167.097656 92.425781 169.3125 92.621094 171.613281 92.824219 C 173.917969 93.027344 176.304688 93.238281 178.789062 93.457031 "/>
<path style="fill:none;stroke-width:1;stroke-linecap:butt;stroke-linejoin:miter;stroke:rgb(100%,0%,0%);stroke-opacity:1;stroke-miterlimit:10;" d="M 162.867188 104.914062 C 164.953125 105.421875 167.113281 105.949219 169.359375 106.496094 C 171.601562 107.042969 173.933594 107.613281 176.355469 108.203125 "/>
<path style="fill:none;stroke-width:1;stroke-linecap:butt;stroke-linejoin:miter;stroke:rgb(100%,0%,0%);stroke-opacity:1;stroke-miterlimit:10;" d="M 158.890625 117.136719 C 160.875 117.953125 162.933594 118.796875 165.070312 119.675781 C 167.207031 120.554688 169.425781 121.464844 171.734375 122.414062 "/>
<path style="fill:none;stroke-width:1;stroke-linecap:butt;stroke-linejoin:miter;stroke:rgb(100%,0%,0%);stroke-opacity:1;stroke-miterlimit:10;" d="M 153.125 128.621094 C 154.964844 129.726562 156.871094 130.871094 158.855469 132.0625 C 160.835938 133.25 162.890625 134.484375 165.03125 135.769531 "/>
<path style="fill:none;stroke-width:1;stroke-linecap:butt;stroke-linejoin:miter;stroke:rgb(100%,0%,0%);stroke-opacity:1;stroke-miterlimit:10;" d="M 145.699219 139.109375 C 147.351562 140.480469 149.066406 141.898438 150.847656 143.371094 C 152.625 144.84375 154.472656 146.375 156.394531 147.964844 "/>
<path style="fill:none;stroke-width:1;stroke-linecap:butt;stroke-linejoin:miter;stroke:rgb(100%,0%,0%);stroke-opacity:1;stroke-miterlimit:10;" d="M 136.78125 148.363281 C 138.210938 149.964844 139.691406 151.625 141.230469 153.347656 C 142.769531 155.074219 144.363281 156.863281 146.023438 158.726562 "/>
<path style="fill:none;stroke-width:1;stroke-linecap:butt;stroke-linejoin:miter;stroke:rgb(100%,0%,0%);stroke-opacity:1;stroke-miterlimit:10;" d="M 126.574219 156.171875 C 127.746094 157.972656 128.960938 159.835938 130.222656 161.769531 C 131.484375 163.707031 132.792969 165.714844 134.15625 167.804688 "/>
<path style="fill:none;stroke-width:1;stroke-linecap:butt;stroke-linejoin:miter;stroke:rgb(100%,0%,0%);stroke-opacity:1;stroke-miterlimit:10;" d="M 115.308594 162.363281 C 116.199219 164.316406 117.121094 166.335938 118.078125 168.441406 C 119.035156 170.542969 120.023438 172.726562 121.054688 175 "/>
<path style="fill:none;stroke-width:1;stroke-linecap:butt;stroke-linejoin:miter;stroke:rgb(100%,0%,0%);stroke-opacity:1;stroke-miterlimit:10;" d="M 44.691406 162.363281 C 40.003906 160.230469 35.515625 157.675781 31.292969 154.738281 C 27.066406 151.796875 23.109375 148.476562 19.484375 144.824219 C 15.859375 141.175781 12.5625 137.195312 9.652344 132.949219 C 6.746094 128.707031 4.21875 124.199219 2.121094 119.5 C 0.0234375 114.804688 -1.648438 109.914062 -2.867188 104.914062 C -4.085938 99.917969 -4.851562 94.804688 -5.148438 89.667969 C -5.445312 84.53125 -5.28125 79.367188 -4.648438 74.261719 C -4.015625 69.15625 -2.921875 64.105469 -1.382812 59.195312 C 0.15625 54.285156 2.140625 49.515625 4.539062 44.964844 C 6.9375 40.414062 9.75 36.078125 12.929688 32.03125 C 16.105469 27.984375 19.652344 24.226562 23.507812 20.820312 C 27.363281 17.410156 31.527344 14.351562 35.933594 11.695312 C 40.339844 9.035156 44.984375 6.777344 49.796875 4.957031 C 54.609375 3.132812 59.585938 1.746094 64.648438 0.820312 C 69.710938 -0.105469 74.855469 -0.570312 80 -0.570312 C 85.144531 -0.570312 90.289062 -0.105469 95.351562 0.820312 C 100.414062 1.746094 105.390625 3.132812 110.203125 4.957031 C 115.015625 6.777344 119.660156 9.035156 124.066406 11.695312 C 128.472656 14.351562 132.636719 17.410156 136.492188 20.820312 C 140.347656 24.226562 143.894531 27.984375 147.070312 32.03125 C 150.25 36.078125 153.0625 40.414062 155.460938 44.964844 C 157.859375 49.515625 159.84375 54.285156 161.382812 59.195312 C 162.921875 64.105469 164.015625 69.15625 164.648438 74.261719 C 165.28125 79.367188 165.445312 84.53125 165.148438 89.667969 C 164.851562 94.804688 164.085938 99.917969 162.867188 104.914062 C 161.648438 109.914062 159.976562 114.804688 157.878906 119.5 C 155.78125 124.199219 153.253906 128.707031 150.347656 132.949219 C 147.4375 137.195312 144.140625 141.175781 140.515625 144.824219 C 136.890625 148.476562 132.933594 151.796875 128.707031 154.738281 C 124.484375 157.675781 119.996094 160.230469 115.308594 162.363281 "/>
<path style="fill:none;stroke-width:1;stroke-linecap:butt;stroke-linejoin:miter;stroke:rgb(100%,0%,0%);stroke-opacity:1;stroke-miterlimit:10;" d="M 38.945312 175 C 33.492188 172.523438 28.273438 169.550781 23.363281 166.132812 C 18.449219 162.71875 13.847656 158.855469 9.632812 154.609375 C 5.417969 150.363281 1.585938 145.738281 -1.796875 140.800781 C -5.179688 135.867188 -8.117188 130.625 -10.554688 125.164062 C -12.996094 119.699219 -14.941406 114.015625 -16.355469 108.203125 C -17.773438 102.390625 -18.664062 96.449219 -19.007812 90.476562 C -19.355469 84.503906 -19.160156 78.496094 -18.429688 72.558594 C -17.695312 66.621094 -16.421875 60.75 -14.632812 55.042969 C -12.839844 49.332031 -10.53125 43.785156 -7.742188 38.492188 C -4.953125 33.199219 -1.6875 28.160156 2.011719 23.453125 C 5.707031 18.75 9.828125 14.378906 14.3125 10.417969 C 18.792969 6.453125 23.636719 2.898438 28.757812 -0.191406 C 33.882812 -3.285156 39.285156 -5.910156 44.878906 -8.03125 C 50.476562 -10.148438 56.261719 -11.757812 62.148438 -12.835938 C 68.035156 -13.914062 74.015625 -14.457031 80 -14.457031 C 85.984375 -14.457031 91.964844 -13.914062 97.851562 -12.835938 C 103.738281 -11.757812 109.523438 -10.148438 115.121094 -8.03125 C 120.714844 -5.910156 126.117188 -3.285156 131.242188 -0.191406 C 136.363281 2.898438 141.207031 6.453125 145.6875 10.417969 C 150.171875 14.378906 154.292969 18.75 157.988281 23.453125 C 161.6875 28.160156 164.953125 33.199219 167.742188 38.492188 C 170.53125 43.785156 172.839844 49.332031 174.632812 55.042969 C 176.421875 60.75 177.695312 66.621094 178.429688 72.558594 C 179.160156 78.496094 179.355469 84.503906 179.007812 90.476562 C 178.664062 96.449219 177.773438 102.390625 176.355469 108.203125 C 174.941406 114.015625 172.996094 119.699219 170.554688 125.164062 C 168.117188 130.625 165.179688 135.867188 161.796875 140.800781 C 158.414062 145.738281 154.582031 150.363281 150.367188 154.609375 C 146.152344 158.855469 141.550781 162.71875 136.636719 166.132812 C 131.726562 169.550781 126.507812 172.523438 121.054688 175 "/>
</g>
</svg>
