<?xml version="1.0" encoding="UTF-8"?>
<svg xmlns="http://www.w3.org/2000/svg" xmlns:xlink="http://www.w3.org/1999/xlink" width="160mm" height="160mm" viewBox="0 0 160 160" version="1.1">
<g id="surface421">
<rect x="0" y="0" width="160" height="160" style="fill:rgb(100%,100%,100%);fill-opacity:1;stroke:none;"/>
<path style=" stroke:none;fill-rule:nonzero;fill:rgb(100%,49.803922%,49.803922%);fill-opacity:1;" d="M -2.710938 131.328125 C -3.15625 128.179688 -3.421875 125.007812 -3.507812 121.832031 C -3.59375 118.652344 -3.5 115.472656 -3.222656 112.304688 C -2.945312 109.140625 -2.488281 105.988281 -1.855469 102.875 C -1.21875 99.761719 -0.40625 96.683594 0.578125 93.660156 C 1.566406 90.640625 2.722656 87.675781 4.046875 84.785156 C 5.371094 81.894531 6.859375 79.082031 8.503906 76.363281 C 10.148438 73.640625 11.945312 71.015625 13.890625 68.5 C 15.832031 65.984375 17.917969 63.582031 20.136719 61.304688 C 22.351562 59.027344 24.699219 56.875 27.160156 54.867188 C 29.621094 52.855469 32.199219 50.988281 34.875 49.269531 C 37.546875 47.554688 40.320312 45.988281 43.171875 44.589844 C 46.027344 43.1875 48.957031 41.949219 51.953125 40.882812 C 54.945312 39.816406 58 38.917969 61.097656 38.199219 C 64.191406 37.480469 67.328125 36.9375 70.484375 36.578125 C 73.644531 36.214844 76.820312 36.03125 80 36.03125 C 83.179688 36.03125 86.355469 36.214844 89.515625 36.578125 C 92.671875 36.9375 95.808594 37.480469 98.902344 38.199219 C 102 38.917969 105.054688 39.816406 108.046875 40.882812 C 111.042969 41.949219 113.972656 43.1875 116.828125 44.589844 C 119.679688 45.988281 122.453125 47.554688 125.125 49.269531 C 127.800781 50.988281 130.378906 52.855469 132.839844 54.867188 C 135.300781 56.875 137.648438 59.027344 139.863281 61.304688 C 142.082031 63.582031 144.167969 65.984375 146.109375 68.5 C 148.054688 71.015625 149.851562 73.640625 151.496094 76.363281 C 153.140625 79.082031 154.628906 81.894531 155.953125 84.785156 C 157.277344 87.675781 158.433594 90.640625 159.421875 93.660156 C 160.40625 96.683594 161.21875 99.761719 161.855469 102.875 C 162.488281 105.988281 162.945312 109.140625 163.222656 112.304688 C 163.5 115.472656 163.59375 118.652344 163.507812 121.832031 C 163.421875 125.007812 163.15625 128.179688 162.710938 131.328125 C 164.023438 131.515625 165.363281 131.699219 166.738281 131.894531 C 168.109375 132.089844 169.515625 132.292969 170.957031 132.503906 C 171.457031 129.039062 171.746094 125.550781 171.839844 122.054688 C 171.9375 118.5625 171.832031 115.0625 171.527344 111.582031 C 171.222656 108.097656 170.71875 104.632812 170.019531 101.207031 C 169.324219 97.785156 168.429688 94.398438 167.34375 91.078125 C 166.261719 87.753906 164.984375 84.492188 163.53125 81.316406 C 162.074219 78.136719 160.4375 75.042969 158.628906 72.050781 C 156.824219 69.058594 154.84375 66.171875 152.707031 63.40625 C 150.570312 60.640625 148.277344 57.996094 145.835938 55.492188 C 143.398438 52.984375 140.820312 50.621094 138.113281 48.410156 C 135.402344 46.199219 132.570312 44.144531 129.628906 42.253906 C 126.6875 40.367188 123.636719 38.648438 120.5 37.105469 C 117.363281 35.566406 114.136719 34.203125 110.847656 33.03125 C 107.554688 31.855469 104.195312 30.871094 100.789062 30.082031 C 97.386719 29.289062 93.933594 28.691406 90.464844 28.296875 C 86.992188 27.898438 83.496094 27.699219 80 27.699219 C 76.503906 27.699219 73.007812 27.898438 69.535156 28.296875 C 66.066406 28.691406 62.613281 29.289062 59.210938 30.082031 C 55.804688 30.871094 52.445312 31.855469 49.152344 33.03125 C 45.863281 34.203125 42.636719 35.566406 39.5 37.105469 C 36.363281 38.648438 33.3125 40.367188 30.371094 42.253906 C 27.429688 44.144531 24.597656 46.199219 21.886719 48.410156 C 19.179688 50.621094 16.601562 52.984375 14.164062 55.492188 C 11.722656 57.996094 9.429688 60.640625 7.292969 63.40625 C 5.15625 66.171875 3.175781 69.058594 1.371094 72.050781 C -0.4375 75.042969 -2.074219 78.136719 -3.53125 81.316406 C -4.984375 84.492188 -6.261719 87.753906 -7.34375 91.078125 C -8.429688 94.398438 -9.324219 97.785156 -10.019531 101.207031 C -10.71875 104.632812 -11.222656 108.097656 -11.527344 111.582031 C -11.832031 115.0625 -11.9375 118.5625 -11.839844 122.054688 C -11.746094 125.550781 -11.457031 129.039062 -10.957031 132.503906 C -9.515625 132.292969 -8.109375 132.089844 -6.738281 131.894531 C -5.363281 131.699219 -4.023438 131.515625 -2.710938 131.328125 "/>
<path style="fill:none;stroke-width:1;stroke-linecap:butt;stroke-linejoin:miter;stroke:rgb(100%,0%,0%);stroke-opacity:1;stroke-miterlimit:10;" d="M -2.710938 131.328125 C -4.023438 131.515625 -5.363281 131.699219 -6.738281 131.894531 C -8.109375 132.089844 -9.515625 132.292969 -10.957031 132.503906 "/>
<path style="fill:none;stroke-width:1;stroke-linecap:butt;stroke-linejoin:miter;stroke:rgb(100%,0%,0%);stroke-opacity:1;stroke-miterlimit:10;" d="M -3.449219 123.417969 C -4.777344 123.480469 -6.128906 123.542969 -7.515625 123.605469 C -8.902344 123.667969 -10.320312 123.734375 -11.777344 123.800781 "/>
<path style="fill:none;stroke-width:1;stroke-linecap:butt;stroke-linejoin:miter;stroke:rgb(100%,0%,0%);stroke-opacity:1;stroke-miterlimit:10;" d="M -3.4375 115.476562 C -4.765625 115.410156 -6.117188 115.34375 -7.503906 115.277344 C -8.886719 115.207031 -10.308594 115.140625 -11.765625 115.066406 "/>
<path style="fill:none;stroke-width:1;stroke-linecap:butt;stroke-linejoin:miter;stroke:rgb(100%,0%,0%);stroke-opacity:1;stroke-miterlimit:10;" d="M -2.671875 107.570312 C -3.988281 107.378906 -5.328125 107.183594 -6.699219 106.984375 C -8.074219 106.785156 -9.476562 106.582031 -10.921875 106.371094 "/>
<path style="fill:none;stroke-width:1;stroke-linecap:butt;stroke-linejoin:miter;stroke:rgb(100%,0%,0%);stroke-opacity:1;stroke-miterlimit:10;" d="M -1.160156 99.773438 C -2.449219 99.460938 -3.765625 99.136719 -5.113281 98.808594 C -6.460938 98.480469 -7.839844 98.144531 -9.257812 97.796875 "/>
<path style="fill:none;stroke-width:1;stroke-linecap:butt;stroke-linejoin:miter;stroke:rgb(100%,0%,0%);stroke-opacity:1;stroke-miterlimit:10;" d="M 1.085938 92.15625 C -0.167969 91.71875 -1.445312 91.277344 -2.757812 90.820312 C -4.066406 90.367188 -5.40625 89.898438 -6.785156 89.421875 "/>
<path style="fill:none;stroke-width:1;stroke-linecap:butt;stroke-linejoin:miter;stroke:rgb(100%,0%,0%);stroke-opacity:1;stroke-miterlimit:10;" d="M 4.046875 84.785156 C 2.839844 84.234375 1.609375 83.667969 0.347656 83.089844 C -0.914062 82.515625 -2.203125 81.921875 -3.53125 81.316406 "/>
<path style="fill:none;stroke-width:1;stroke-linecap:butt;stroke-linejoin:miter;stroke:rgb(100%,0%,0%);stroke-opacity:1;stroke-miterlimit:10;" d="M 7.695312 77.730469 C 6.546875 77.066406 5.375 76.386719 4.171875 75.691406 C 2.972656 74.996094 1.742188 74.285156 0.480469 73.554688 "/>
<path style="fill:none;stroke-width:1;stroke-linecap:butt;stroke-linejoin:miter;stroke:rgb(100%,0%,0%);stroke-opacity:1;stroke-miterlimit:10;" d="M 11.996094 71.054688 C 10.914062 70.28125 9.8125 69.496094 8.683594 68.691406 C 7.554688 67.882812 6.398438 67.058594 5.210938 66.210938 "/>
<path style="fill:none;stroke-width:1;stroke-linecap:butt;stroke-linejoin:miter;stroke:rgb(100%,0%,0%);stroke-opacity:1;stroke-miterlimit:10;" d="M 16.910156 64.8125 C 15.90625 63.945312 14.882812 63.054688 13.835938 62.148438 C 12.789062 61.238281 11.71875 60.308594 10.613281 59.351562 "/>
<path style="fill:none;stroke-width:1;stroke-linecap:butt;stroke-linejoin:miter;stroke:rgb(100%,0%,0%);stroke-opacity:1;stroke-miterlimit:10;" d="M 22.394531 59.070312 C 21.480469 58.109375 20.546875 57.128906 19.589844 56.125 C 18.632812 55.117188 17.652344 54.089844 16.648438 53.035156 "/>
<path style="fill:none;stroke-width:1;stroke-linecap:butt;stroke-linejoin:miter;stroke:rgb(100%,0%,0%);stroke-opacity:1;stroke-miterlimit:10;" d="M 28.402344 53.871094 C 27.582031 52.828125 26.746094 51.765625 25.886719 50.671875 C 25.03125 49.582031 24.152344 48.464844 23.253906 47.316406 "/>
<path style="fill:none;stroke-width:1;stroke-linecap:butt;stroke-linejoin:miter;stroke:rgb(100%,0%,0%);stroke-opacity:1;stroke-miterlimit:10;" d="M 34.875 49.269531 C 34.15625 48.152344 33.425781 47.011719 32.675781 45.847656 C 31.925781 44.679688 31.160156 43.484375 30.371094 42.253906 "/>
<path style="fill:none;stroke-width:1;stroke-linecap:butt;stroke-linejoin:miter;stroke:rgb(100%,0%,0%);stroke-opacity:1;stroke-miterlimit:10;" d="M 41.753906 45.300781 C 41.144531 44.121094 40.527344 42.917969 39.890625 41.683594 C 39.257812 40.453125 38.605469 39.1875 37.9375 37.890625 "/>
<path style="fill:none;stroke-width:1;stroke-linecap:butt;stroke-linejoin:miter;stroke:rgb(100%,0%,0%);stroke-opacity:1;stroke-miterlimit:10;" d="M 48.980469 42.003906 C 48.488281 40.773438 47.984375 39.515625 47.46875 38.226562 C 46.953125 36.941406 46.425781 35.621094 45.882812 34.265625 "/>
<path style="fill:none;stroke-width:1;stroke-linecap:butt;stroke-linejoin:miter;stroke:rgb(100%,0%,0%);stroke-opacity:1;stroke-miterlimit:10;" d="M 56.484375 39.410156 C 56.113281 38.136719 55.730469 36.835938 55.339844 35.507812 C 54.949219 34.175781 54.550781 32.8125 54.140625 31.410156 "/>
<path style="fill:none;stroke-width:1;stroke-linecap:butt;stroke-linejoin:miter;stroke:rgb(100%,0%,0%);stroke-opacity:1;stroke-miterlimit:10;" d="M 64.203125 37.539062 C 63.953125 36.234375 63.699219 34.90625 63.4375 33.542969 C 63.171875 32.183594 62.90625 30.789062 62.628906 29.355469 "/>
<path style="fill:none;stroke-width:1;stroke-linecap:butt;stroke-linejoin:miter;stroke:rgb(100%,0%,0%);stroke-opacity:1;stroke-miterlimit:10;" d="M 72.066406 36.410156 C 71.941406 35.089844 71.8125 33.742188 71.679688 32.359375 C 71.546875 30.980469 71.414062 29.566406 71.273438 28.113281 "/>
<path style="fill:none;stroke-width:1;stroke-linecap:butt;stroke-linejoin:miter;stroke:rgb(100%,0%,0%);stroke-opacity:1;stroke-miterlimit:10;" d="M 80 36.03125 C 80 34.707031 80 33.351562 80 31.964844 C 80 30.578125 80 29.15625 80 27.699219 "/>
<path style="fill:none;stroke-width:1;stroke-linecap:butt;stroke-linejoin:miter;stroke:rgb(100%,0%,0%);stroke-opacity:1;stroke-miterlimit:10;" d="M 87.933594 36.410156 C 88.058594 35.089844 88.1875 33.742188 88.320312 32.359375 C 88.453125 30.980469 88.585938 29.566406 88.726562 28.113281 "/>
<path style="fill:none;stroke-width:1;stroke-linecap:butt;stroke-linejoin:miter;stroke:rgb(100%,0%,0%);stroke-opacity:1;stroke-miterlimit:10;" d="M 95.796875 37.539062 C 96.046875 36.234375 96.300781 34.90625 96.5625 33.542969 C 96.828125 32.183594 97.09375 30.789062 97.371094 29.355469 "/>
<path style="fill:none;stroke-width:1;stroke-linecap:butt;stroke-linejoin:miter;stroke:rgb(100%,0%,0%);stroke-opacity:1;stroke-miterlimit:10;" d="M 103.515625 39.410156 C 103.886719 38.136719 104.269531 36.835938 104.660156 35.507812 C 105.050781 34.175781 105.449219 32.8125 105.859375 31.410156 "/>
<path style="fill:none;stroke-width:1;stroke-linecap:butt;stroke-linejoin:miter;stroke:rgb(100%,0%,0%);stroke-opacity:1;stroke-miterlimit:10;" d="M 111.019531 42.003906 C 111.511719 40.773438 112.015625 39.515625 112.53125 38.226562 C 113.046875 36.941406 113.574219 35.621094 114.117188 34.265625 "/>
<path style="fill:none;stroke-width:1;stroke-linecap:butt;stroke-linejoin:miter;stroke:rgb(100%,0%,0%);stroke-opacity:1;stroke-miterlimit:10;" d="M 118.246094 45.300781 C 118.855469 44.121094 119.472656 42.917969 120.109375 41.683594 C 120.742188 40.453125 121.394531 39.1875 122.0625 37.890625 "/>
<path style="fill:none;stroke-width:1;stroke-linecap:butt;stroke-linejoin:miter;stroke:rgb(100%,0%,0%);stroke-opacity:1;stroke-miterlimit:10;" d="M 125.125 49.269531 C 125.84375 48.152344 126.574219 47.011719 127.324219 45.847656 C 128.074219 44.679688 128.839844 43.484375 129.628906 42.253906 "/>
<path style="fill:none;stroke-width:1;stroke-linecap:butt;stroke-linejoin:miter;stroke:rgb(100%,0%,0%);stroke-opacity:1;stroke-miterlimit:10;" d="M 131.597656 53.871094 C 132.417969 52.828125 133.253906 51.765625 134.113281 50.671875 C 134.96875 49.582031 135.847656 48.464844 136.746094 47.316406 "/>
<path style="fill:none;stroke-width:1;stroke-linecap:butt;stroke-linejoin:miter;stroke:rgb(100%,0%,0%);stroke-opacity:1;stroke-miterlimit:10;" d="M 137.605469 59.070312 C 138.519531 58.109375 139.453125 57.128906 140.410156 56.125 C 141.367188 55.117188 142.347656 54.089844 143.351562 53.035156 "/>
<path style="fill:none;stroke-width:1;stroke-linecap:butt;stroke-linejoin:miter;stroke:rgb(100%,0%,0%);stroke-opacity:1;stroke-miterlimit:10;" d="M 143.089844 64.8125 C 144.09375 63.945312 145.117188 63.054688 146.164062 62.148438 C 147.210938 61.238281 148.28125 60.308594 149.386719 59.351562 "/>
<path style="fill:none;stroke-width:1;stroke-linecap:butt;stroke-linejoin:miter;stroke:rgb(100%,0%,0%);stroke-opacity:1;stroke-miterlimit:10;" d="M 148.003906 71.054688 C 149.085938 70.28125 150.1875 69.496094 151.316406 68.691406 C 152.445312 67.882812 153.601562 67.058594 154.789062 66.210938 "/>
<path style="fill:none;stroke-width:1;stroke-linecap:butt;stroke-linejoin:miter;stroke:rgb(100%,0%,0%);stroke-opacity:1;stroke-miterlimit:10;" d="M 152.304688 77.730469 C 153.453125 77.066406 154.625 76.386719 155.828125 75.691406 C 157.027344 74.996094 158.257812 74.285156 159.519531 73.554688 "/>
<path style="fill:none;stroke-width:1;stroke-linecap:butt;stroke-linejoin:miter;stroke:rgb(100%,0%,0%);stroke-opacity:1;stroke-miterlimit:10;" d="M 155.953125 84.785156 C 157.160156 84.234375 158.390625 83.667969 159.652344 83.089844 C 160.914062 82.515625 162.203125 81.921875 163.53125 81.316406 "/>
<path style="fill:none;stroke-width:1;stroke-linecap:butt;stroke-linejoin:miter;stroke:rgb(100%,0%,0%);stroke-opacity:1;stroke-miterlimit:10;" d="M 158.914062 92.15625 C 160.167969 91.71875 161.445312 91.277344 162.757812 90.820312 C 164.066406 90.367188 165.40625 89.898438 166.785156 89.421875 "/>
<path style="fill:none;stroke-width:1;stroke-linecap:butt;stroke-linejoin:miter;stroke:rgb(100%,0%,0%);stroke-opacity:1;stroke-miterlimit:10;" d="M 161.160156 99.773438 C 162.449219 99.460938 163.765625 99.136719 165.113281 98.808594 C 166.460938 98.480469 167.839844 98.144531 169.257812 97.796875 "/>
<path style="fill:none;stroke-width:1;stroke-linecap:butt;stroke-linejoin:miter;stroke:rgb(100%,0%,0%);stroke-opacity:1;stroke-miterlimit:10;" d="M 162.671875 107.570312 C 163.988281 107.378906 165.328125 107.183594 166.699219 106.984375 C 168.074219 106.785156 169.476562 106.582031 170.921875 106.371094 "/>
<path style="fill:none;stroke-width:1;stroke-linecap:butt;stroke-linejoin:miter;stroke:rgb(100%,0%,0%);stroke-opacity:1;stroke-miterlimit:10;" d="M 163.4375 115.476562 C 164.765625 115.410156 166.117188 115.34375 167.503906 115.277344 C 168.886719 115.207031 170.308594 115.140625 171.765625 115.066406 "/>
<path style="fill:none;stroke-width:1;stroke-linecap:butt;stroke-linejoin:miter;stroke:rgb(100%,0%,0%);stroke-opacity:1;stroke-miterlimit:10;" d="M 163.449219 123.417969 C 164.777344 123.480469 166.128906 123.542969 167.515625 123.605469 C 168.902344 123.667969 170.320312 123.734375 171.777344 123.800781 "/>
<path style="fill:none;stroke-width:1;stroke-linecap:butt;stroke-linejoin:miter;stroke:rgb(100%,0%,0%);stroke-opacity:1;stroke-miterlimit:10;" d="M 162.710938 131.328125 C 164.023438 131.515625 165.363281 131.699219 166.738281 131.894531 C 168.109375 132.089844 169.515625 132.292969 170.957031 132.503906 "/>
<path style="fill:none;stroke-width:1;stroke-linecap:butt;stroke-linejoin:miter;stroke:rgb(100%,0%,0%);stroke-opacity:1;stroke-miterlimit:10;" d="M -2.710938 131.328125 C -3.15625 128.179688 -3.421875 125.007812 -3.507812 121.832031 C -3.59375 118.652344 -3.5 115.472656 -3.222656 112.304688 C -2.945312 109.140625 -2.488281 105.988281 -1.855469 102.875 C -1.21875 99.761719 -0.40625 96.683594 0.578125 93.660156 C 1.566406 90.640625 2.722656 87.675781 4.046875 84.785156 C 5.371094 81.894531 6.859375 79.082031 8.503906 76.363281 C 10.148438 73.640625 11.945312 71.015625 13.890625 68.5 C 15.832031 65.984375 17.917969 63.582031 20.136719 61.304688 C 22.351562 59.027344 24.699219 56.875 27.160156 54.867188 C 29.621094 52.855469 32.199219 50.988281 34.875 49.269531 C 37.546875 47.554688 40.320312 45.988281 43.171875 44.589844 C 46.027344 43.1875 48.957031 41.949219 51.953125 40.882812 C 54.945312 39.816406 58 38.917969 61.097656 38.199219 C 64.191406 37.480469 67.328125 36.9375 70.484375 36.578125 C 73.644531 36.214844 76.820312 36.03125 80 36.03125 C 83.179688 36.03125 86.355469 36.214844 89.515625 36.578125 C 92.671875 36.9375 95.808594 37.480469 98.902344 38.199219 C 102 38.917969 105.054688 39.816406 108.046875 40.882812 C 111.042969 41.949219 113.972656 43.1875 116.828125 44.589844 C 119.679688 45.988281 122.453125 47.554688 125.125 49.269531 C 127.800781 50.988281 130.378906 52.855469 132.839844 54.867188 C 135.300781 56.875 137.648438 59.027344 139.863281 61.304688 C 142.082031 63.582031 144.167969 65.984375 146.109375 68.5 C 148.054688 71.015625 149.851562 73.640625 151.496094 76.363281 C 153.140625 79.082031 154.628906 81.894531 155.953125 84.785156 C 157.277344 87.675781 158.433594 90.640625 159.421875 93.660156 C 160.40625 96.683594 161.21875 99.761719 161.855469 102.875 C 162.488281 105.988281 162.945312 109.140625 163.222656 112.304688 C 163.5 115.472656 163.59375 118.652344 163.507812 121.832031 C 163.421875 125.007812 163.15625 128.179688 162.710938 131.328125 "/>
<path style="fill:none;stroke-width:1;stroke-linecap:butt;stroke-linejoin:miter;stroke:rgb(100%,0%,0%);stroke-opacity:1;stroke-miterlimit:10;" d="M -10.957031 132.503906 C -11.457031 129.039062 -11.746094 125.550781 -11.839844 122.054688 C -11.9375 118.5625 -11.832031 115.0625 -11.527344 111.582031 C -11.222656 108.097656 -10.71875 104.632812 -10.019531 101.207031 C -9.324219 97.785156 -8.429688 94.398438 -7.34375 91.078125 C -6.261719 87.753906 -4.984375 84.492188 -3.53125 81.316406 C -2.074219 78.136719 -0.4375 75.042969 1.371094 72.050781 C 3.175781 69.058594 5.15625 66.171875 7.292969 63.40625 C 9.429688 60.640625 11.722656 57.996094 14.164062 55.492188 C 16.601562 52.984375 19.179688 50.621094 21.886719 48.410156 C 24.597656 46.199219 27.429688 44.144531 30.371094 42.253906 C 33.3125 40.367188 36.363281 38.648438 39.5 37.105469 C 42.636719 35.566406 45.863281 34.203125 49.152344 33.03125 C 52.445312 31.855469 55.804688 30.871094 59.210938 30.082031 C 62.613281 29.289062 66.066406 28.691406 69.535156 28.296875 C 73.007812 27.898438 76.503906 27.699219 80 27.699219 C 83.496094 27.699219 86.992188 27.898438 90.464844 28.296875 C 93.933594 28.691406 97.386719 29.289062 100.789062 30.082031 C 104.195312 30.871094 107.554688 31.855469 110.847656 33.03125 C 114.136719 34.203125 117.363281 35.566406 120.5 37.105469 C 123.636719 38.648438 126.6875 40.367188 129.628906 42.253906 C 132.570312 44.144531 135.402344 46.199219 138.113281 48.410156 C 140.820312 50.621094 143.398438 52.984375 145.835938 55.492188 C 148.277344 57.996094 150.570312 60.640625 152.707031 63.40625 C 154.84375 66.171875 156.824219 69.058594 158.628906 72.050781 C 160.4375 75.042969 162.074219 78.136719 163.53125 81.316406 C 164.984375 84.492188 166.261719 87.753906 167.34375 91.078125 C 168.429688 94.398438 169.324219 97.785156 170.019531 101.207031 C 170.71875 104.632812 171.222656 108.097656 171.527344 111.582031 C 171.832031 115.0625 171.9375 118.5625 171.839844 122.054688 C 171.746094 125.550781 171.457031 129.039062 170.957031 132.503906 "/>
</g>
</svg>
