<?xml version="1.0" encoding="UTF-8"?>
<svg xmlns="http://www.w3.org/2000/svg" xmlns:xlink="http://www.w3.org/1999/xlink" width="1000pt" height="1000pt" viewBox="0 0 1000 1000" version="1.1">
<g id="surface17">
<rect x="0" y="0" width="1000" height="1000" style="fill:rgb(100%,100%,100%);fill-opacity:1;stroke:none;"/>
<path style="fill:none;stroke-width:1;stroke-linecap:butt;stroke-linejoin:miter;stroke:rgb(0%,100%,100%);stroke-opacity:1;stroke-miterlimit:10;" d="M 400 400 C 401.359375 402.722656 402.722656 405.386719 404.082031 407.996094 C 405.441406 410.605469 406.800781 413.160156 408.164062 415.660156 C 409.523438 418.160156 410.882812 420.601562 412.246094 422.992188 C 413.605469 425.378906 414.964844 427.710938 416.328125 429.988281 C 417.6875 432.265625 419.046875 434.484375 420.40625 436.652344 C 421.769531 438.816406 423.128906 440.925781 424.488281 442.980469 C 425.851562 445.035156 427.210938 447.035156 428.570312 448.980469 C 429.933594 450.921875 431.292969 452.8125 432.652344 454.644531 C 434.011719 456.476562 435.375 458.253906 436.734375 459.976562 C 438.09375 461.695312 439.457031 463.363281 440.816406 464.972656 C 442.175781 466.582031 443.539062 468.136719 444.898438 469.636719 C 446.257812 471.136719 447.617188 472.582031 448.980469 473.96875 C 450.339844 475.359375 451.699219 476.691406 453.0625 477.96875 C 454.421875 479.246094 455.78125 480.464844 457.144531 481.632812 C 458.503906 482.800781 459.863281 483.910156 461.222656 484.964844 C 462.585938 486.019531 463.945312 487.019531 465.304688 487.964844 C 466.667969 488.90625 468.027344 489.796875 469.386719 490.628906 C 470.75 491.460938 472.109375 492.238281 473.46875 492.960938 C 474.828125 493.683594 476.191406 494.347656 477.550781 494.960938 C 478.910156 495.570312 480.273438 496.125 481.632812 496.625 C 482.992188 497.125 484.355469 497.570312 485.714844 497.960938 C 487.074219 498.347656 488.433594 498.679688 489.796875 498.957031 C 491.15625 499.238281 492.515625 499.457031 493.878906 499.625 C 495.238281 499.792969 496.597656 499.902344 497.960938 499.957031 C 499.320312 500.015625 500.679688 500.015625 502.039062 499.957031 C 503.402344 499.902344 504.761719 499.792969 506.121094 499.625 C 507.484375 499.457031 508.84375 499.238281 510.203125 498.957031 C 511.566406 498.679688 512.925781 498.347656 514.285156 497.960938 C 515.644531 497.570312 517.007812 497.125 518.367188 496.625 C 519.726562 496.125 521.089844 495.570312 522.449219 494.960938 C 523.808594 494.347656 525.171875 493.683594 526.53125 492.960938 C 527.890625 492.238281 529.25 491.460938 530.613281 490.628906 C 531.972656 489.796875 533.332031 488.90625 534.695312 487.964844 C 536.054688 487.019531 537.414062 486.019531 538.777344 484.964844 C 540.136719 483.910156 541.496094 482.800781 542.855469 481.632812 C 544.21875 480.464844 545.578125 479.246094 546.9375 477.96875 C 548.300781 476.691406 549.660156 475.359375 551.019531 473.96875 C 552.382812 472.582031 553.742188 471.136719 555.101562 469.636719 C 556.460938 468.136719 557.824219 466.582031 559.183594 464.972656 C 560.542969 463.363281 561.90625 461.695312 563.265625 459.976562 C 564.625 458.253906 565.988281 456.476562 567.347656 454.644531 C 568.707031 452.8125 570.066406 450.921875 571.429688 448.980469 C 572.789062 447.035156 574.148438 445.035156 575.511719 442.980469 C 576.871094 440.925781 578.230469 438.816406 579.59375 436.652344 C 580.953125 434.484375 582.3125 432.265625 583.671875 429.988281 C 585.035156 427.710938 586.394531 425.378906 587.753906 422.992188 C 589.117188 420.601562 590.476562 418.160156 591.835938 415.660156 C 593.199219 413.160156 594.558594 410.605469 595.917969 407.996094 C 597.277344 405.386719 598.640625 402.722656 600 400 "/>
<path style="fill:none;stroke-width:1;stroke-linecap:butt;stroke-linejoin:miter;stroke:rgb(0%,100%,100%);stroke-opacity:1;stroke-miterlimit:10;" d="M 444.722656 377.640625 C 445.960938 380.117188 447.191406 382.53125 448.417969 384.882812 C 449.644531 387.238281 450.863281 389.527344 452.078125 391.75 C 453.289062 393.976562 454.492188 396.140625 455.6875 398.238281 C 456.882812 400.335938 458.070312 402.371094 459.246094 404.339844 C 460.425781 406.308594 461.589844 408.214844 462.746094 410.054688 C 463.902344 411.894531 465.046875 413.667969 466.179688 415.378906 C 467.308594 417.085938 468.429688 418.730469 469.53125 420.304688 C 470.636719 421.882812 471.726562 423.394531 472.796875 424.839844 C 473.871094 426.285156 474.925781 427.660156 475.960938 428.972656 C 477 430.285156 478.015625 431.527344 479.011719 432.707031 C 480.003906 433.882812 480.976562 434.992188 481.925781 436.039062 C 482.875 437.082031 483.796875 438.058594 484.691406 438.972656 C 485.585938 439.886719 486.449219 440.730469 487.28125 441.515625 C 488.117188 442.296875 488.917969 443.015625 489.683594 443.667969 C 490.449219 444.324219 491.175781 444.917969 491.867188 445.453125 C 492.554688 445.988281 493.203125 446.464844 493.808594 446.882812 C 494.417969 447.304688 494.980469 447.671875 495.496094 447.988281 C 496.011719 448.300781 496.484375 448.570312 496.90625 448.792969 C 497.328125 449.019531 497.703125 449.199219 498.03125 449.347656 C 498.359375 449.492188 498.636719 449.605469 498.875 449.691406 C 499.109375 449.78125 499.300781 449.839844 499.449219 449.882812 C 499.601562 449.925781 499.714844 449.953125 499.792969 449.96875 C 499.875 449.984375 499.925781 449.992188 499.953125 449.996094 C 499.984375 450 499.996094 450 500 450 C 500.003906 450 500.015625 450 500.046875 449.996094 C 500.074219 449.992188 500.125 449.984375 500.207031 449.96875 C 500.285156 449.953125 500.398438 449.925781 500.550781 449.882812 C 500.699219 449.839844 500.890625 449.78125 501.125 449.691406 C 501.363281 449.605469 501.640625 449.492188 501.96875 449.347656 C 502.296875 449.199219 502.671875 449.019531 503.09375 448.792969 C 503.515625 448.570312 503.988281 448.300781 504.503906 447.988281 C 505.019531 447.671875 505.582031 447.304688 506.191406 446.882812 C 506.796875 446.464844 507.445312 445.988281 508.132812 445.453125 C 508.824219 444.917969 509.550781 444.324219 510.316406 443.667969 C 511.082031 443.015625 511.882812 442.296875 512.71875 441.515625 C 513.550781 440.730469 514.414062 439.886719 515.308594 438.972656 C 516.203125 438.058594 517.125 437.082031 518.074219 436.039062 C 519.023438 434.992188 519.996094 433.882812 520.988281 432.707031 C 521.984375 431.527344 523 430.285156 524.039062 428.972656 C 525.074219 427.660156 526.128906 426.285156 527.203125 424.839844 C 528.273438 423.394531 529.363281 421.882812 530.46875 420.304688 C 531.570312 418.730469 532.691406 417.085938 533.820312 415.378906 C 534.953125 413.667969 536.097656 411.894531 537.253906 410.054688 C 538.410156 408.214844 539.574219 406.308594 540.753906 404.339844 C 541.929688 402.371094 543.117188 400.335938 544.3125 398.238281 C 545.507812 396.140625 546.710938 393.976562 547.921875 391.75 C 549.136719 389.527344 550.355469 387.238281 551.582031 384.882812 C 552.808594 382.53125 554.039062 380.117188 555.277344 377.640625 "/>
</g>
</svg>
