<?xml version="1.0" encoding="UTF-8"?>
<svg xmlns="http://www.w3.org/2000/svg" xmlns:xlink="http://www.w3.org/1999/xlink" width="1200mm" height="400mm" viewBox="0 0 1200 400" version="1.1">
<g id="surface551">
<rect x="0" y="0" width="1200" height="400" style="fill:rgb(100%,100%,100%);fill-opacity:1;stroke:none;"/>
<path style="fill:none;stroke-width:2;stroke-linecap:butt;stroke-linejoin:miter;stroke:rgb(100%,0%,0%);stroke-opacity:1;stroke-miterlimit:10;" d="M 163.066406 167.507812 C 167.699219 168.925781 172.675781 170.445312 178.066406 172.082031 C 183.460938 173.71875 189.265625 175.46875 195.589844 177.351562 C 201.914062 179.238281 208.753906 181.257812 216.234375 183.4375 C 223.710938 185.617188 231.835938 187.953125 240.757812 190.46875 C 249.683594 192.984375 259.410156 195.675781 270.132812 198.546875 C 280.851562 201.421875 292.570312 204.480469 305.5 207.699219 C 318.433594 210.914062 332.582031 214.289062 348.152344 217.738281 C 363.722656 221.183594 380.714844 224.699219 399.234375 228.09375 C 417.757812 231.488281 437.808594 234.761719 459.25 237.605469 C 480.691406 240.449219 503.519531 242.863281 527.210938 244.523438 C 550.902344 246.183594 575.449219 247.089844 600 247.089844 C 624.550781 247.089844 649.097656 246.183594 672.789062 244.523438 C 696.480469 242.863281 719.308594 240.449219 740.75 237.605469 C 762.191406 234.761719 782.242188 231.488281 800.765625 228.09375 C 819.285156 224.699219 836.277344 221.183594 851.847656 217.738281 C 867.417969 214.289062 881.566406 210.914062 894.5 207.699219 C 907.429688 204.480469 919.148438 201.421875 929.867188 198.546875 C 940.589844 195.675781 950.316406 192.984375 959.242188 190.46875 C 968.164062 187.953125 976.289062 185.617188 983.765625 183.4375 C 991.246094 181.257812 998.085938 179.238281 1004.410156 177.351562 C 1010.734375 175.46875 1016.539062 173.71875 1021.933594 172.082031 C 1027.324219 170.445312 1032.300781 168.925781 1036.933594 167.507812 "/>
<path style="fill:none;stroke-width:2;stroke-linecap:butt;stroke-linejoin:miter;stroke:rgb(100%,0%,0%);stroke-opacity:1;stroke-miterlimit:10;" d="M 166.511719 151.9375 C 171.277344 152.605469 176.390625 153.289062 181.929688 153.988281 C 187.464844 154.691406 193.429688 155.410156 199.914062 156.140625 C 206.402344 156.875 213.410156 157.621094 221.066406 158.371094 C 228.722656 159.117188 237.027344 159.871094 246.128906 160.613281 C 255.230469 161.351562 265.132812 162.082031 276.011719 162.777344 C 286.890625 163.472656 298.746094 164.136719 311.773438 164.738281 C 324.800781 165.339844 339 165.878906 354.53125 166.332031 C 370.066406 166.785156 386.9375 167.152344 405.203125 167.421875 C 423.472656 167.695312 443.132812 167.867188 464.027344 167.972656 C 484.921875 168.078125 507.042969 168.113281 529.910156 168.125 C 552.777344 168.140625 576.390625 168.132812 600 168.132812 C 623.609375 168.132812 647.222656 168.140625 670.089844 168.125 C 692.957031 168.113281 715.078125 168.078125 735.972656 167.972656 C 756.867188 167.867188 776.527344 167.695312 794.796875 167.421875 C 813.0625 167.152344 829.933594 166.785156 845.46875 166.332031 C 861 165.878906 875.199219 165.339844 888.226562 164.738281 C 901.253906 164.136719 913.109375 163.472656 923.988281 162.777344 C 934.867188 162.082031 944.769531 161.351562 953.871094 160.613281 C 962.972656 159.871094 971.277344 159.117188 978.933594 158.371094 C 986.589844 157.621094 993.597656 156.875 1000.085938 156.140625 C 1006.570312 155.410156 1012.535156 154.691406 1018.070312 153.988281 C 1023.609375 153.289062 1028.722656 152.605469 1033.488281 151.9375 "/>
<path style="fill:none;stroke-width:2;stroke-linecap:butt;stroke-linejoin:miter;stroke:rgb(100%,0%,0%);stroke-opacity:1;stroke-miterlimit:10;" d="M 1036.933594 167.507812 C 1036.15625 164.957031 1035.476562 162.375 1034.902344 159.773438 C 1034.328125 157.175781 1033.851562 154.558594 1033.488281 151.9375 "/>
<path style="fill:none;stroke-width:2;stroke-linecap:butt;stroke-linejoin:miter;stroke:rgb(100%,0%,0%);stroke-opacity:1;stroke-miterlimit:10;" d="M 163.066406 167.507812 C 163.84375 164.957031 164.523438 162.375 165.097656 159.773438 C 165.671875 157.175781 166.148438 154.558594 166.511719 151.9375 "/>
<path style="fill:none;stroke-width:2;stroke-linecap:butt;stroke-linejoin:miter;stroke:rgb(100%,0%,0%);stroke-opacity:1;stroke-miterlimit:10;" d="M 181.980469 173.265625 C 182.167969 172.664062 182.089844 171.984375 181.785156 171.4375 C 181.480469 170.890625 180.949219 170.476562 180.359375 170.308594 C 179.765625 170.144531 179.109375 170.226562 178.578125 170.519531 C 178.042969 170.8125 177.636719 171.320312 177.464844 171.898438 "/>
<path style="fill:none;stroke-width:2;stroke-linecap:butt;stroke-linejoin:miter;stroke:rgb(100%,0%,0%);stroke-opacity:1;stroke-miterlimit:10;" d="M 185.945312 154.492188 C 185.875 155.109375 185.53125 155.695312 185.035156 156.070312 C 184.542969 156.445312 183.890625 156.605469 183.285156 156.519531 C 182.679688 156.429688 182.121094 156.089844 181.757812 155.609375 C 181.394531 155.128906 181.230469 154.503906 181.308594 153.910156 "/>
<path style="fill:none;stroke-width:2;stroke-linecap:butt;stroke-linejoin:miter;stroke:rgb(100%,0%,0%);stroke-opacity:1;stroke-miterlimit:10;" d="M 202.171875 179.308594 C 202.390625 178.589844 202.292969 177.78125 201.929688 177.128906 C 201.5625 176.480469 200.925781 175.992188 200.214844 175.796875 C 199.507812 175.605469 198.730469 175.707031 198.097656 176.058594 C 197.46875 176.414062 196.984375 177.019531 196.78125 177.707031 "/>
<path style="fill:none;stroke-width:2;stroke-linecap:butt;stroke-linejoin:miter;stroke:rgb(100%,0%,0%);stroke-opacity:1;stroke-miterlimit:10;" d="M 206.664062 156.890625 C 206.589844 157.625 206.195312 158.332031 205.609375 158.785156 C 205.027344 159.238281 204.257812 159.441406 203.535156 159.347656 C 202.8125 159.25 202.140625 158.855469 201.699219 158.289062 C 201.261719 157.722656 201.054688 156.984375 201.136719 156.28125 "/>
<path style="fill:none;stroke-width:2;stroke-linecap:butt;stroke-linejoin:miter;stroke:rgb(100%,0%,0%);stroke-opacity:1;stroke-miterlimit:10;" d="M 226.433594 186.390625 C 226.6875 185.523438 226.5625 184.550781 226.113281 183.769531 C 225.664062 182.992188 224.894531 182.410156 224.042969 182.183594 C 223.1875 181.960938 222.25 182.089844 221.496094 182.523438 C 220.742188 182.953125 220.167969 183.683594 219.929688 184.511719 "/>
<path style="fill:none;stroke-width:2;stroke-linecap:butt;stroke-linejoin:miter;stroke:rgb(100%,0%,0%);stroke-opacity:1;stroke-miterlimit:10;" d="M 231.5 159.355469 C 231.425781 160.242188 230.960938 161.09375 230.269531 161.652344 C 229.578125 162.207031 228.65625 162.464844 227.789062 162.367188 C 226.917969 162.265625 226.105469 161.804688 225.566406 161.132812 C 225.027344 160.464844 224.765625 159.582031 224.851562 158.734375 "/>
<path style="fill:none;stroke-width:2;stroke-linecap:butt;stroke-linejoin:miter;stroke:rgb(100%,0%,0%);stroke-opacity:1;stroke-miterlimit:10;" d="M 255.875 194.675781 C 256.171875 193.621094 256.007812 192.4375 255.449219 191.5 C 254.894531 190.5625 253.949219 189.867188 252.910156 189.605469 C 251.871094 189.347656 250.738281 189.519531 249.828125 190.050781 C 248.917969 190.582031 248.234375 191.476562 247.957031 192.484375 "/>
<path style="fill:none;stroke-width:2;stroke-linecap:butt;stroke-linejoin:miter;stroke:rgb(100%,0%,0%);stroke-opacity:1;stroke-miterlimit:10;" d="M 261.523438 161.792969 C 261.457031 162.871094 260.914062 163.914062 260.085938 164.601562 C 259.257812 165.289062 258.148438 165.625 257.09375 165.519531 C 256.042969 165.417969 255.046875 164.878906 254.382812 164.078125 C 253.714844 163.277344 253.382812 162.21875 253.464844 161.195312 "/>
<path style="fill:none;stroke-width:2;stroke-linecap:butt;stroke-linejoin:miter;stroke:rgb(100%,0%,0%);stroke-opacity:1;stroke-miterlimit:10;" d="M 291.90625 204.261719 C 292.25 202.96875 292.019531 201.53125 291.320312 200.398438 C 290.621094 199.265625 289.453125 198.4375 288.179688 198.140625 C 286.90625 197.839844 285.527344 198.074219 284.429688 198.742188 C 283.332031 199.410156 282.511719 200.511719 282.195312 201.746094 "/>
<path style="fill:none;stroke-width:2;stroke-linecap:butt;stroke-linejoin:miter;stroke:rgb(100%,0%,0%);stroke-opacity:1;stroke-miterlimit:10;" d="M 298.054688 164.0625 C 298 165.371094 297.363281 166.652344 296.371094 167.507812 C 295.382812 168.367188 294.039062 168.796875 292.753906 168.695312 C 291.46875 168.59375 290.246094 167.960938 289.417969 167.003906 C 288.589844 166.046875 288.160156 164.769531 288.234375 163.519531 "/>
<path style="fill:none;stroke-width:2;stroke-linecap:butt;stroke-linejoin:miter;stroke:rgb(100%,0%,0%);stroke-opacity:1;stroke-miterlimit:10;" d="M 336.179688 215.035156 C 336.558594 213.453125 336.230469 211.707031 335.34375 210.347656 C 334.457031 208.988281 333.007812 208.015625 331.449219 207.6875 C 329.886719 207.363281 328.210938 207.683594 326.890625 208.527344 C 325.566406 209.375 324.597656 210.742188 324.246094 212.253906 "/>
<path style="fill:none;stroke-width:2;stroke-linecap:butt;stroke-linejoin:miter;stroke:rgb(100%,0%,0%);stroke-opacity:1;stroke-miterlimit:10;" d="M 342.570312 165.960938 C 342.53125 167.546875 341.789062 169.117188 340.605469 170.179688 C 339.421875 171.246094 337.800781 171.800781 336.234375 171.710938 C 334.671875 171.617188 333.167969 170.878906 332.136719 169.734375 C 331.109375 168.589844 330.554688 167.046875 330.617188 165.53125 "/>
<path style="fill:none;stroke-width:2;stroke-linecap:butt;stroke-linejoin:miter;stroke:rgb(100%,0%,0%);stroke-opacity:1;stroke-miterlimit:10;" d="M 390.324219 226.429688 C 390.707031 224.507812 390.238281 222.425781 389.113281 220.828125 C 387.984375 219.230469 386.203125 218.113281 384.304688 217.785156 C 382.410156 217.457031 380.402344 217.910156 378.839844 218.980469 C 377.273438 220.050781 376.160156 221.742188 375.796875 223.585938 "/>
<path style="fill:none;stroke-width:2;stroke-linecap:butt;stroke-linejoin:miter;stroke:rgb(100%,0%,0%);stroke-opacity:1;stroke-miterlimit:10;" d="M 396.40625 167.285156 C 396.390625 169.183594 395.535156 171.082031 394.136719 172.382812 C 392.742188 173.679688 390.804688 174.386719 388.925781 174.3125 C 387.042969 174.238281 385.214844 173.386719 383.949219 172.035156 C 382.683594 170.683594 381.980469 168.835938 382.027344 167.015625 "/>
<path style="fill:none;stroke-width:2;stroke-linecap:butt;stroke-linejoin:miter;stroke:rgb(100%,0%,0%);stroke-opacity:1;stroke-miterlimit:10;" d="M 455.242188 237.0625 C 455.570312 234.804688 454.902344 232.40625 453.496094 230.605469 C 452.085938 228.804688 449.941406 227.601562 447.703125 227.316406 C 445.460938 227.03125 443.128906 227.667969 441.347656 229.011719 C 439.566406 230.355469 438.34375 232.402344 438.023438 234.589844 "/>
<path style="fill:none;stroke-width:2;stroke-linecap:butt;stroke-linejoin:miter;stroke:rgb(100%,0%,0%);stroke-opacity:1;stroke-miterlimit:10;" d="M 460.121094 167.957031 C 460.125 170.160156 459.160156 172.371094 457.558594 173.910156 C 455.953125 175.449219 453.710938 176.308594 451.511719 176.261719 C 449.3125 176.210938 447.152344 175.25 445.644531 173.691406 C 444.132812 172.132812 443.273438 169.980469 443.300781 167.84375 "/>
<path style="fill:none;stroke-width:2;stroke-linecap:butt;stroke-linejoin:miter;stroke:rgb(100%,0%,0%);stroke-opacity:1;stroke-miterlimit:10;" d="M 529.878906 244.707031 C 530.066406 242.1875 529.15625 239.59375 527.472656 237.695312 C 525.789062 235.796875 523.332031 234.597656 520.816406 234.429688 C 518.300781 234.257812 515.730469 235.117188 513.828125 236.738281 C 511.921875 238.359375 510.6875 240.746094 510.484375 243.21875 "/>
<path style="fill:none;stroke-width:2;stroke-linecap:butt;stroke-linejoin:miter;stroke:rgb(100%,0%,0%);stroke-opacity:1;stroke-miterlimit:10;" d="M 532.484375 168.132812 C 532.5 170.5625 531.457031 173.007812 529.699219 174.726562 C 527.941406 176.445312 525.46875 177.433594 523.019531 177.410156 C 520.570312 177.386719 518.144531 176.347656 516.433594 174.628906 C 514.726562 172.90625 513.738281 170.503906 513.75 168.113281 "/>
<path style="fill:none;stroke-width:2;stroke-linecap:butt;stroke-linejoin:miter;stroke:rgb(100%,0%,0%);stroke-opacity:1;stroke-miterlimit:10;" d="M 610.121094 247.035156 C 610.113281 244.433594 608.988281 241.839844 607.117188 240.007812 C 605.246094 238.175781 602.621094 237.105469 600 237.105469 C 597.378906 237.105469 594.753906 238.175781 592.882812 240.007812 C 591.011719 241.839844 589.886719 244.433594 589.878906 247.035156 "/>
<path style="fill:none;stroke-width:2;stroke-linecap:butt;stroke-linejoin:miter;stroke:rgb(100%,0%,0%);stroke-opacity:1;stroke-miterlimit:10;" d="M 609.734375 168.136719 C 609.75 170.636719 608.695312 173.15625 606.894531 174.941406 C 605.089844 176.726562 602.546875 177.78125 600 177.78125 C 597.453125 177.78125 594.910156 176.726562 593.105469 174.941406 C 591.304688 173.15625 590.25 170.636719 590.265625 168.136719 "/>
<path style="fill:none;stroke-width:2;stroke-linecap:butt;stroke-linejoin:miter;stroke:rgb(100%,0%,0%);stroke-opacity:1;stroke-miterlimit:10;" d="M 689.515625 243.21875 C 689.3125 240.746094 688.078125 238.359375 686.171875 236.738281 C 684.269531 235.117188 681.699219 234.257812 679.183594 234.429688 C 676.667969 234.597656 674.210938 235.796875 672.527344 237.695312 C 670.84375 239.59375 669.933594 242.1875 670.121094 244.707031 "/>
<path style="fill:none;stroke-width:2;stroke-linecap:butt;stroke-linejoin:miter;stroke:rgb(100%,0%,0%);stroke-opacity:1;stroke-miterlimit:10;" d="M 686.25 168.113281 C 686.261719 170.503906 685.273438 172.90625 683.566406 174.628906 C 681.855469 176.347656 679.429688 177.386719 676.980469 177.410156 C 674.53125 177.433594 672.058594 176.445312 670.300781 174.726562 C 668.542969 173.007812 667.5 170.5625 667.515625 168.132812 "/>
<path style="fill:none;stroke-width:2;stroke-linecap:butt;stroke-linejoin:miter;stroke:rgb(100%,0%,0%);stroke-opacity:1;stroke-miterlimit:10;" d="M 761.976562 234.589844 C 761.65625 232.402344 760.433594 230.355469 758.652344 229.011719 C 756.871094 227.667969 754.539062 227.03125 752.296875 227.316406 C 750.058594 227.601562 747.914062 228.804688 746.503906 230.605469 C 745.097656 232.40625 744.429688 234.804688 744.757812 237.0625 "/>
<path style="fill:none;stroke-width:2;stroke-linecap:butt;stroke-linejoin:miter;stroke:rgb(100%,0%,0%);stroke-opacity:1;stroke-miterlimit:10;" d="M 756.699219 167.84375 C 756.726562 169.980469 755.867188 172.132812 754.355469 173.691406 C 752.847656 175.25 750.6875 176.210938 748.488281 176.261719 C 746.289062 176.308594 744.046875 175.449219 742.441406 173.910156 C 740.839844 172.371094 739.875 170.160156 739.878906 167.957031 "/>
<path style="fill:none;stroke-width:2;stroke-linecap:butt;stroke-linejoin:miter;stroke:rgb(100%,0%,0%);stroke-opacity:1;stroke-miterlimit:10;" d="M 824.203125 223.585938 C 823.839844 221.742188 822.726562 220.050781 821.160156 218.980469 C 819.597656 217.910156 817.589844 217.457031 815.695312 217.785156 C 813.796875 218.113281 812.015625 219.230469 810.886719 220.828125 C 809.761719 222.425781 809.292969 224.507812 809.675781 226.429688 "/>
<path style="fill:none;stroke-width:2;stroke-linecap:butt;stroke-linejoin:miter;stroke:rgb(100%,0%,0%);stroke-opacity:1;stroke-miterlimit:10;" d="M 817.972656 167.015625 C 818.019531 168.835938 817.316406 170.683594 816.050781 172.035156 C 814.785156 173.386719 812.957031 174.238281 811.074219 174.3125 C 809.195312 174.386719 807.257812 173.679688 805.863281 172.382812 C 804.464844 171.082031 803.609375 169.183594 803.59375 167.285156 "/>
<path style="fill:none;stroke-width:2;stroke-linecap:butt;stroke-linejoin:miter;stroke:rgb(100%,0%,0%);stroke-opacity:1;stroke-miterlimit:10;" d="M 875.753906 212.253906 C 875.402344 210.742188 874.433594 209.375 873.109375 208.527344 C 871.789062 207.683594 870.113281 207.363281 868.550781 207.6875 C 866.992188 208.015625 865.542969 208.988281 864.65625 210.347656 C 863.769531 211.707031 863.441406 213.453125 863.820312 215.035156 "/>
<path style="fill:none;stroke-width:2;stroke-linecap:butt;stroke-linejoin:miter;stroke:rgb(100%,0%,0%);stroke-opacity:1;stroke-miterlimit:10;" d="M 869.382812 165.53125 C 869.445312 167.046875 868.890625 168.589844 867.863281 169.734375 C 866.832031 170.878906 865.328125 171.617188 863.765625 171.710938 C 862.199219 171.800781 860.578125 171.246094 859.394531 170.179688 C 858.210938 169.117188 857.46875 167.546875 857.429688 165.960938 "/>
<path style="fill:none;stroke-width:2;stroke-linecap:butt;stroke-linejoin:miter;stroke:rgb(100%,0%,0%);stroke-opacity:1;stroke-miterlimit:10;" d="M 917.804688 201.746094 C 917.488281 200.511719 916.667969 199.410156 915.570312 198.742188 C 914.472656 198.074219 913.09375 197.839844 911.820312 198.140625 C 910.546875 198.4375 909.378906 199.265625 908.679688 200.398438 C 907.980469 201.53125 907.75 202.96875 908.09375 204.261719 "/>
<path style="fill:none;stroke-width:2;stroke-linecap:butt;stroke-linejoin:miter;stroke:rgb(100%,0%,0%);stroke-opacity:1;stroke-miterlimit:10;" d="M 911.765625 163.519531 C 911.839844 164.769531 911.410156 166.046875 910.582031 167.003906 C 909.753906 167.960938 908.53125 168.59375 907.246094 168.695312 C 905.960938 168.796875 904.617188 168.367188 903.628906 167.507812 C 902.636719 166.652344 902 165.371094 901.945312 164.0625 "/>
<path style="fill:none;stroke-width:2;stroke-linecap:butt;stroke-linejoin:miter;stroke:rgb(100%,0%,0%);stroke-opacity:1;stroke-miterlimit:10;" d="M 952.042969 192.484375 C 951.765625 191.476562 951.082031 190.582031 950.171875 190.050781 C 949.261719 189.519531 948.128906 189.347656 947.089844 189.605469 C 946.050781 189.867188 945.105469 190.5625 944.550781 191.5 C 943.992188 192.4375 943.828125 193.621094 944.125 194.675781 "/>
<path style="fill:none;stroke-width:2;stroke-linecap:butt;stroke-linejoin:miter;stroke:rgb(100%,0%,0%);stroke-opacity:1;stroke-miterlimit:10;" d="M 946.535156 161.195312 C 946.617188 162.21875 946.285156 163.277344 945.617188 164.078125 C 944.953125 164.878906 943.957031 165.417969 942.90625 165.519531 C 941.851562 165.625 940.742188 165.289062 939.914062 164.601562 C 939.085938 163.914062 938.542969 162.871094 938.476562 161.792969 "/>
<path style="fill:none;stroke-width:2;stroke-linecap:butt;stroke-linejoin:miter;stroke:rgb(100%,0%,0%);stroke-opacity:1;stroke-miterlimit:10;" d="M 980.070312 184.511719 C 979.832031 183.683594 979.257812 182.953125 978.503906 182.523438 C 977.75 182.089844 976.8125 181.960938 975.957031 182.183594 C 975.105469 182.410156 974.335938 182.992188 973.886719 183.769531 C 973.4375 184.550781 973.3125 185.523438 973.566406 186.390625 "/>
<path style="fill:none;stroke-width:2;stroke-linecap:butt;stroke-linejoin:miter;stroke:rgb(100%,0%,0%);stroke-opacity:1;stroke-miterlimit:10;" d="M 975.148438 158.734375 C 975.234375 159.582031 974.972656 160.464844 974.433594 161.132812 C 973.894531 161.804688 973.082031 162.265625 972.210938 162.367188 C 971.34375 162.464844 970.421875 162.207031 969.730469 161.652344 C 969.039062 161.09375 968.574219 160.242188 968.5 159.355469 "/>
<path style="fill:none;stroke-width:2;stroke-linecap:butt;stroke-linejoin:miter;stroke:rgb(100%,0%,0%);stroke-opacity:1;stroke-miterlimit:10;" d="M 1003.21875 177.707031 C 1003.015625 177.019531 1002.53125 176.414062 1001.902344 176.058594 C 1001.269531 175.707031 1000.492188 175.605469 999.785156 175.796875 C 999.074219 175.992188 998.4375 176.480469 998.070312 177.128906 C 997.707031 177.78125 997.609375 178.589844 997.828125 179.308594 "/>
<path style="fill:none;stroke-width:2;stroke-linecap:butt;stroke-linejoin:miter;stroke:rgb(100%,0%,0%);stroke-opacity:1;stroke-miterlimit:10;" d="M 998.863281 156.28125 C 998.945312 156.984375 998.738281 157.722656 998.300781 158.289062 C 997.859375 158.855469 997.1875 159.25 996.464844 159.347656 C 995.742188 159.441406 994.972656 159.238281 994.390625 158.785156 C 993.804688 158.332031 993.410156 157.625 993.335938 156.890625 "/>
<path style="fill:none;stroke-width:2;stroke-linecap:butt;stroke-linejoin:miter;stroke:rgb(100%,0%,0%);stroke-opacity:1;stroke-miterlimit:10;" d="M 1022.535156 171.898438 C 1022.363281 171.320312 1021.957031 170.8125 1021.421875 170.519531 C 1020.890625 170.226562 1020.234375 170.144531 1019.640625 170.308594 C 1019.050781 170.476562 1018.519531 170.890625 1018.214844 171.4375 C 1017.910156 171.984375 1017.832031 172.664062 1018.019531 173.265625 "/>
<path style="fill:none;stroke-width:2;stroke-linecap:butt;stroke-linejoin:miter;stroke:rgb(100%,0%,0%);stroke-opacity:1;stroke-miterlimit:10;" d="M 1018.691406 153.910156 C 1018.769531 154.503906 1018.605469 155.128906 1018.242188 155.609375 C 1017.878906 156.089844 1017.320312 156.429688 1016.714844 156.519531 C 1016.109375 156.605469 1015.457031 156.445312 1014.964844 156.070312 C 1014.46875 155.695312 1014.125 155.109375 1014.054688 154.492188 "/>
</g>
</svg>
