<?xml version="1.0" encoding="UTF-8"?>
<svg xmlns="http://www.w3.org/2000/svg" xmlns:xlink="http://www.w3.org/1999/xlink" width="1200mm" height="400mm" viewBox="0 0 1200 400" version="1.1">
<g id="surface561">
<rect x="0" y="0" width="1200" height="400" style="fill:rgb(100%,100%,100%);fill-opacity:1;stroke:none;"/>
<path style="fill:none;stroke-width:2;stroke-linecap:butt;stroke-linejoin:miter;stroke:rgb(100%,0%,0%);stroke-opacity:1;stroke-miterlimit:10;" d="M 268.441406 106.261719 C 270.90625 110.261719 273.597656 114.511719 276.59375 119.042969 C 279.59375 123.570312 282.890625 128.382812 286.585938 133.515625 C 290.277344 138.648438 294.363281 144.101562 298.96875 149.90625 C 303.570312 155.710938 308.691406 161.871094 314.492188 168.402344 C 320.292969 174.933594 326.773438 181.835938 334.144531 189.082031 C 341.519531 196.332031 349.78125 203.925781 359.1875 211.765625 C 368.589844 219.601562 379.136719 227.679688 391.074219 235.757812 C 403.015625 243.835938 416.347656 251.910156 431.226562 259.550781 C 446.101562 267.1875 462.527344 274.390625 480.378906 280.554688 C 498.234375 286.71875 517.515625 291.84375 537.691406 295.34375 C 557.867188 298.84375 578.933594 300.71875 600 300.71875 C 621.066406 300.71875 642.132812 298.84375 662.308594 295.34375 C 682.484375 291.84375 701.765625 286.71875 719.621094 280.554688 C 737.472656 274.390625 753.898438 267.1875 768.773438 259.550781 C 783.652344 251.910156 796.984375 243.835938 808.925781 235.757812 C 820.863281 227.679688 831.410156 219.601562 840.8125 211.765625 C 850.21875 203.925781 858.480469 196.332031 865.855469 189.082031 C 873.226562 181.835938 879.707031 174.933594 885.507812 168.402344 C 891.308594 161.871094 896.429688 155.710938 901.03125 149.90625 C 905.636719 144.101562 909.722656 138.648438 913.414062 133.515625 C 917.109375 128.382812 920.40625 123.570312 923.40625 119.042969 C 926.402344 114.511719 929.09375 110.261719 931.558594 106.261719 "/>
<path style="fill:none;stroke-width:2;stroke-linecap:butt;stroke-linejoin:miter;stroke:rgb(100%,0%,0%);stroke-opacity:1;stroke-miterlimit:10;" d="M 280.765625 97.328125 C 283.6875 100.78125 286.878906 104.410156 290.398438 108.234375 C 293.921875 112.058594 297.773438 116.082031 302.042969 120.308594 C 306.3125 124.539062 311 128.972656 316.214844 133.617188 C 321.429688 138.261719 327.171875 143.117188 333.574219 148.160156 C 339.972656 153.203125 347.035156 158.433594 354.910156 163.800781 C 362.785156 169.167969 371.46875 174.667969 381.125 180.191406 C 390.777344 185.714844 401.402344 191.265625 413.109375 196.65625 C 424.820312 202.042969 437.617188 207.277344 451.515625 212.089844 C 465.414062 216.90625 480.417969 221.304688 496.359375 224.996094 C 512.300781 228.683594 529.179688 231.660156 546.609375 233.675781 C 564.039062 235.695312 582.019531 236.753906 600 236.753906 C 617.980469 236.753906 635.960938 235.695312 653.390625 233.675781 C 670.820312 231.660156 687.699219 228.683594 703.640625 224.996094 C 719.582031 221.304688 734.585938 216.90625 748.484375 212.089844 C 762.382812 207.277344 775.179688 202.042969 786.890625 196.65625 C 798.597656 191.265625 809.222656 185.714844 818.875 180.191406 C 828.53125 174.667969 837.214844 169.167969 845.089844 163.800781 C 852.964844 158.433594 860.027344 153.203125 866.425781 148.160156 C 872.828125 143.117188 878.570312 138.261719 883.785156 133.617188 C 889 128.972656 893.6875 124.539062 897.957031 120.308594 C 902.226562 116.082031 906.078125 112.058594 909.601562 108.234375 C 913.121094 104.410156 916.3125 100.78125 919.234375 97.328125 "/>
<path style="fill:none;stroke-width:2;stroke-linecap:butt;stroke-linejoin:miter;stroke:rgb(100%,0%,0%);stroke-opacity:1;stroke-miterlimit:10;" d="M 931.558594 106.261719 C 929.359375 104.90625 927.226562 103.476562 925.171875 101.984375 C 923.113281 100.492188 921.132812 98.9375 919.234375 97.328125 "/>
<path style="fill:none;stroke-width:2;stroke-linecap:butt;stroke-linejoin:miter;stroke:rgb(100%,0%,0%);stroke-opacity:1;stroke-miterlimit:10;" d="M 268.441406 106.261719 C 270.640625 104.90625 272.773438 103.476562 274.828125 101.984375 C 276.886719 100.492188 278.867188 98.9375 280.765625 97.328125 "/>
<path style="fill:none;stroke-width:2;stroke-linecap:butt;stroke-linejoin:miter;stroke:rgb(100%,0%,0%);stroke-opacity:1;stroke-miterlimit:10;" d="M 278.785156 122.316406 C 279.289062 121.980469 279.644531 121.429688 279.75 120.835938 C 279.855469 120.246094 279.714844 119.617188 279.378906 119.132812 C 279.039062 118.644531 278.507812 118.304688 277.933594 118.195312 C 277.359375 118.085938 276.746094 118.210938 276.261719 118.535156 "/>
<path style="fill:none;stroke-width:2;stroke-linecap:butt;stroke-linejoin:miter;stroke:rgb(100%,0%,0%);stroke-opacity:1;stroke-miterlimit:10;" d="M 292.964844 110.992188 C 292.546875 111.390625 291.953125 111.609375 291.375 111.582031 C 290.796875 111.554688 290.234375 111.28125 289.851562 110.855469 C 289.472656 110.429688 289.273438 109.847656 289.304688 109.285156 C 289.332031 108.722656 289.59375 108.179688 290.003906 107.804688 "/>
<path style="fill:none;stroke-width:2;stroke-linecap:butt;stroke-linejoin:miter;stroke:rgb(100%,0%,0%);stroke-opacity:1;stroke-miterlimit:10;" d="M 290.460938 138.820312 C 291.042969 138.398438 291.433594 137.726562 291.527344 137.019531 C 291.621094 136.316406 291.417969 135.578125 290.996094 135.023438 C 290.570312 134.46875 289.921875 134.097656 289.238281 133.996094 C 288.554688 133.898438 287.835938 134.078125 287.28125 134.480469 "/>
<path style="fill:none;stroke-width:2;stroke-linecap:butt;stroke-linejoin:miter;stroke:rgb(100%,0%,0%);stroke-opacity:1;stroke-miterlimit:10;" d="M 306.511719 124.660156 C 306.046875 125.15625 305.363281 125.445312 304.683594 125.449219 C 304.003906 125.453125 303.324219 125.167969 302.851562 124.691406 C 302.378906 124.214844 302.113281 123.542969 302.113281 122.882812 C 302.117188 122.222656 302.386719 121.566406 302.847656 121.105469 "/>
<path style="fill:none;stroke-width:2;stroke-linecap:butt;stroke-linejoin:miter;stroke:rgb(100%,0%,0%);stroke-opacity:1;stroke-miterlimit:10;" d="M 305.320312 157.730469 C 305.984375 157.1875 306.402344 156.359375 306.46875 155.515625 C 306.53125 154.667969 306.246094 153.808594 305.703125 153.175781 C 305.164062 152.542969 304.367188 152.140625 303.550781 152.066406 C 302.730469 151.992188 301.890625 152.246094 301.253906 152.765625 "/>
<path style="fill:none;stroke-width:2;stroke-linecap:butt;stroke-linejoin:miter;stroke:rgb(100%,0%,0%);stroke-opacity:1;stroke-miterlimit:10;" d="M 323.371094 139.832031 C 322.859375 140.449219 322.074219 140.84375 321.269531 140.894531 C 320.46875 140.945312 319.648438 140.65625 319.054688 140.128906 C 318.464844 139.597656 318.101562 138.824219 318.058594 138.046875 C 318.015625 137.265625 318.289062 136.476562 318.800781 135.898438 "/>
<path style="fill:none;stroke-width:2;stroke-linecap:butt;stroke-linejoin:miter;stroke:rgb(100%,0%,0%);stroke-opacity:1;stroke-miterlimit:10;" d="M 324.46875 179.25 C 325.21875 178.546875 325.652344 177.519531 325.664062 176.503906 C 325.671875 175.488281 325.257812 174.480469 324.5625 173.765625 C 323.863281 173.050781 322.882812 172.632812 321.898438 172.609375 C 320.914062 172.585938 319.925781 172.953125 319.203125 173.621094 "/>
<path style="fill:none;stroke-width:2;stroke-linecap:butt;stroke-linejoin:miter;stroke:rgb(100%,0%,0%);stroke-opacity:1;stroke-miterlimit:10;" d="M 344.488281 156.445312 C 343.933594 157.21875 343.035156 157.75 342.089844 157.878906 C 341.144531 158.007812 340.148438 157.734375 339.402344 157.152344 C 338.660156 156.574219 338.164062 155.6875 338.050781 154.769531 C 337.9375 153.847656 338.199219 152.894531 338.753906 152.167969 "/>
<path style="fill:none;stroke-width:2;stroke-linecap:butt;stroke-linejoin:miter;stroke:rgb(100%,0%,0%);stroke-opacity:1;stroke-miterlimit:10;" d="M 349.398438 203.339844 C 350.226562 202.421875 350.644531 201.148438 350.554688 199.929688 C 350.464844 198.710938 349.871094 197.542969 348.964844 196.757812 C 348.058594 195.96875 346.84375 195.5625 345.660156 195.628906 C 344.480469 195.691406 343.328125 196.226562 342.527344 197.097656 "/>
<path style="fill:none;stroke-width:2;stroke-linecap:butt;stroke-linejoin:miter;stroke:rgb(100%,0%,0%);stroke-opacity:1;stroke-miterlimit:10;" d="M 370.996094 174.199219 C 370.417969 175.164062 369.40625 175.882812 368.296875 176.125 C 367.1875 176.367188 365.980469 176.140625 365.042969 175.523438 C 364.105469 174.910156 363.4375 173.90625 363.214844 172.828125 C 362.992188 171.75 363.210938 170.59375 363.800781 169.683594 "/>
<path style="fill:none;stroke-width:2;stroke-linecap:butt;stroke-linejoin:miter;stroke:rgb(100%,0%,0%);stroke-opacity:1;stroke-miterlimit:10;" d="M 381.957031 229.398438 C 382.832031 228.203125 383.171875 226.632812 382.914062 225.191406 C 382.660156 223.75 381.8125 222.433594 380.636719 221.601562 C 379.464844 220.773438 377.96875 220.429688 376.5625 220.644531 C 375.160156 220.859375 373.851562 221.636719 372.992188 222.769531 "/>
<path style="fill:none;stroke-width:2;stroke-linecap:butt;stroke-linejoin:miter;stroke:rgb(100%,0%,0%);stroke-opacity:1;stroke-miterlimit:10;" d="M 404.109375 192.382812 C 403.535156 193.578125 402.429688 194.53125 401.152344 194.941406 C 399.875 195.351562 398.425781 195.214844 397.253906 194.59375 C 396.082031 193.972656 395.183594 192.863281 394.804688 191.617188 C 394.421875 190.371094 394.558594 188.988281 395.152344 187.855469 "/>
<path style="fill:none;stroke-width:2;stroke-linecap:butt;stroke-linejoin:miter;stroke:rgb(100%,0%,0%);stroke-opacity:1;stroke-miterlimit:10;" d="M 424.09375 255.789062 C 424.9375 254.253906 425.101562 252.371094 424.589844 250.71875 C 424.078125 249.066406 422.890625 247.648438 421.394531 246.84375 C 419.898438 246.039062 418.09375 245.847656 416.472656 246.300781 C 414.851562 246.753906 413.417969 247.851562 412.574219 249.308594 "/>
<path style="fill:none;stroke-width:2;stroke-linecap:butt;stroke-linejoin:miter;stroke:rgb(100%,0%,0%);stroke-opacity:1;stroke-miterlimit:10;" d="M 444.824219 209.714844 C 444.308594 211.164062 443.148438 212.398438 441.722656 213.03125 C 440.296875 213.664062 438.601562 213.6875 437.167969 213.113281 C 435.730469 212.539062 434.550781 211.363281 433.957031 209.960938 C 433.359375 208.5625 433.351562 206.9375 433.902344 205.554688 "/>
<path style="fill:none;stroke-width:2;stroke-linecap:butt;stroke-linejoin:miter;stroke:rgb(100%,0%,0%);stroke-opacity:1;stroke-miterlimit:10;" d="M 477.046875 279.382812 C 477.738281 277.496094 477.59375 275.339844 476.730469 273.554688 C 475.871094 271.769531 474.289062 270.355469 472.453125 269.691406 C 470.617188 269.023438 468.527344 269.105469 466.75 269.890625 C 464.976562 270.675781 463.515625 272.167969 462.796875 273.980469 "/>
<path style="fill:none;stroke-width:2;stroke-linecap:butt;stroke-linejoin:miter;stroke:rgb(100%,0%,0%);stroke-opacity:1;stroke-miterlimit:10;" d="M 493.378906 224.296875 C 492.988281 225.984375 491.855469 227.523438 490.339844 228.421875 C 488.820312 229.320312 486.921875 229.578125 485.226562 229.125 C 483.53125 228.667969 482.039062 227.5 481.179688 226 C 480.324219 224.496094 480.097656 222.660156 480.546875 221.03125 "/>
<path style="fill:none;stroke-width:2;stroke-linecap:butt;stroke-linejoin:miter;stroke:rgb(100%,0%,0%);stroke-opacity:1;stroke-miterlimit:10;" d="M 539.964844 295.726562 C 540.339844 293.566406 539.78125 291.277344 538.519531 289.511719 C 537.257812 287.75 535.292969 286.511719 533.179688 286.125 C 531.070312 285.742188 528.8125 286.207031 527.023438 287.386719 C 525.238281 288.570312 523.917969 290.46875 523.476562 292.582031 "/>
<path style="fill:none;stroke-width:2;stroke-linecap:butt;stroke-linejoin:miter;stroke:rgb(100%,0%,0%);stroke-opacity:1;stroke-miterlimit:10;" d="M 548.570312 233.902344 C 548.375 235.761719 547.371094 237.5625 545.867188 238.734375 C 544.359375 239.90625 542.351562 240.453125 540.460938 240.199219 C 538.566406 239.941406 536.789062 238.890625 535.652344 237.378906 C 534.515625 235.871094 534.019531 233.90625 534.289062 232.082031 "/>
<path style="fill:none;stroke-width:2;stroke-linecap:butt;stroke-linejoin:miter;stroke:rgb(100%,0%,0%);stroke-opacity:1;stroke-miterlimit:10;" d="M 608.6875 300.613281 C 608.644531 298.359375 607.652344 296.160156 606.046875 294.617188 C 604.4375 293.070312 602.21875 292.179688 600 292.179688 C 597.78125 292.179688 595.5625 293.070312 593.953125 294.617188 C 592.347656 296.160156 591.355469 298.359375 591.3125 300.613281 "/>
<path style="fill:none;stroke-width:2;stroke-linecap:butt;stroke-linejoin:miter;stroke:rgb(100%,0%,0%);stroke-opacity:1;stroke-miterlimit:10;" d="M 607.414062 236.695312 C 607.457031 238.605469 606.679688 240.5625 605.308594 241.957031 C 603.9375 243.347656 601.96875 244.183594 600 244.183594 C 598.03125 244.183594 596.0625 243.347656 594.691406 241.957031 C 593.320312 240.5625 592.542969 238.605469 592.585938 236.695312 "/>
<path style="fill:none;stroke-width:2;stroke-linecap:butt;stroke-linejoin:miter;stroke:rgb(100%,0%,0%);stroke-opacity:1;stroke-miterlimit:10;" d="M 676.523438 292.582031 C 676.082031 290.46875 674.761719 288.570312 672.976562 287.386719 C 671.1875 286.207031 668.929688 285.742188 666.820312 286.125 C 664.707031 286.511719 662.742188 287.75 661.480469 289.511719 C 660.21875 291.277344 659.660156 293.566406 660.035156 295.726562 "/>
<path style="fill:none;stroke-width:2;stroke-linecap:butt;stroke-linejoin:miter;stroke:rgb(100%,0%,0%);stroke-opacity:1;stroke-miterlimit:10;" d="M 665.710938 232.082031 C 665.980469 233.90625 665.484375 235.871094 664.347656 237.378906 C 663.210938 238.890625 661.433594 239.941406 659.539062 240.199219 C 657.648438 240.453125 655.640625 239.90625 654.132812 238.734375 C 652.628906 237.5625 651.625 235.761719 651.429688 233.902344 "/>
<path style="fill:none;stroke-width:2;stroke-linecap:butt;stroke-linejoin:miter;stroke:rgb(100%,0%,0%);stroke-opacity:1;stroke-miterlimit:10;" d="M 737.203125 273.980469 C 736.484375 272.167969 735.023438 270.675781 733.25 269.890625 C 731.472656 269.105469 729.382812 269.023438 727.546875 269.691406 C 725.710938 270.355469 724.128906 271.769531 723.269531 273.554688 C 722.40625 275.339844 722.261719 277.496094 722.953125 279.382812 "/>
<path style="fill:none;stroke-width:2;stroke-linecap:butt;stroke-linejoin:miter;stroke:rgb(100%,0%,0%);stroke-opacity:1;stroke-miterlimit:10;" d="M 719.453125 221.03125 C 719.902344 222.660156 719.675781 224.496094 718.820312 226 C 717.960938 227.5 716.46875 228.667969 714.773438 229.125 C 713.078125 229.578125 711.179688 229.320312 709.660156 228.421875 C 708.144531 227.523438 707.011719 225.984375 706.621094 224.296875 "/>
<path style="fill:none;stroke-width:2;stroke-linecap:butt;stroke-linejoin:miter;stroke:rgb(100%,0%,0%);stroke-opacity:1;stroke-miterlimit:10;" d="M 787.425781 249.308594 C 786.582031 247.851562 785.148438 246.753906 783.527344 246.300781 C 781.90625 245.847656 780.101562 246.039062 778.605469 246.84375 C 777.109375 247.648438 775.921875 249.066406 775.410156 250.71875 C 774.898438 252.371094 775.0625 254.253906 775.90625 255.789062 "/>
<path style="fill:none;stroke-width:2;stroke-linecap:butt;stroke-linejoin:miter;stroke:rgb(100%,0%,0%);stroke-opacity:1;stroke-miterlimit:10;" d="M 766.097656 205.554688 C 766.648438 206.9375 766.640625 208.5625 766.042969 209.960938 C 765.449219 211.363281 764.269531 212.539062 762.832031 213.113281 C 761.398438 213.6875 759.703125 213.664062 758.277344 213.03125 C 756.851562 212.398438 755.691406 211.164062 755.175781 209.714844 "/>
<path style="fill:none;stroke-width:2;stroke-linecap:butt;stroke-linejoin:miter;stroke:rgb(100%,0%,0%);stroke-opacity:1;stroke-miterlimit:10;" d="M 827.007812 222.769531 C 826.148438 221.636719 824.839844 220.859375 823.4375 220.644531 C 822.03125 220.429688 820.535156 220.773438 819.363281 221.601562 C 818.1875 222.433594 817.339844 223.75 817.085938 225.191406 C 816.828125 226.632812 817.167969 228.203125 818.042969 229.398438 "/>
<path style="fill:none;stroke-width:2;stroke-linecap:butt;stroke-linejoin:miter;stroke:rgb(100%,0%,0%);stroke-opacity:1;stroke-miterlimit:10;" d="M 804.847656 187.855469 C 805.441406 188.988281 805.578125 190.371094 805.195312 191.617188 C 804.816406 192.863281 803.917969 193.972656 802.746094 194.59375 C 801.574219 195.214844 800.125 195.351562 798.847656 194.941406 C 797.570312 194.53125 796.464844 193.578125 795.890625 192.382812 "/>
<path style="fill:none;stroke-width:2;stroke-linecap:butt;stroke-linejoin:miter;stroke:rgb(100%,0%,0%);stroke-opacity:1;stroke-miterlimit:10;" d="M 857.472656 197.097656 C 856.671875 196.226562 855.519531 195.691406 854.339844 195.628906 C 853.15625 195.5625 851.941406 195.96875 851.035156 196.757812 C 850.128906 197.542969 849.535156 198.710938 849.445312 199.929688 C 849.355469 201.148438 849.773438 202.421875 850.601562 203.339844 "/>
<path style="fill:none;stroke-width:2;stroke-linecap:butt;stroke-linejoin:miter;stroke:rgb(100%,0%,0%);stroke-opacity:1;stroke-miterlimit:10;" d="M 836.199219 169.683594 C 836.789062 170.59375 837.007812 171.75 836.785156 172.828125 C 836.5625 173.90625 835.894531 174.910156 834.957031 175.523438 C 834.019531 176.140625 832.8125 176.367188 831.703125 176.125 C 830.59375 175.882812 829.582031 175.164062 829.003906 174.199219 "/>
<path style="fill:none;stroke-width:2;stroke-linecap:butt;stroke-linejoin:miter;stroke:rgb(100%,0%,0%);stroke-opacity:1;stroke-miterlimit:10;" d="M 880.796875 173.621094 C 880.074219 172.953125 879.085938 172.585938 878.101562 172.609375 C 877.117188 172.632812 876.136719 173.050781 875.4375 173.765625 C 874.742188 174.480469 874.328125 175.488281 874.335938 176.503906 C 874.347656 177.519531 874.78125 178.546875 875.53125 179.25 "/>
<path style="fill:none;stroke-width:2;stroke-linecap:butt;stroke-linejoin:miter;stroke:rgb(100%,0%,0%);stroke-opacity:1;stroke-miterlimit:10;" d="M 861.246094 152.167969 C 861.800781 152.894531 862.0625 153.847656 861.949219 154.769531 C 861.835938 155.6875 861.339844 156.574219 860.597656 157.152344 C 859.851562 157.734375 858.855469 158.007812 857.910156 157.878906 C 856.964844 157.75 856.066406 157.21875 855.511719 156.445312 "/>
<path style="fill:none;stroke-width:2;stroke-linecap:butt;stroke-linejoin:miter;stroke:rgb(100%,0%,0%);stroke-opacity:1;stroke-miterlimit:10;" d="M 898.746094 152.765625 C 898.109375 152.246094 897.269531 151.992188 896.449219 152.066406 C 895.632812 152.140625 894.835938 152.542969 894.296875 153.175781 C 893.753906 153.808594 893.46875 154.667969 893.53125 155.515625 C 893.597656 156.359375 894.015625 157.1875 894.679688 157.730469 "/>
<path style="fill:none;stroke-width:2;stroke-linecap:butt;stroke-linejoin:miter;stroke:rgb(100%,0%,0%);stroke-opacity:1;stroke-miterlimit:10;" d="M 881.199219 135.898438 C 881.710938 136.476562 881.984375 137.265625 881.941406 138.046875 C 881.898438 138.824219 881.535156 139.597656 880.945312 140.128906 C 880.351562 140.65625 879.53125 140.945312 878.730469 140.894531 C 877.925781 140.84375 877.140625 140.449219 876.628906 139.832031 "/>
<path style="fill:none;stroke-width:2;stroke-linecap:butt;stroke-linejoin:miter;stroke:rgb(100%,0%,0%);stroke-opacity:1;stroke-miterlimit:10;" d="M 912.71875 134.480469 C 912.164062 134.078125 911.445312 133.898438 910.761719 133.996094 C 910.078125 134.097656 909.429688 134.46875 909.003906 135.023438 C 908.582031 135.578125 908.378906 136.316406 908.472656 137.019531 C 908.566406 137.726562 908.957031 138.398438 909.539062 138.820312 "/>
<path style="fill:none;stroke-width:2;stroke-linecap:butt;stroke-linejoin:miter;stroke:rgb(100%,0%,0%);stroke-opacity:1;stroke-miterlimit:10;" d="M 897.152344 121.105469 C 897.613281 121.566406 897.882812 122.222656 897.886719 122.882812 C 897.886719 123.542969 897.621094 124.214844 897.148438 124.691406 C 896.675781 125.167969 895.996094 125.453125 895.316406 125.449219 C 894.636719 125.445312 893.953125 125.15625 893.488281 124.660156 "/>
<path style="fill:none;stroke-width:2;stroke-linecap:butt;stroke-linejoin:miter;stroke:rgb(100%,0%,0%);stroke-opacity:1;stroke-miterlimit:10;" d="M 923.738281 118.535156 C 923.253906 118.210938 922.640625 118.085938 922.066406 118.195312 C 921.492188 118.304688 920.960938 118.644531 920.621094 119.132812 C 920.285156 119.617188 920.144531 120.246094 920.25 120.835938 C 920.355469 121.429688 920.710938 121.980469 921.214844 122.316406 "/>
<path style="fill:none;stroke-width:2;stroke-linecap:butt;stroke-linejoin:miter;stroke:rgb(100%,0%,0%);stroke-opacity:1;stroke-miterlimit:10;" d="M 909.996094 107.804688 C 910.40625 108.179688 910.667969 108.722656 910.695312 109.285156 C 910.726562 109.847656 910.527344 110.429688 910.148438 110.855469 C 909.765625 111.28125 909.203125 111.554688 908.625 111.582031 C 908.046875 111.609375 907.453125 111.390625 907.035156 110.992188 "/>
</g>
</svg>
