<?xml version="1.0" encoding="UTF-8"?>
<svg xmlns="http://www.w3.org/2000/svg" xmlns:xlink="http://www.w3.org/1999/xlink" width="1200mm" height="400mm" viewBox="0 0 1200 400" version="1.1">
<g id="surface591">
<rect x="0" y="0" width="1200" height="400" style="fill:rgb(100%,100%,100%);fill-opacity:1;stroke:none;"/>
<path style="fill:none;stroke-width:2;stroke-linecap:butt;stroke-linejoin:miter;stroke:rgb(100%,0%,0%);stroke-opacity:1;stroke-miterlimit:10;" d="M 479.675781 149.023438 C 480.167969 152.191406 480.808594 155.496094 481.632812 158.929688 C 482.460938 162.363281 483.476562 165.929688 484.722656 169.609375 C 485.972656 173.292969 487.453125 177.089844 489.222656 180.980469 C 490.988281 184.871094 493.042969 188.851562 495.4375 192.875 C 497.828125 196.902344 500.558594 200.96875 503.675781 205.015625 C 506.789062 209.0625 510.292969 213.082031 514.207031 216.984375 C 518.125 220.890625 522.457031 224.675781 527.207031 228.230469 C 531.957031 231.785156 537.125 235.109375 542.667969 238.078125 C 548.214844 241.046875 554.132812 243.660156 560.34375 245.808594 C 566.554688 247.953125 573.054688 249.632812 579.710938 250.761719 C 586.371094 251.890625 593.183594 252.46875 600 252.46875 C 606.816406 252.46875 613.628906 251.890625 620.289062 250.761719 C 626.945312 249.632812 633.445312 247.953125 639.65625 245.808594 C 645.867188 243.660156 651.785156 241.046875 657.332031 238.078125 C 662.875 235.109375 668.042969 231.785156 672.792969 228.230469 C 677.542969 224.675781 681.875 220.890625 685.792969 216.984375 C 689.707031 213.082031 693.210938 209.0625 696.324219 205.015625 C 699.441406 200.96875 702.171875 196.902344 704.5625 192.875 C 706.957031 188.851562 709.011719 184.871094 710.777344 180.980469 C 712.546875 177.089844 714.027344 173.292969 715.277344 169.609375 C 716.523438 165.929688 717.539062 162.363281 718.367188 158.929688 C 719.191406 155.496094 719.832031 152.191406 720.324219 149.023438 "/>
<path style="fill:none;stroke-width:2;stroke-linecap:butt;stroke-linejoin:miter;stroke:rgb(100%,0%,0%);stroke-opacity:1;stroke-miterlimit:10;" d="M 489.601562 146.960938 C 490.34375 149.808594 491.230469 152.753906 492.296875 155.785156 C 493.359375 158.816406 494.597656 161.9375 496.050781 165.128906 C 497.5 168.320312 499.160156 171.582031 501.070312 174.886719 C 502.976562 178.191406 505.128906 181.539062 507.566406 184.886719 C 510 188.234375 512.710938 191.582031 515.734375 194.875 C 518.753906 198.164062 522.078125 201.402344 525.71875 204.507812 C 529.359375 207.617188 533.320312 210.597656 537.582031 213.371094 C 541.847656 216.144531 546.417969 218.710938 551.257812 220.984375 C 556.097656 223.261719 561.203125 225.246094 566.511719 226.867188 C 571.816406 228.488281 577.324219 229.746094 582.941406 230.59375 C 588.554688 231.4375 594.277344 231.867188 600 231.867188 C 605.722656 231.867188 611.445312 231.4375 617.058594 230.59375 C 622.675781 229.746094 628.183594 228.488281 633.488281 226.867188 C 638.796875 225.246094 643.902344 223.261719 648.742188 220.984375 C 653.582031 218.710938 658.152344 216.144531 662.417969 213.371094 C 666.679688 210.597656 670.640625 207.617188 674.28125 204.507812 C 677.921875 201.402344 681.246094 198.164062 684.265625 194.875 C 687.289062 191.582031 690 188.234375 692.433594 184.886719 C 694.871094 181.539062 697.023438 178.191406 698.929688 174.886719 C 700.839844 171.582031 702.5 168.320312 703.949219 165.128906 C 705.402344 161.9375 706.640625 158.816406 707.703125 155.785156 C 708.769531 152.753906 709.65625 149.808594 710.398438 146.960938 "/>
<path style="fill:none;stroke-width:2;stroke-linecap:butt;stroke-linejoin:miter;stroke:rgb(100%,0%,0%);stroke-opacity:1;stroke-miterlimit:10;" d="M 720.324219 149.023438 C 718.582031 148.753906 716.882812 148.441406 715.230469 148.09375 C 713.574219 147.75 711.964844 147.371094 710.398438 146.960938 "/>
<path style="fill:none;stroke-width:2;stroke-linecap:butt;stroke-linejoin:miter;stroke:rgb(100%,0%,0%);stroke-opacity:1;stroke-miterlimit:10;" d="M 479.675781 149.023438 C 481.417969 148.753906 483.117188 148.441406 484.769531 148.09375 C 486.425781 147.75 488.035156 147.371094 489.601562 146.960938 "/>
<path style="fill:none;stroke-width:2;stroke-linecap:butt;stroke-linejoin:miter;stroke:rgb(100%,0%,0%);stroke-opacity:1;stroke-miterlimit:10;" d="M 482.253906 161.398438 C 482.632812 161.300781 482.964844 161.042969 483.15625 160.710938 C 483.347656 160.375 483.402344 159.96875 483.304688 159.601562 C 483.207031 159.230469 482.960938 158.90625 482.636719 158.710938 C 482.3125 158.519531 481.910156 158.453125 481.542969 158.542969 "/>
<path style="fill:none;stroke-width:2;stroke-linecap:butt;stroke-linejoin:miter;stroke:rgb(100%,0%,0%);stroke-opacity:1;stroke-miterlimit:10;" d="M 493.082031 157.960938 C 492.753906 158.085938 492.367188 158.070312 492.046875 157.917969 C 491.722656 157.765625 491.46875 157.480469 491.351562 157.144531 C 491.234375 156.8125 491.261719 156.429688 491.414062 156.117188 C 491.566406 155.804688 491.851562 155.554688 492.175781 155.445312 "/>
<path style="fill:none;stroke-width:2;stroke-linecap:butt;stroke-linejoin:miter;stroke:rgb(100%,0%,0%);stroke-opacity:1;stroke-miterlimit:10;" d="M 486.070312 173.375 C 486.476562 173.226562 486.8125 172.90625 486.988281 172.515625 C 487.160156 172.125 487.171875 171.667969 487.023438 171.273438 C 486.875 170.878906 486.570312 170.546875 486.1875 170.367188 C 485.808594 170.1875 485.359375 170.160156 484.960938 170.300781 "/>
<path style="fill:none;stroke-width:2;stroke-linecap:butt;stroke-linejoin:miter;stroke:rgb(100%,0%,0%);stroke-opacity:1;stroke-miterlimit:10;" d="M 497.589844 168.382812 C 497.242188 168.558594 496.820312 168.582031 496.449219 168.453125 C 496.082031 168.320312 495.769531 168.035156 495.605469 167.683594 C 495.441406 167.328125 495.425781 166.910156 495.5625 166.546875 C 495.695312 166.1875 495.976562 165.886719 496.324219 165.726562 "/>
<path style="fill:none;stroke-width:2;stroke-linecap:butt;stroke-linejoin:miter;stroke:rgb(100%,0%,0%);stroke-opacity:1;stroke-miterlimit:10;" d="M 491.710938 186.132812 C 492.140625 185.917969 492.46875 185.519531 492.613281 185.070312 C 492.753906 184.621094 492.710938 184.113281 492.5 183.699219 C 492.289062 183.28125 491.910156 182.957031 491.46875 182.804688 C 491.027344 182.65625 490.527344 182.679688 490.105469 182.882812 "/>
<path style="fill:none;stroke-width:2;stroke-linecap:butt;stroke-linejoin:miter;stroke:rgb(100%,0%,0%);stroke-opacity:1;stroke-miterlimit:10;" d="M 503.714844 179.246094 C 503.359375 179.476562 502.898438 179.554688 502.480469 179.457031 C 502.0625 179.359375 501.6875 179.085938 501.464844 178.71875 C 501.246094 178.355469 501.179688 177.898438 501.285156 177.488281 C 501.386719 177.078125 501.660156 176.714844 502.019531 176.5 "/>
<path style="fill:none;stroke-width:2;stroke-linecap:butt;stroke-linejoin:miter;stroke:rgb(100%,0%,0%);stroke-opacity:1;stroke-miterlimit:10;" d="M 499.59375 199.394531 C 500.035156 199.097656 500.339844 198.617188 500.433594 198.105469 C 500.527344 197.59375 500.410156 197.046875 500.121094 196.621094 C 499.835938 196.195312 499.375 195.886719 498.871094 195.78125 C 498.371094 195.675781 497.824219 195.773438 497.390625 196.054688 "/>
<path style="fill:none;stroke-width:2;stroke-linecap:butt;stroke-linejoin:miter;stroke:rgb(100%,0%,0%);stroke-opacity:1;stroke-miterlimit:10;" d="M 511.734375 190.277344 C 511.378906 190.574219 510.890625 190.71875 510.425781 190.667969 C 509.960938 190.617188 509.515625 190.367188 509.226562 190 C 508.941406 189.632812 508.808594 189.144531 508.871094 188.683594 C 508.929688 188.226562 509.179688 187.796875 509.539062 187.523438 "/>
<path style="fill:none;stroke-width:2;stroke-linecap:butt;stroke-linejoin:miter;stroke:rgb(100%,0%,0%);stroke-opacity:1;stroke-miterlimit:10;" d="M 510.113281 212.699219 C 510.542969 212.3125 510.800781 211.746094 510.828125 211.175781 C 510.851562 210.605469 510.644531 210.03125 510.269531 209.609375 C 509.890625 209.191406 509.347656 208.925781 508.789062 208.886719 C 508.226562 208.847656 507.648438 209.03125 507.21875 209.402344 "/>
<path style="fill:none;stroke-width:2;stroke-linecap:butt;stroke-linejoin:miter;stroke:rgb(100%,0%,0%);stroke-opacity:1;stroke-miterlimit:10;" d="M 521.882812 201.082031 C 521.542969 201.453125 521.039062 201.675781 520.53125 201.6875 C 520.023438 201.699219 519.507812 201.492188 519.148438 201.136719 C 518.785156 200.78125 518.578125 200.277344 518.578125 199.773438 C 518.578125 199.273438 518.785156 198.773438 519.136719 198.429688 "/>
<path style="fill:none;stroke-width:2;stroke-linecap:butt;stroke-linejoin:miter;stroke:rgb(100%,0%,0%);stroke-opacity:1;stroke-miterlimit:10;" d="M 523.554688 225.382812 C 523.953125 224.898438 524.136719 224.25 524.070312 223.636719 C 524.007812 223.019531 523.691406 222.4375 523.21875 222.050781 C 522.75 221.660156 522.125 221.460938 521.515625 221.511719 C 520.90625 221.558594 520.316406 221.847656 519.910156 222.316406 "/>
<path style="fill:none;stroke-width:2;stroke-linecap:butt;stroke-linejoin:miter;stroke:rgb(100%,0%,0%);stroke-opacity:1;stroke-miterlimit:10;" d="M 534.289062 211.144531 C 533.980469 211.589844 533.480469 211.90625 532.941406 211.992188 C 532.40625 212.082031 531.828125 211.941406 531.386719 211.617188 C 530.949219 211.292969 530.652344 210.785156 530.578125 210.25 C 530.503906 209.714844 530.652344 209.152344 530.972656 208.734375 "/>
<path style="fill:none;stroke-width:2;stroke-linecap:butt;stroke-linejoin:miter;stroke:rgb(100%,0%,0%);stroke-opacity:1;stroke-miterlimit:10;" d="M 539.996094 236.601562 C 540.332031 236.019531 540.414062 235.304688 540.238281 234.667969 C 540.0625 234.027344 539.632812 233.46875 539.066406 233.136719 C 538.503906 232.808594 537.808594 232.707031 537.171875 232.859375 C 536.539062 233.015625 535.960938 233.421875 535.613281 233.988281 "/>
<path style="fill:none;stroke-width:2;stroke-linecap:butt;stroke-linejoin:miter;stroke:rgb(100%,0%,0%);stroke-opacity:1;stroke-miterlimit:10;" d="M 548.917969 219.855469 C 548.667969 220.367188 548.195312 220.777344 547.644531 220.953125 C 547.09375 221.132812 546.464844 221.078125 545.953125 220.804688 C 545.441406 220.535156 545.046875 220.046875 544.882812 219.496094 C 544.722656 218.945312 544.792969 218.332031 545.0625 217.839844 "/>
<path style="fill:none;stroke-width:2;stroke-linecap:butt;stroke-linejoin:miter;stroke:rgb(100%,0%,0%);stroke-opacity:1;stroke-miterlimit:10;" d="M 559.183594 245.398438 C 559.425781 244.734375 559.382812 243.980469 559.085938 243.351562 C 558.789062 242.722656 558.242188 242.21875 557.597656 241.976562 C 556.953125 241.734375 556.214844 241.753906 555.582031 242.027344 C 554.945312 242.300781 554.417969 242.828125 554.160156 243.480469 "/>
<path style="fill:none;stroke-width:2;stroke-linecap:butt;stroke-linejoin:miter;stroke:rgb(100%,0%,0%);stroke-opacity:1;stroke-miterlimit:10;" d="M 565.515625 226.558594 C 565.339844 227.128906 564.921875 227.628906 564.382812 227.902344 C 563.839844 228.175781 563.183594 228.222656 562.609375 228.027344 C 562.039062 227.828125 561.550781 227.390625 561.292969 226.847656 C 561.035156 226.304688 561.003906 225.65625 561.207031 225.105469 "/>
<path style="fill:none;stroke-width:2;stroke-linecap:butt;stroke-linejoin:miter;stroke:rgb(100%,0%,0%);stroke-opacity:1;stroke-miterlimit:10;" d="M 580.460938 250.886719 C 580.582031 250.167969 580.398438 249.410156 579.984375 248.828125 C 579.566406 248.242188 578.917969 247.832031 578.21875 247.703125 C 577.523438 247.574219 576.773438 247.726562 576.175781 248.125 C 575.582031 248.519531 575.144531 249.15625 574.996094 249.863281 "/>
<path style="fill:none;stroke-width:2;stroke-linecap:butt;stroke-linejoin:miter;stroke:rgb(100%,0%,0%);stroke-opacity:1;stroke-miterlimit:10;" d="M 583.570312 230.6875 C 583.488281 231.289062 583.144531 231.867188 582.644531 232.234375 C 582.144531 232.601562 581.484375 232.761719 580.871094 232.65625 C 580.253906 232.554688 579.683594 232.1875 579.332031 231.679688 C 578.980469 231.171875 578.84375 230.519531 578.957031 229.921875 "/>
<path style="fill:none;stroke-width:2;stroke-linecap:butt;stroke-linejoin:miter;stroke:rgb(100%,0%,0%);stroke-opacity:1;stroke-miterlimit:10;" d="M 602.808594 252.4375 C 602.796875 251.699219 602.476562 250.984375 601.957031 250.480469 C 601.4375 249.980469 600.71875 249.691406 600 249.691406 C 599.28125 249.691406 598.5625 249.980469 598.042969 250.480469 C 597.523438 250.984375 597.203125 251.699219 597.191406 252.4375 "/>
<path style="fill:none;stroke-width:2;stroke-linecap:butt;stroke-linejoin:miter;stroke:rgb(100%,0%,0%);stroke-opacity:1;stroke-miterlimit:10;" d="M 602.359375 231.84375 C 602.375 232.460938 602.132812 233.089844 601.695312 233.539062 C 601.257812 233.984375 600.628906 234.253906 600 234.253906 C 599.371094 234.253906 598.742188 233.984375 598.304688 233.539062 C 597.867188 233.089844 597.625 232.460938 597.640625 231.84375 "/>
<path style="fill:none;stroke-width:2;stroke-linecap:butt;stroke-linejoin:miter;stroke:rgb(100%,0%,0%);stroke-opacity:1;stroke-miterlimit:10;" d="M 625.003906 249.863281 C 624.855469 249.15625 624.417969 248.519531 623.824219 248.125 C 623.226562 247.726562 622.476562 247.574219 621.78125 247.703125 C 621.082031 247.832031 620.433594 248.242188 620.015625 248.828125 C 619.601562 249.410156 619.417969 250.167969 619.539062 250.886719 "/>
<path style="fill:none;stroke-width:2;stroke-linecap:butt;stroke-linejoin:miter;stroke:rgb(100%,0%,0%);stroke-opacity:1;stroke-miterlimit:10;" d="M 621.042969 229.921875 C 621.15625 230.519531 621.019531 231.171875 620.667969 231.679688 C 620.316406 232.1875 619.746094 232.554688 619.128906 232.65625 C 618.515625 232.761719 617.855469 232.601562 617.355469 232.234375 C 616.855469 231.867188 616.511719 231.289062 616.429688 230.6875 "/>
<path style="fill:none;stroke-width:2;stroke-linecap:butt;stroke-linejoin:miter;stroke:rgb(100%,0%,0%);stroke-opacity:1;stroke-miterlimit:10;" d="M 645.839844 243.480469 C 645.582031 242.828125 645.054688 242.300781 644.417969 242.027344 C 643.785156 241.753906 643.046875 241.734375 642.402344 241.976562 C 641.757812 242.21875 641.210938 242.722656 640.914062 243.351562 C 640.617188 243.980469 640.574219 244.734375 640.816406 245.398438 "/>
<path style="fill:none;stroke-width:2;stroke-linecap:butt;stroke-linejoin:miter;stroke:rgb(100%,0%,0%);stroke-opacity:1;stroke-miterlimit:10;" d="M 638.792969 225.105469 C 638.996094 225.65625 638.964844 226.304688 638.707031 226.847656 C 638.449219 227.390625 637.960938 227.828125 637.390625 228.027344 C 636.816406 228.222656 636.160156 228.175781 635.617188 227.902344 C 635.078125 227.628906 634.660156 227.128906 634.484375 226.558594 "/>
<path style="fill:none;stroke-width:2;stroke-linecap:butt;stroke-linejoin:miter;stroke:rgb(100%,0%,0%);stroke-opacity:1;stroke-miterlimit:10;" d="M 664.386719 233.988281 C 664.039062 233.421875 663.460938 233.015625 662.828125 232.859375 C 662.191406 232.707031 661.496094 232.808594 660.933594 233.136719 C 660.367188 233.46875 659.9375 234.027344 659.761719 234.667969 C 659.585938 235.304688 659.667969 236.019531 660.003906 236.601562 "/>
<path style="fill:none;stroke-width:2;stroke-linecap:butt;stroke-linejoin:miter;stroke:rgb(100%,0%,0%);stroke-opacity:1;stroke-miterlimit:10;" d="M 654.9375 217.839844 C 655.207031 218.332031 655.277344 218.945312 655.117188 219.496094 C 654.953125 220.046875 654.558594 220.535156 654.046875 220.804688 C 653.535156 221.078125 652.90625 221.132812 652.355469 220.953125 C 651.804688 220.777344 651.332031 220.367188 651.082031 219.855469 "/>
<path style="fill:none;stroke-width:2;stroke-linecap:butt;stroke-linejoin:miter;stroke:rgb(100%,0%,0%);stroke-opacity:1;stroke-miterlimit:10;" d="M 680.089844 222.316406 C 679.683594 221.847656 679.09375 221.558594 678.484375 221.511719 C 677.875 221.460938 677.25 221.660156 676.78125 222.050781 C 676.308594 222.4375 675.992188 223.019531 675.929688 223.636719 C 675.863281 224.25 676.046875 224.898438 676.445312 225.382812 "/>
<path style="fill:none;stroke-width:2;stroke-linecap:butt;stroke-linejoin:miter;stroke:rgb(100%,0%,0%);stroke-opacity:1;stroke-miterlimit:10;" d="M 669.027344 208.734375 C 669.347656 209.152344 669.496094 209.714844 669.421875 210.25 C 669.347656 210.785156 669.050781 211.292969 668.613281 211.617188 C 668.171875 211.941406 667.59375 212.082031 667.058594 211.992188 C 666.519531 211.90625 666.019531 211.589844 665.710938 211.144531 "/>
<path style="fill:none;stroke-width:2;stroke-linecap:butt;stroke-linejoin:miter;stroke:rgb(100%,0%,0%);stroke-opacity:1;stroke-miterlimit:10;" d="M 692.78125 209.402344 C 692.351562 209.03125 691.773438 208.847656 691.210938 208.886719 C 690.652344 208.925781 690.109375 209.191406 689.730469 209.609375 C 689.355469 210.03125 689.148438 210.605469 689.171875 211.175781 C 689.199219 211.746094 689.457031 212.3125 689.886719 212.699219 "/>
<path style="fill:none;stroke-width:2;stroke-linecap:butt;stroke-linejoin:miter;stroke:rgb(100%,0%,0%);stroke-opacity:1;stroke-miterlimit:10;" d="M 680.863281 198.429688 C 681.214844 198.773438 681.421875 199.273438 681.421875 199.773438 C 681.421875 200.277344 681.214844 200.78125 680.851562 201.136719 C 680.492188 201.492188 679.976562 201.699219 679.46875 201.6875 C 678.960938 201.675781 678.457031 201.453125 678.117188 201.082031 "/>
<path style="fill:none;stroke-width:2;stroke-linecap:butt;stroke-linejoin:miter;stroke:rgb(100%,0%,0%);stroke-opacity:1;stroke-miterlimit:10;" d="M 702.609375 196.054688 C 702.175781 195.773438 701.628906 195.675781 701.128906 195.78125 C 700.625 195.886719 700.164062 196.195312 699.878906 196.621094 C 699.589844 197.046875 699.472656 197.59375 699.566406 198.105469 C 699.660156 198.617188 699.964844 199.097656 700.40625 199.394531 "/>
<path style="fill:none;stroke-width:2;stroke-linecap:butt;stroke-linejoin:miter;stroke:rgb(100%,0%,0%);stroke-opacity:1;stroke-miterlimit:10;" d="M 690.460938 187.523438 C 690.820312 187.796875 691.070312 188.226562 691.128906 188.683594 C 691.191406 189.144531 691.058594 189.632812 690.773438 190 C 690.484375 190.367188 690.039062 190.617188 689.574219 190.667969 C 689.109375 190.71875 688.621094 190.574219 688.265625 190.277344 "/>
<path style="fill:none;stroke-width:2;stroke-linecap:butt;stroke-linejoin:miter;stroke:rgb(100%,0%,0%);stroke-opacity:1;stroke-miterlimit:10;" d="M 709.894531 182.882812 C 709.472656 182.679688 708.972656 182.65625 708.53125 182.804688 C 708.089844 182.957031 707.710938 183.28125 707.5 183.699219 C 707.289062 184.113281 707.246094 184.621094 707.386719 185.070312 C 707.53125 185.519531 707.859375 185.917969 708.289062 186.132812 "/>
<path style="fill:none;stroke-width:2;stroke-linecap:butt;stroke-linejoin:miter;stroke:rgb(100%,0%,0%);stroke-opacity:1;stroke-miterlimit:10;" d="M 697.980469 176.5 C 698.339844 176.714844 698.613281 177.078125 698.714844 177.488281 C 698.820312 177.898438 698.753906 178.355469 698.535156 178.71875 C 698.3125 179.085938 697.9375 179.359375 697.519531 179.457031 C 697.101562 179.554688 696.640625 179.476562 696.285156 179.246094 "/>
<path style="fill:none;stroke-width:2;stroke-linecap:butt;stroke-linejoin:miter;stroke:rgb(100%,0%,0%);stroke-opacity:1;stroke-miterlimit:10;" d="M 715.039062 170.300781 C 714.640625 170.160156 714.191406 170.1875 713.8125 170.367188 C 713.429688 170.546875 713.125 170.878906 712.976562 171.273438 C 712.828125 171.667969 712.839844 172.125 713.011719 172.515625 C 713.1875 172.90625 713.523438 173.226562 713.929688 173.375 "/>
<path style="fill:none;stroke-width:2;stroke-linecap:butt;stroke-linejoin:miter;stroke:rgb(100%,0%,0%);stroke-opacity:1;stroke-miterlimit:10;" d="M 703.675781 165.726562 C 704.023438 165.886719 704.304688 166.1875 704.4375 166.546875 C 704.574219 166.910156 704.558594 167.328125 704.394531 167.683594 C 704.230469 168.035156 703.917969 168.320312 703.550781 168.453125 C 703.179688 168.582031 702.757812 168.558594 702.410156 168.382812 "/>
<path style="fill:none;stroke-width:2;stroke-linecap:butt;stroke-linejoin:miter;stroke:rgb(100%,0%,0%);stroke-opacity:1;stroke-miterlimit:10;" d="M 718.457031 158.542969 C 718.089844 158.453125 717.6875 158.519531 717.363281 158.710938 C 717.039062 158.90625 716.792969 159.230469 716.695312 159.601562 C 716.597656 159.96875 716.652344 160.375 716.84375 160.710938 C 717.035156 161.042969 717.367188 161.300781 717.746094 161.398438 "/>
<path style="fill:none;stroke-width:2;stroke-linecap:butt;stroke-linejoin:miter;stroke:rgb(100%,0%,0%);stroke-opacity:1;stroke-miterlimit:10;" d="M 707.824219 155.445312 C 708.148438 155.554688 708.433594 155.804688 708.585938 156.117188 C 708.738281 156.429688 708.765625 156.8125 708.648438 157.144531 C 708.53125 157.480469 708.277344 157.765625 707.953125 157.917969 C 707.632812 158.070312 707.246094 158.085938 706.917969 157.960938 "/>
</g>
</svg>
