<?xml version="1.0" encoding="UTF-8"?>
<svg xmlns="http://www.w3.org/2000/svg" xmlns:xlink="http://www.w3.org/1999/xlink" width="400" height="400" viewBox="0 0 400 400">
<rect x="-40" y="-40" width="480" height="480" fill="rgb(100%, 100%, 100%)" fill-opacity="1"/>
<path fill-rule="nonzero" fill="rgb(100%, 50.196078%, 50.196078%)" fill-opacity="1" d="M 84.898438 253.082031 C 86.25 251.445312 87.59375 249.832031 88.929688 248.238281 C 90.261719 246.648438 91.585938 245.082031 92.902344 243.535156 C 94.308594 241.882812 95.703125 240.257812 97.089844 238.65625 C 98.476562 237.058594 99.851562 235.484375 101.214844 233.941406 C 102.6875 232.269531 104.148438 230.632812 105.597656 229.023438 C 107.046875 227.417969 108.484375 225.839844 109.910156 224.296875 C 111.464844 222.609375 113.011719 220.957031 114.539062 219.34375 C 116.070312 217.730469 117.585938 216.15625 119.089844 214.617188 C 120.753906 212.910156 122.40625 211.246094 124.042969 209.632812 C 125.675781 208.015625 127.296875 206.445312 128.898438 204.921875 C 130.714844 203.199219 132.511719 201.53125 134.289062 199.925781 C 136.066406 198.316406 137.824219 196.769531 139.566406 195.28125 C 141.59375 193.546875 143.59375 191.894531 145.570312 190.324219 C 147.550781 188.75 149.507812 187.257812 151.445312 185.839844 C 153.773438 184.140625 156.070312 182.554688 158.34375 181.085938 C 160.617188 179.613281 162.863281 178.257812 165.089844 177.011719 C 167.84375 175.476562 170.5625 174.113281 173.253906 172.925781 C 175.945312 171.738281 178.613281 170.726562 181.257812 169.890625 C 184.417969 168.890625 187.550781 168.140625 190.671875 167.640625 C 193.789062 167.140625 196.894531 166.890625 200 166.890625 C 203.105469 166.890625 206.210938 167.140625 209.328125 167.640625 C 212.449219 168.140625 215.582031 168.890625 218.742188 169.890625 C 221.386719 170.726562 224.054688 171.738281 226.746094 172.925781 C 229.4375 174.113281 232.15625 175.476562 234.910156 177.011719 C 237.136719 178.257812 239.382812 179.613281 241.65625 181.085938 C 243.929688 182.554688 246.226562 184.140625 248.554688 185.839844 C 250.492188 187.257812 252.449219 188.75 254.429688 190.324219 C 256.40625 191.894531 258.40625 193.546875 260.433594 195.28125 C 262.175781 196.769531 263.933594 198.316406 265.710938 199.925781 C 267.488281 201.53125 269.285156 203.199219 271.101562 204.921875 C 272.703125 206.445312 274.324219 208.015625 275.957031 209.632812 C 277.59375 211.246094 279.246094 212.910156 280.910156 214.617188 C 282.414062 216.15625 283.929688 217.730469 285.460938 219.34375 C 286.988281 220.957031 288.535156 222.609375 290.089844 224.296875 C 291.515625 225.839844 292.953125 227.417969 294.402344 229.023438 C 295.851562 230.632812 297.3125 232.269531 298.785156 233.941406 C 300.148438 235.484375 301.523438 237.058594 302.910156 238.65625 C 304.296875 240.257812 305.691406 241.882812 307.097656 243.535156 C 308.414062 245.082031 309.738281 246.648438 311.070312 248.238281 C 312.40625 249.832031 313.75 251.445312 315.101562 253.082031 C 315.164062 249.9375 315.191406 246.722656 315.191406 243.4375 C 315.1875 240.148438 315.160156 236.789062 315.097656 233.359375 C 313.746094 231.722656 312.402344 230.105469 311.070312 228.515625 C 309.734375 226.925781 308.410156 225.355469 307.097656 223.8125 C 305.691406 222.160156 304.292969 220.53125 302.910156 218.933594 C 301.523438 217.335938 300.148438 215.761719 298.785156 214.214844 C 297.3125 212.546875 295.851562 210.90625 294.402344 209.300781 C 292.953125 207.695312 291.515625 206.117188 290.089844 204.574219 C 288.53125 202.882812 286.988281 201.234375 285.460938 199.621094 C 283.929688 198.007812 282.414062 196.429688 280.910156 194.890625 C 279.246094 193.183594 277.59375 191.523438 275.957031 189.90625 C 274.324219 188.292969 272.703125 186.722656 271.101562 185.199219 C 269.285156 183.472656 267.488281 181.808594 265.710938 180.199219 C 263.933594 178.59375 262.175781 177.042969 260.433594 175.554688 C 258.410156 173.824219 256.410156 172.171875 254.429688 170.597656 C 252.449219 169.023438 250.496094 167.53125 248.558594 166.117188 C 246.230469 164.417969 243.929688 162.832031 241.660156 161.359375 C 239.386719 159.886719 237.136719 158.53125 234.914062 157.289062 C 232.160156 155.75 229.441406 154.390625 226.75 153.203125 C 224.054688 152.015625 221.390625 151.003906 218.746094 150.164062 C 215.582031 149.167969 212.449219 148.417969 209.332031 147.917969 C 206.210938 147.417969 203.105469 147.167969 200 147.167969 C 196.894531 147.167969 193.789062 147.417969 190.667969 147.917969 C 187.550781 148.417969 184.417969 149.167969 181.253906 150.164062 C 178.609375 151.003906 175.945312 152.015625 173.25 153.203125 C 170.558594 154.390625 167.839844 155.75 165.085938 157.289062 C 162.863281 158.53125 160.613281 159.886719 158.339844 161.359375 C 156.070312 162.832031 153.769531 164.417969 151.441406 166.117188 C 149.503906 167.53125 147.550781 169.023438 145.570312 170.597656 C 143.589844 172.171875 141.589844 173.824219 139.566406 175.554688 C 137.824219 177.042969 136.066406 178.59375 134.289062 180.199219 C 132.511719 181.808594 130.714844 183.472656 128.898438 185.199219 C 127.296875 186.722656 125.675781 188.292969 124.042969 189.90625 C 122.40625 191.523438 120.753906 193.183594 119.089844 194.890625 C 117.585938 196.429688 116.070312 198.007812 114.539062 199.621094 C 113.011719 201.234375 111.46875 202.882812 109.910156 204.574219 C 108.484375 206.117188 107.046875 207.695312 105.597656 209.300781 C 104.148438 210.90625 102.6875 212.546875 101.214844 214.214844 C 99.851562 215.761719 98.476562 217.335938 97.089844 218.933594 C 95.707031 220.53125 94.308594 222.160156 92.902344 223.8125 C 91.589844 225.355469 90.265625 226.925781 88.929688 228.515625 C 87.597656 230.105469 86.253906 231.722656 84.902344 233.359375 C 84.839844 236.789062 84.8125 240.148438 84.808594 243.4375 C 84.808594 246.722656 84.835938 249.9375 84.898438 253.082031 "/>
<path fill="none" stroke-width="1" stroke-linecap="butt" stroke-linejoin="miter" stroke="rgb(100%, 0%, 0%)" stroke-opacity="1" stroke-miterlimit="10" d="M 84.898438 253.082031 C 84.835938 249.9375 84.808594 246.722656 84.808594 243.4375 C 84.8125 240.148438 84.839844 236.789062 84.902344 233.359375 "/>
<path fill="none" stroke-width="1" stroke-linecap="butt" stroke-linejoin="miter" stroke="rgb(100%, 0%, 0%)" stroke-opacity="1" stroke-miterlimit="10" d="M 98.785156 236.707031 C 98.726562 233.5625 98.699219 230.347656 98.699219 227.0625 C 98.703125 223.773438 98.730469 220.414062 98.785156 216.984375 "/>
<path fill="none" stroke-width="1" stroke-linecap="butt" stroke-linejoin="miter" stroke="rgb(100%, 0%, 0%)" stroke-opacity="1" stroke-miterlimit="10" d="M 111.988281 222.058594 C 111.933594 218.914062 111.90625 215.699219 111.910156 212.410156 C 111.910156 209.121094 111.9375 205.765625 111.988281 202.332031 "/>
<path fill="none" stroke-width="1" stroke-linecap="butt" stroke-linejoin="miter" stroke="rgb(100%, 0%, 0%)" stroke-opacity="1" stroke-miterlimit="10" d="M 124.550781 209.128906 C 124.5 205.984375 124.476562 202.769531 124.476562 199.484375 C 124.476562 196.195312 124.503906 192.835938 124.550781 189.40625 "/>
<path fill="none" stroke-width="1" stroke-linecap="butt" stroke-linejoin="miter" stroke="rgb(100%, 0%, 0%)" stroke-opacity="1" stroke-miterlimit="10" d="M 136.527344 197.925781 C 136.480469 194.78125 136.460938 191.566406 136.460938 188.277344 C 136.460938 184.992188 136.484375 181.632812 136.523438 178.199219 "/>
<path fill="none" stroke-width="1" stroke-linecap="butt" stroke-linejoin="miter" stroke="rgb(100%, 0%, 0%)" stroke-opacity="1" stroke-miterlimit="10" d="M 147.972656 188.445312 C 147.933594 185.300781 147.914062 182.085938 147.914062 178.796875 C 147.917969 175.507812 147.9375 172.152344 147.972656 168.71875 "/>
<path fill="none" stroke-width="1" stroke-linecap="butt" stroke-linejoin="miter" stroke="rgb(100%, 0%, 0%)" stroke-opacity="1" stroke-miterlimit="10" d="M 158.960938 180.6875 C 158.929688 177.542969 158.914062 174.328125 158.914062 171.039062 C 158.914062 167.75 158.929688 164.394531 158.960938 160.960938 "/>
<path fill="none" stroke-width="1" stroke-linecap="butt" stroke-linejoin="miter" stroke="rgb(100%, 0%, 0%)" stroke-opacity="1" stroke-miterlimit="10" d="M 169.570312 174.652344 C 169.542969 171.507812 169.53125 168.292969 169.53125 165.003906 C 169.53125 161.71875 169.546875 158.359375 169.566406 154.925781 "/>
<path fill="none" stroke-width="1" stroke-linecap="butt" stroke-linejoin="miter" stroke="rgb(100%, 0%, 0%)" stroke-opacity="1" stroke-miterlimit="10" d="M 179.882812 170.339844 C 179.863281 167.195312 179.855469 163.980469 179.855469 160.695312 C 179.855469 157.40625 179.863281 154.046875 179.878906 150.617188 "/>
<path fill="none" stroke-width="1" stroke-linecap="butt" stroke-linejoin="miter" stroke="rgb(100%, 0%, 0%)" stroke-opacity="1" stroke-miterlimit="10" d="M 189.992188 167.753906 C 189.980469 164.609375 189.980469 161.394531 189.980469 158.109375 C 189.980469 154.820312 189.984375 151.460938 189.992188 148.03125 "/>
<path fill="none" stroke-width="1" stroke-linecap="butt" stroke-linejoin="miter" stroke="rgb(100%, 0%, 0%)" stroke-opacity="1" stroke-miterlimit="10" d="M 200 166.890625 C 200 163.746094 200 160.53125 200 157.246094 C 200 153.957031 200 150.597656 200 147.167969 "/>
<path fill="none" stroke-width="1" stroke-linecap="butt" stroke-linejoin="miter" stroke="rgb(100%, 0%, 0%)" stroke-opacity="1" stroke-miterlimit="10" d="M 210.007812 167.753906 C 210.019531 164.609375 210.019531 161.394531 210.019531 158.109375 C 210.019531 154.820312 210.015625 151.460938 210.007812 148.03125 "/>
<path fill="none" stroke-width="1" stroke-linecap="butt" stroke-linejoin="miter" stroke="rgb(100%, 0%, 0%)" stroke-opacity="1" stroke-miterlimit="10" d="M 220.117188 170.339844 C 220.136719 167.195312 220.144531 163.980469 220.144531 160.695312 C 220.144531 157.40625 220.136719 154.046875 220.121094 150.617188 "/>
<path fill="none" stroke-width="1" stroke-linecap="butt" stroke-linejoin="miter" stroke="rgb(100%, 0%, 0%)" stroke-opacity="1" stroke-miterlimit="10" d="M 230.429688 174.652344 C 230.457031 171.507812 230.46875 168.292969 230.46875 165.003906 C 230.46875 161.71875 230.453125 158.359375 230.433594 154.925781 "/>
<path fill="none" stroke-width="1" stroke-linecap="butt" stroke-linejoin="miter" stroke="rgb(100%, 0%, 0%)" stroke-opacity="1" stroke-miterlimit="10" d="M 241.039062 180.6875 C 241.070312 177.542969 241.085938 174.328125 241.085938 171.039062 C 241.085938 167.75 241.070312 164.394531 241.039062 160.960938 "/>
<path fill="none" stroke-width="1" stroke-linecap="butt" stroke-linejoin="miter" stroke="rgb(100%, 0%, 0%)" stroke-opacity="1" stroke-miterlimit="10" d="M 252.027344 188.445312 C 252.066406 185.300781 252.085938 182.085938 252.085938 178.796875 C 252.082031 175.507812 252.0625 172.152344 252.027344 168.71875 "/>
<path fill="none" stroke-width="1" stroke-linecap="butt" stroke-linejoin="miter" stroke="rgb(100%, 0%, 0%)" stroke-opacity="1" stroke-miterlimit="10" d="M 263.472656 197.925781 C 263.519531 194.78125 263.539062 191.566406 263.539062 188.277344 C 263.539062 184.992188 263.515625 181.632812 263.476562 178.199219 "/>
<path fill="none" stroke-width="1" stroke-linecap="butt" stroke-linejoin="miter" stroke="rgb(100%, 0%, 0%)" stroke-opacity="1" stroke-miterlimit="10" d="M 275.449219 209.128906 C 275.5 205.984375 275.523438 202.769531 275.523438 199.484375 C 275.523438 196.195312 275.496094 192.835938 275.449219 189.40625 "/>
<path fill="none" stroke-width="1" stroke-linecap="butt" stroke-linejoin="miter" stroke="rgb(100%, 0%, 0%)" stroke-opacity="1" stroke-miterlimit="10" d="M 288.011719 222.058594 C 288.066406 218.914062 288.09375 215.699219 288.089844 212.410156 C 288.089844 209.121094 288.0625 205.765625 288.011719 202.332031 "/>
<path fill="none" stroke-width="1" stroke-linecap="butt" stroke-linejoin="miter" stroke="rgb(100%, 0%, 0%)" stroke-opacity="1" stroke-miterlimit="10" d="M 301.214844 236.707031 C 301.273438 233.5625 301.300781 230.347656 301.300781 227.0625 C 301.296875 223.773438 301.269531 220.414062 301.214844 216.984375 "/>
<path fill="none" stroke-width="1" stroke-linecap="butt" stroke-linejoin="miter" stroke="rgb(100%, 0%, 0%)" stroke-opacity="1" stroke-miterlimit="10" d="M 315.101562 253.082031 C 315.164062 249.9375 315.191406 246.722656 315.191406 243.4375 C 315.1875 240.148438 315.160156 236.789062 315.097656 233.359375 "/>
<path fill="none" stroke-width="1" stroke-linecap="butt" stroke-linejoin="miter" stroke="rgb(100%, 0%, 0%)" stroke-opacity="1" stroke-miterlimit="10" d="M 84.898438 253.082031 C 86.25 251.445312 87.59375 249.832031 88.929688 248.238281 C 90.261719 246.648438 91.585938 245.082031 92.902344 243.535156 C 94.308594 241.882812 95.703125 240.257812 97.089844 238.65625 C 98.476562 237.058594 99.851562 235.484375 101.214844 233.941406 C 102.6875 232.269531 104.148438 230.632812 105.597656 229.023438 C 107.046875 227.417969 108.484375 225.839844 109.910156 224.296875 C 111.464844 222.609375 113.011719 220.957031 114.539062 219.34375 C 116.070312 217.730469 117.585938 216.15625 119.089844 214.617188 C 120.753906 212.910156 122.40625 211.246094 124.042969 209.632812 C 125.675781 208.015625 127.296875 206.445312 128.898438 204.921875 C 130.714844 203.199219 132.511719 201.53125 134.289062 199.925781 C 136.066406 198.316406 137.824219 196.769531 139.566406 195.28125 C 141.59375 193.546875 143.59375 191.894531 145.570312 190.324219 C 147.550781 188.75 149.507812 187.257812 151.445312 185.839844 C 153.773438 184.140625 156.070312 182.554688 158.34375 181.085938 C 160.617188 179.613281 162.863281 178.257812 165.089844 177.011719 C 167.84375 175.476562 170.5625 174.113281 173.253906 172.925781 C 175.945312 171.738281 178.613281 170.726562 181.257812 169.890625 C 184.417969 168.890625 187.550781 168.140625 190.671875 167.640625 C 193.789062 167.140625 196.894531 166.890625 200 166.890625 C 203.105469 166.890625 206.210938 167.140625 209.328125 167.640625 C 212.449219 168.140625 215.582031 168.890625 218.742188 169.890625 C 221.386719 170.726562 224.054688 171.738281 226.746094 172.925781 C 229.4375 174.113281 232.15625 175.476562 234.910156 177.011719 C 237.136719 178.257812 239.382812 179.613281 241.65625 181.085938 C 243.929688 182.554688 246.226562 184.140625 248.554688 185.839844 C 250.492188 187.257812 252.449219 188.75 254.429688 190.324219 C 256.40625 191.894531 258.40625 193.546875 260.433594 195.28125 C 262.175781 196.769531 263.933594 198.316406 265.710938 199.925781 C 267.488281 201.53125 269.285156 203.199219 271.101562 204.921875 C 272.703125 206.445312 274.324219 208.015625 275.957031 209.632812 C 277.59375 211.246094 279.246094 212.910156 280.910156 214.617188 C 282.414062 216.15625 283.929688 217.730469 285.460938 219.34375 C 286.988281 220.957031 288.535156 222.609375 290.089844 224.296875 C 291.515625 225.839844 292.953125 227.417969 294.402344 229.023438 C 295.851562 230.632812 297.3125 232.269531 298.785156 233.941406 C 300.148438 235.484375 301.523438 237.058594 302.910156 238.65625 C 304.296875 240.257812 305.691406 241.882812 307.097656 243.535156 C 308.414062 245.082031 309.738281 246.648438 311.070312 248.238281 C 312.40625 249.832031 313.75 251.445312 315.101562 253.082031 "/>
<path fill="none" stroke-width="1" stroke-linecap="butt" stroke-linejoin="miter" stroke="rgb(100%, 0%, 0%)" stroke-opacity="1" stroke-miterlimit="10" d="M 84.902344 233.359375 C 86.253906 231.722656 87.597656 230.105469 88.929688 228.515625 C 90.265625 226.925781 91.589844 225.355469 92.902344 223.8125 C 94.308594 222.160156 95.707031 220.53125 97.089844 218.933594 C 98.476562 217.335938 99.851562 215.761719 101.214844 214.214844 C 102.6875 212.546875 104.148438 210.90625 105.597656 209.300781 C 107.046875 207.695312 108.484375 206.117188 109.910156 204.574219 C 111.46875 202.882812 113.011719 201.234375 114.539062 199.621094 C 116.070312 198.007812 117.585938 196.429688 119.089844 194.890625 C 120.753906 193.183594 122.40625 191.523438 124.042969 189.90625 C 125.675781 188.292969 127.296875 186.722656 128.898438 185.199219 C 130.714844 183.472656 132.511719 181.808594 134.289062 180.199219 C 136.066406 178.59375 137.824219 177.042969 139.566406 175.554688 C 141.589844 173.824219 143.589844 172.171875 145.570312 170.597656 C 147.550781 169.023438 149.503906 167.53125 151.441406 166.117188 C 153.769531 164.417969 156.070312 162.832031 158.339844 161.359375 C 160.613281 159.886719 162.863281 158.53125 165.085938 157.289062 C 167.839844 155.75 170.558594 154.390625 173.25 153.203125 C 175.945312 152.015625 178.609375 151.003906 181.253906 150.164062 C 184.417969 149.167969 187.550781 148.417969 190.667969 147.917969 C 193.789062 147.417969 196.894531 147.167969 200 147.167969 C 203.105469 147.167969 206.210938 147.417969 209.332031 147.917969 C 212.449219 148.417969 215.582031 149.167969 218.746094 150.164062 C 221.390625 151.003906 224.054688 152.015625 226.75 153.203125 C 229.441406 154.390625 232.160156 155.75 234.914062 157.289062 C 237.136719 158.53125 239.386719 159.886719 241.660156 161.359375 C 243.929688 162.832031 246.230469 164.417969 248.558594 166.117188 C 250.496094 167.53125 252.449219 169.023438 254.429688 170.597656 C 256.410156 172.171875 258.410156 173.824219 260.433594 175.554688 C 262.175781 177.042969 263.933594 178.59375 265.710938 180.199219 C 267.488281 181.808594 269.285156 183.472656 271.101562 185.199219 C 272.703125 186.722656 274.324219 188.292969 275.957031 189.90625 C 277.59375 191.523438 279.246094 193.183594 280.910156 194.890625 C 282.414062 196.429688 283.929688 198.007812 285.460938 199.621094 C 286.988281 201.234375 288.53125 202.882812 290.089844 204.574219 C 291.515625 206.117188 292.953125 207.695312 294.402344 209.300781 C 295.851562 210.90625 297.3125 212.546875 298.785156 214.214844 C 300.148438 215.761719 301.523438 217.335938 302.910156 218.933594 C 304.292969 220.53125 305.691406 222.160156 307.097656 223.8125 C 308.410156 225.355469 309.734375 226.925781 311.070312 228.515625 C 312.402344 230.105469 313.746094 231.722656 315.097656 233.359375 "/>
</svg>
