<?xml version="1.0" encoding="UTF-8"?>
<svg xmlns="http://www.w3.org/2000/svg" xmlns:xlink="http://www.w3.org/1999/xlink" width="400" height="400" viewBox="0 0 400 400">
<rect x="-40" y="-40" width="480" height="480" fill="rgb(100%, 100%, 100%)" fill-opacity="1"/>
<path fill-rule="nonzero" fill="rgb(100%, 50.196078%, 50.196078%)" fill-opacity="1" d="M 70.585938 240.222656 C 72.015625 239.15625 73.429688 238.105469 74.835938 237.0625 C 76.238281 236.023438 77.632812 234.996094 79.015625 233.980469 C 80.460938 232.914062 81.894531 231.867188 83.316406 230.832031 C 84.738281 229.796875 86.148438 228.773438 87.542969 227.765625 C 89.011719 226.707031 90.464844 225.664062 91.90625 224.632812 C 93.347656 223.605469 94.777344 222.59375 96.191406 221.59375 C 97.6875 220.539062 99.167969 219.5 100.632812 218.480469 C 102.097656 217.460938 103.546875 216.457031 104.980469 215.472656 C 106.507812 214.425781 108.019531 213.394531 109.511719 212.386719 C 111.007812 211.378906 112.484375 210.386719 113.945312 209.417969 C 115.511719 208.378906 117.058594 207.363281 118.585938 206.367188 C 120.113281 205.375 121.625 204.402344 123.117188 203.453125 C 124.730469 202.425781 126.324219 201.425781 127.898438 200.453125 C 129.46875 199.480469 131.023438 198.53125 132.554688 197.613281 C 134.230469 196.605469 135.882812 195.632812 137.507812 194.6875 C 139.136719 193.746094 140.746094 192.832031 142.328125 191.953125 C 144.082031 190.976562 145.804688 190.042969 147.507812 189.144531 C 149.207031 188.246094 150.882812 187.386719 152.535156 186.566406 C 154.386719 185.648438 156.210938 184.773438 158.003906 183.949219 C 159.796875 183.125 161.566406 182.351562 163.308594 181.621094 C 165.28125 180.796875 167.222656 180.035156 169.136719 179.332031 C 171.050781 178.628906 172.9375 177.988281 174.796875 177.410156 C 176.898438 176.757812 178.96875 176.183594 181.015625 175.6875 C 183.0625 175.191406 185.085938 174.773438 187.09375 174.433594 C 189.269531 174.0625 191.429688 173.785156 193.578125 173.601562 C 195.722656 173.417969 197.863281 173.324219 200 173.324219 C 202.136719 173.324219 204.277344 173.417969 206.421875 173.601562 C 208.570312 173.785156 210.730469 174.0625 212.90625 174.433594 C 214.914062 174.773438 216.9375 175.191406 218.984375 175.6875 C 221.03125 176.183594 223.101562 176.757812 225.203125 177.410156 C 227.0625 177.988281 228.949219 178.628906 230.863281 179.332031 C 232.777344 180.035156 234.71875 180.796875 236.691406 181.621094 C 238.433594 182.351562 240.203125 183.125 241.996094 183.949219 C 243.789062 184.773438 245.613281 185.648438 247.464844 186.566406 C 249.117188 187.386719 250.792969 188.246094 252.492188 189.144531 C 254.195312 190.042969 255.917969 190.976562 257.671875 191.953125 C 259.253906 192.832031 260.863281 193.746094 262.492188 194.6875 C 264.117188 195.632812 265.769531 196.605469 267.445312 197.613281 C 268.976562 198.53125 270.53125 199.480469 272.101562 200.453125 C 273.675781 201.425781 275.269531 202.425781 276.882812 203.453125 C 278.375 204.402344 279.886719 205.375 281.414062 206.367188 C 282.941406 207.363281 284.488281 208.378906 286.054688 209.417969 C 287.515625 210.386719 288.992188 211.378906 290.488281 212.386719 C 291.980469 213.394531 293.492188 214.425781 295.019531 215.472656 C 296.453125 216.457031 297.902344 217.460938 299.367188 218.480469 C 300.832031 219.5 302.3125 220.539062 303.808594 221.59375 C 305.222656 222.59375 306.652344 223.605469 308.09375 224.632812 C 309.535156 225.664062 310.988281 226.707031 312.457031 227.765625 C 313.851562 228.773438 315.261719 229.796875 316.683594 230.832031 C 318.105469 231.867188 319.539062 232.914062 320.984375 233.980469 C 322.367188 234.996094 323.761719 236.023438 325.164062 237.0625 C 326.570312 238.105469 327.984375 239.15625 329.414062 240.222656 C 329.515625 238.089844 329.566406 235.90625 329.566406 233.664062 C 329.566406 231.421875 329.515625 229.121094 329.414062 226.769531 C 327.984375 225.703125 326.570312 224.648438 325.164062 223.605469 C 323.761719 222.566406 322.367188 221.539062 320.984375 220.523438 C 319.539062 219.460938 318.105469 218.410156 316.683594 217.375 C 315.261719 216.339844 313.855469 215.316406 312.457031 214.3125 C 310.988281 213.25 309.535156 212.207031 308.09375 211.179688 C 306.652344 210.148438 305.222656 209.136719 303.808594 208.136719 C 302.3125 207.082031 300.835938 206.046875 299.371094 205.023438 C 297.90625 204.003906 296.453125 203 295.019531 202.015625 C 293.492188 200.96875 291.984375 199.9375 290.488281 198.929688 C 288.996094 197.921875 287.519531 196.929688 286.058594 195.960938 C 284.492188 194.921875 282.945312 193.90625 281.414062 192.910156 C 279.886719 191.917969 278.375 190.945312 276.882812 189.996094 C 275.269531 188.96875 273.675781 187.96875 272.105469 186.996094 C 270.53125 186.023438 268.980469 185.074219 267.445312 184.152344 C 265.773438 183.148438 264.121094 182.171875 262.492188 181.230469 C 260.863281 180.285156 259.257812 179.375 257.675781 178.492188 C 255.921875 177.519531 254.195312 176.585938 252.496094 175.6875 C 250.796875 174.789062 249.121094 173.929688 247.46875 173.109375 C 245.617188 172.1875 243.792969 171.316406 242 170.492188 C 240.207031 169.667969 238.4375 168.890625 236.695312 168.164062 C 234.722656 167.339844 232.78125 166.574219 230.867188 165.871094 C 228.953125 165.171875 227.066406 164.53125 225.207031 163.953125 C 223.105469 163.296875 221.035156 162.722656 218.988281 162.226562 C 216.941406 161.730469 214.917969 161.3125 212.910156 160.972656 C 210.730469 160.601562 208.574219 160.328125 206.425781 160.140625 C 204.277344 159.957031 202.136719 159.867188 200 159.867188 C 197.863281 159.867188 195.722656 159.957031 193.574219 160.140625 C 191.425781 160.328125 189.269531 160.601562 187.089844 160.972656 C 185.082031 161.3125 183.058594 161.730469 181.011719 162.226562 C 178.964844 162.722656 176.894531 163.296875 174.792969 163.953125 C 172.933594 164.53125 171.046875 165.171875 169.132812 165.871094 C 167.21875 166.574219 165.277344 167.339844 163.304688 168.164062 C 161.5625 168.890625 159.792969 169.667969 158 170.492188 C 156.207031 171.316406 154.382812 172.1875 152.53125 173.109375 C 150.878906 173.929688 149.203125 174.789062 147.503906 175.6875 C 145.804688 176.585938 144.078125 177.519531 142.324219 178.492188 C 140.742188 179.375 139.136719 180.285156 137.507812 181.230469 C 135.878906 182.171875 134.226562 183.148438 132.554688 184.152344 C 131.019531 185.074219 129.46875 186.023438 127.894531 186.996094 C 126.324219 187.96875 124.730469 188.96875 123.117188 189.996094 C 121.625 190.945312 120.113281 191.917969 118.585938 192.910156 C 117.054688 193.90625 115.507812 194.921875 113.941406 195.960938 C 112.480469 196.929688 111.003906 197.921875 109.511719 198.929688 C 108.015625 199.9375 106.507812 200.96875 104.980469 202.015625 C 103.546875 203 102.09375 204.003906 100.628906 205.023438 C 99.164062 206.046875 97.6875 207.082031 96.191406 208.136719 C 94.777344 209.136719 93.347656 210.148438 91.90625 211.179688 C 90.464844 212.207031 89.011719 213.25 87.542969 214.3125 C 86.144531 215.316406 84.738281 216.339844 83.316406 217.375 C 81.894531 218.410156 80.460938 219.460938 79.015625 220.523438 C 77.632812 221.539062 76.238281 222.566406 74.835938 223.605469 C 73.429688 224.648438 72.015625 225.703125 70.585938 226.769531 C 70.484375 229.121094 70.433594 231.421875 70.433594 233.664062 C 70.433594 235.90625 70.484375 238.089844 70.585938 240.222656 "/>
<path fill="none" stroke-width="1" stroke-linecap="butt" stroke-linejoin="miter" stroke="rgb(100%, 0%, 0%)" stroke-opacity="1" stroke-miterlimit="10" d="M 70.585938 240.222656 C 70.484375 238.089844 70.433594 235.90625 70.433594 233.664062 C 70.433594 231.421875 70.484375 229.121094 70.585938 226.769531 "/>
<path fill="none" stroke-width="1" stroke-linecap="butt" stroke-linejoin="miter" stroke="rgb(100%, 0%, 0%)" stroke-opacity="1" stroke-miterlimit="10" d="M 87.890625 227.515625 C 87.792969 225.382812 87.742188 223.195312 87.742188 220.953125 C 87.742188 218.710938 87.792969 216.414062 87.890625 214.058594 "/>
<path fill="none" stroke-width="1" stroke-linecap="butt" stroke-linejoin="miter" stroke="rgb(100%, 0%, 0%)" stroke-opacity="1" stroke-miterlimit="10" d="M 104.003906 216.144531 C 103.910156 214.011719 103.863281 211.824219 103.863281 209.582031 C 103.863281 207.339844 103.910156 205.042969 104.003906 202.6875 "/>
<path fill="none" stroke-width="1" stroke-linecap="butt" stroke-linejoin="miter" stroke="rgb(100%, 0%, 0%)" stroke-opacity="1" stroke-miterlimit="10" d="M 118.980469 206.113281 C 118.890625 203.980469 118.84375 201.792969 118.84375 199.550781 C 118.84375 197.308594 118.890625 195.007812 118.976562 192.65625 "/>
<path fill="none" stroke-width="1" stroke-linecap="butt" stroke-linejoin="miter" stroke="rgb(100%, 0%, 0%)" stroke-opacity="1" stroke-miterlimit="10" d="M 132.882812 197.414062 C 132.796875 195.28125 132.757812 193.097656 132.757812 190.855469 C 132.757812 188.613281 132.800781 186.3125 132.878906 183.957031 "/>
<path fill="none" stroke-width="1" stroke-linecap="butt" stroke-linejoin="miter" stroke="rgb(100%, 0%, 0%)" stroke-opacity="1" stroke-miterlimit="10" d="M 145.796875 190.054688 C 145.71875 187.921875 145.683594 185.738281 145.683594 183.496094 C 145.683594 181.253906 145.722656 178.953125 145.792969 176.597656 "/>
<path fill="none" stroke-width="1" stroke-linecap="butt" stroke-linejoin="miter" stroke="rgb(100%, 0%, 0%)" stroke-opacity="1" stroke-miterlimit="10" d="M 157.820312 184.035156 C 157.753906 181.902344 157.722656 179.714844 157.722656 177.472656 C 157.726562 175.230469 157.757812 172.933594 157.816406 170.578125 "/>
<path fill="none" stroke-width="1" stroke-linecap="butt" stroke-linejoin="miter" stroke="rgb(100%, 0%, 0%)" stroke-opacity="1" stroke-miterlimit="10" d="M 169.085938 179.351562 C 169.03125 177.214844 169.007812 175.03125 169.007812 172.789062 C 169.011719 170.546875 169.035156 168.25 169.082031 165.890625 "/>
<path fill="none" stroke-width="1" stroke-linecap="butt" stroke-linejoin="miter" stroke="rgb(100%, 0%, 0%)" stroke-opacity="1" stroke-miterlimit="10" d="M 179.746094 176.003906 C 179.707031 173.871094 179.691406 171.683594 179.691406 169.441406 C 179.691406 167.199219 179.710938 164.902344 179.742188 162.542969 "/>
<path fill="none" stroke-width="1" stroke-linecap="butt" stroke-linejoin="miter" stroke="rgb(100%, 0%, 0%)" stroke-opacity="1" stroke-miterlimit="10" d="M 189.984375 173.996094 C 189.960938 171.859375 189.953125 169.675781 189.953125 167.433594 C 189.953125 165.191406 189.964844 162.894531 189.980469 160.535156 "/>
<path fill="none" stroke-width="1" stroke-linecap="butt" stroke-linejoin="miter" stroke="rgb(100%, 0%, 0%)" stroke-opacity="1" stroke-miterlimit="10" d="M 200 173.324219 C 200 171.191406 200 169.003906 200 166.761719 C 200 164.519531 200 162.222656 200 159.867188 "/>
<path fill="none" stroke-width="1" stroke-linecap="butt" stroke-linejoin="miter" stroke="rgb(100%, 0%, 0%)" stroke-opacity="1" stroke-miterlimit="10" d="M 210.015625 173.996094 C 210.039062 171.859375 210.046875 169.675781 210.046875 167.433594 C 210.046875 165.191406 210.035156 162.894531 210.019531 160.535156 "/>
<path fill="none" stroke-width="1" stroke-linecap="butt" stroke-linejoin="miter" stroke="rgb(100%, 0%, 0%)" stroke-opacity="1" stroke-miterlimit="10" d="M 220.253906 176.003906 C 220.292969 173.871094 220.308594 171.683594 220.308594 169.441406 C 220.308594 167.199219 220.289062 164.902344 220.257812 162.542969 "/>
<path fill="none" stroke-width="1" stroke-linecap="butt" stroke-linejoin="miter" stroke="rgb(100%, 0%, 0%)" stroke-opacity="1" stroke-miterlimit="10" d="M 230.914062 179.351562 C 230.96875 177.214844 230.992188 175.03125 230.992188 172.789062 C 230.988281 170.546875 230.964844 168.25 230.917969 165.890625 "/>
<path fill="none" stroke-width="1" stroke-linecap="butt" stroke-linejoin="miter" stroke="rgb(100%, 0%, 0%)" stroke-opacity="1" stroke-miterlimit="10" d="M 242.179688 184.035156 C 242.246094 181.902344 242.277344 179.714844 242.277344 177.472656 C 242.273438 175.230469 242.242188 172.933594 242.183594 170.578125 "/>
<path fill="none" stroke-width="1" stroke-linecap="butt" stroke-linejoin="miter" stroke="rgb(100%, 0%, 0%)" stroke-opacity="1" stroke-miterlimit="10" d="M 254.203125 190.054688 C 254.28125 187.921875 254.316406 185.738281 254.316406 183.496094 C 254.316406 181.253906 254.277344 178.953125 254.207031 176.597656 "/>
<path fill="none" stroke-width="1" stroke-linecap="butt" stroke-linejoin="miter" stroke="rgb(100%, 0%, 0%)" stroke-opacity="1" stroke-miterlimit="10" d="M 267.117188 197.414062 C 267.203125 195.28125 267.242188 193.097656 267.242188 190.855469 C 267.242188 188.613281 267.199219 186.3125 267.121094 183.957031 "/>
<path fill="none" stroke-width="1" stroke-linecap="butt" stroke-linejoin="miter" stroke="rgb(100%, 0%, 0%)" stroke-opacity="1" stroke-miterlimit="10" d="M 281.019531 206.113281 C 281.109375 203.980469 281.15625 201.792969 281.15625 199.550781 C 281.15625 197.308594 281.109375 195.007812 281.023438 192.65625 "/>
<path fill="none" stroke-width="1" stroke-linecap="butt" stroke-linejoin="miter" stroke="rgb(100%, 0%, 0%)" stroke-opacity="1" stroke-miterlimit="10" d="M 295.996094 216.144531 C 296.089844 214.011719 296.136719 211.824219 296.136719 209.582031 C 296.136719 207.339844 296.089844 205.042969 295.996094 202.6875 "/>
<path fill="none" stroke-width="1" stroke-linecap="butt" stroke-linejoin="miter" stroke="rgb(100%, 0%, 0%)" stroke-opacity="1" stroke-miterlimit="10" d="M 312.109375 227.515625 C 312.207031 225.382812 312.257812 223.195312 312.257812 220.953125 C 312.257812 218.710938 312.207031 216.414062 312.109375 214.058594 "/>
<path fill="none" stroke-width="1" stroke-linecap="butt" stroke-linejoin="miter" stroke="rgb(100%, 0%, 0%)" stroke-opacity="1" stroke-miterlimit="10" d="M 329.414062 240.222656 C 329.515625 238.089844 329.566406 235.90625 329.566406 233.664062 C 329.566406 231.421875 329.515625 229.121094 329.414062 226.769531 "/>
<path fill="none" stroke-width="1" stroke-linecap="butt" stroke-linejoin="miter" stroke="rgb(100%, 0%, 0%)" stroke-opacity="1" stroke-miterlimit="10" d="M 70.585938 240.222656 C 72.015625 239.15625 73.429688 238.105469 74.835938 237.0625 C 76.238281 236.023438 77.632812 234.996094 79.015625 233.980469 C 80.460938 232.914062 81.894531 231.867188 83.316406 230.832031 C 84.738281 229.796875 86.148438 228.773438 87.542969 227.765625 C 89.011719 226.707031 90.464844 225.664062 91.90625 224.632812 C 93.347656 223.605469 94.777344 222.59375 96.191406 221.59375 C 97.6875 220.539062 99.167969 219.5 100.632812 218.480469 C 102.097656 217.460938 103.546875 216.457031 104.980469 215.472656 C 106.507812 214.425781 108.019531 213.394531 109.511719 212.386719 C 111.007812 211.378906 112.484375 210.386719 113.945312 209.417969 C 115.511719 208.378906 117.058594 207.363281 118.585938 206.367188 C 120.113281 205.375 121.625 204.402344 123.117188 203.453125 C 124.730469 202.425781 126.324219 201.425781 127.898438 200.453125 C 129.46875 199.480469 131.023438 198.53125 132.554688 197.613281 C 134.230469 196.605469 135.882812 195.632812 137.507812 194.6875 C 139.136719 193.746094 140.746094 192.832031 142.328125 191.953125 C 144.082031 190.976562 145.804688 190.042969 147.507812 189.144531 C 149.207031 188.246094 150.882812 187.386719 152.535156 186.566406 C 154.386719 185.648438 156.210938 184.773438 158.003906 183.949219 C 159.796875 183.125 161.566406 182.351562 163.308594 181.621094 C 165.28125 180.796875 167.222656 180.035156 169.136719 179.332031 C 171.050781 178.628906 172.9375 177.988281 174.796875 177.410156 C 176.898438 176.757812 178.96875 176.183594 181.015625 175.6875 C 183.0625 175.191406 185.085938 174.773438 187.09375 174.433594 C 189.269531 174.0625 191.429688 173.785156 193.578125 173.601562 C 195.722656 173.417969 197.863281 173.324219 200 173.324219 C 202.136719 173.324219 204.277344 173.417969 206.421875 173.601562 C 208.570312 173.785156 210.730469 174.0625 212.90625 174.433594 C 214.914062 174.773438 216.9375 175.191406 218.984375 175.6875 C 221.03125 176.183594 223.101562 176.757812 225.203125 177.410156 C 227.0625 177.988281 228.949219 178.628906 230.863281 179.332031 C 232.777344 180.035156 234.71875 180.796875 236.691406 181.621094 C 238.433594 182.351562 240.203125 183.125 241.996094 183.949219 C 243.789062 184.773438 245.613281 185.648438 247.464844 186.566406 C 249.117188 187.386719 250.792969 188.246094 252.492188 189.144531 C 254.195312 190.042969 255.917969 190.976562 257.671875 191.953125 C 259.253906 192.832031 260.863281 193.746094 262.492188 194.6875 C 264.117188 195.632812 265.769531 196.605469 267.445312 197.613281 C 268.976562 198.53125 270.53125 199.480469 272.101562 200.453125 C 273.675781 201.425781 275.269531 202.425781 276.882812 203.453125 C 278.375 204.402344 279.886719 205.375 281.414062 206.367188 C 282.941406 207.363281 284.488281 208.378906 286.054688 209.417969 C 287.515625 210.386719 288.992188 211.378906 290.488281 212.386719 C 291.980469 213.394531 293.492188 214.425781 295.019531 215.472656 C 296.453125 216.457031 297.902344 217.460938 299.367188 218.480469 C 300.832031 219.5 302.3125 220.539062 303.808594 221.59375 C 305.222656 222.59375 306.652344 223.605469 308.09375 224.632812 C 309.535156 225.664062 310.988281 226.707031 312.457031 227.765625 C 313.851562 228.773438 315.261719 229.796875 316.683594 230.832031 C 318.105469 231.867188 319.539062 232.914062 320.984375 233.980469 C 322.367188 234.996094 323.761719 236.023438 325.164062 237.0625 C 326.570312 238.105469 327.984375 239.15625 329.414062 240.222656 "/>
<path fill="none" stroke-width="1" stroke-linecap="butt" stroke-linejoin="miter" stroke="rgb(100%, 0%, 0%)" stroke-opacity="1" stroke-miterlimit="10" d="M 70.585938 226.769531 C 72.015625 225.703125 73.429688 224.648438 74.835938 223.605469 C 76.238281 222.566406 77.632812 221.539062 79.015625 220.523438 C 80.460938 219.460938 81.894531 218.410156 83.316406 217.375 C 84.738281 216.339844 86.144531 215.316406 87.542969 214.3125 C 89.011719 213.25 90.464844 212.207031 91.90625 211.179688 C 93.347656 210.148438 94.777344 209.136719 96.191406 208.136719 C 97.6875 207.082031 99.164062 206.046875 100.628906 205.023438 C 102.09375 204.003906 103.546875 203 104.980469 202.015625 C 106.507812 200.96875 108.015625 199.9375 109.511719 198.929688 C 111.003906 197.921875 112.480469 196.929688 113.941406 195.960938 C 115.507812 194.921875 117.054688 193.90625 118.585938 192.910156 C 120.113281 191.917969 121.625 190.945312 123.117188 189.996094 C 124.730469 188.96875 126.324219 187.96875 127.894531 186.996094 C 129.46875 186.023438 131.019531 185.074219 132.554688 184.152344 C 134.226562 183.148438 135.878906 182.171875 137.507812 181.230469 C 139.136719 180.285156 140.742188 179.375 142.324219 178.492188 C 144.078125 177.519531 145.804688 176.585938 147.503906 175.6875 C 149.203125 174.789062 150.878906 173.929688 152.53125 173.109375 C 154.382812 172.1875 156.207031 171.316406 158 170.492188 C 159.792969 169.667969 161.5625 168.890625 163.304688 168.164062 C 165.277344 167.339844 167.21875 166.574219 169.132812 165.871094 C 171.046875 165.171875 172.933594 164.53125 174.792969 163.953125 C 176.894531 163.296875 178.964844 162.722656 181.011719 162.226562 C 183.058594 161.730469 185.082031 161.3125 187.089844 160.972656 C 189.269531 160.601562 191.425781 160.328125 193.574219 160.140625 C 195.722656 159.957031 197.863281 159.867188 200 159.867188 C 202.136719 159.867188 204.277344 159.957031 206.425781 160.140625 C 208.574219 160.328125 210.730469 160.601562 212.910156 160.972656 C 214.917969 161.3125 216.941406 161.730469 218.988281 162.226562 C 221.035156 162.722656 223.105469 163.296875 225.207031 163.953125 C 227.066406 164.53125 228.953125 165.171875 230.867188 165.871094 C 232.78125 166.574219 234.722656 167.339844 236.695312 168.164062 C 238.4375 168.890625 240.207031 169.667969 242 170.492188 C 243.792969 171.316406 245.617188 172.1875 247.46875 173.109375 C 249.121094 173.929688 250.796875 174.789062 252.496094 175.6875 C 254.195312 176.585938 255.921875 177.519531 257.675781 178.492188 C 259.257812 179.375 260.863281 180.285156 262.492188 181.230469 C 264.121094 182.171875 265.773438 183.148438 267.445312 184.152344 C 268.980469 185.074219 270.53125 186.023438 272.105469 186.996094 C 273.675781 187.96875 275.269531 188.96875 276.882812 189.996094 C 278.375 190.945312 279.886719 191.917969 281.414062 192.910156 C 282.945312 193.90625 284.492188 194.921875 286.058594 195.960938 C 287.519531 196.929688 288.996094 197.921875 290.488281 198.929688 C 291.984375 199.9375 293.492188 200.96875 295.019531 202.015625 C 296.453125 203 297.90625 204.003906 299.371094 205.023438 C 300.835938 206.046875 302.3125 207.082031 303.808594 208.136719 C 305.222656 209.136719 306.652344 210.148438 308.09375 211.179688 C 309.535156 212.207031 310.988281 213.25 312.457031 214.3125 C 313.855469 215.316406 315.261719 216.339844 316.683594 217.375 C 318.105469 218.410156 319.539062 219.460938 320.984375 220.523438 C 322.367188 221.539062 323.761719 222.566406 325.164062 223.605469 C 326.570312 224.648438 327.984375 225.703125 329.414062 226.769531 "/>
</svg>
