<?xml version="1.0" encoding="UTF-8"?>
<svg xmlns="http://www.w3.org/2000/svg" xmlns:xlink="http://www.w3.org/1999/xlink" width="400" height="400" viewBox="0 0 400 400">
<rect x="-40" y="-40" width="480" height="480" fill="rgb(100%, 100%, 100%)" fill-opacity="1"/>
<path fill-rule="nonzero" fill="rgb(100%, 50.196078%, 50.196078%)" fill-opacity="1" d="M 87.046875 255.113281 C 88.324219 253.460938 89.59375 251.832031 90.851562 250.226562 C 92.113281 248.621094 93.363281 247.039062 94.605469 245.480469 C 95.9375 243.808594 97.261719 242.164062 98.574219 240.546875 C 99.890625 238.929688 101.195312 237.335938 102.488281 235.773438 C 103.890625 234.078125 105.28125 232.417969 106.664062 230.785156 C 108.042969 229.15625 109.414062 227.554688 110.777344 225.988281 C 112.265625 224.269531 113.746094 222.589844 115.210938 220.949219 C 116.675781 219.304688 118.132812 217.699219 119.574219 216.132812 C 121.179688 214.386719 122.773438 212.691406 124.351562 211.039062 C 125.925781 209.386719 127.492188 207.78125 129.042969 206.222656 C 130.804688 204.453125 132.546875 202.742188 134.277344 201.09375 C 136.003906 199.441406 137.71875 197.851562 139.417969 196.316406 C 141.398438 194.53125 143.359375 192.824219 145.300781 191.195312 C 147.242188 189.570312 149.164062 188.023438 151.070312 186.558594 C 153.375 184.789062 155.652344 183.136719 157.90625 181.601562 C 160.164062 180.066406 162.398438 178.652344 164.613281 177.351562 C 167.375 175.730469 170.109375 174.292969 172.820312 173.042969 C 175.527344 171.789062 178.214844 170.71875 180.882812 169.832031 C 184.101562 168.761719 187.296875 167.960938 190.480469 167.425781 C 193.660156 166.894531 196.832031 166.625 200 166.625 C 203.167969 166.625 206.339844 166.894531 209.519531 167.425781 C 212.703125 167.960938 215.898438 168.761719 219.117188 169.832031 C 221.785156 170.71875 224.472656 171.789062 227.179688 173.042969 C 229.890625 174.292969 232.625 175.730469 235.386719 177.351562 C 237.601562 178.652344 239.835938 180.066406 242.09375 181.601562 C 244.347656 183.136719 246.625 184.789062 248.929688 186.558594 C 250.835938 188.023438 252.757812 189.570312 254.699219 191.195312 C 256.640625 192.824219 258.601562 194.53125 260.582031 196.316406 C 262.28125 197.851562 263.996094 199.441406 265.722656 201.09375 C 267.453125 202.742188 269.195312 204.453125 270.957031 206.222656 C 272.507812 207.78125 274.074219 209.386719 275.648438 211.039062 C 277.226562 212.691406 278.820312 214.386719 280.425781 216.132812 C 281.867188 217.699219 283.324219 219.304688 284.789062 220.949219 C 286.253906 222.589844 287.734375 224.269531 289.222656 225.988281 C 290.585938 227.554688 291.957031 229.15625 293.335938 230.785156 C 294.71875 232.417969 296.109375 234.078125 297.511719 235.773438 C 298.804688 237.335938 300.109375 238.929688 301.425781 240.546875 C 302.738281 242.164062 304.0625 243.808594 305.394531 245.480469 C 306.636719 247.039062 307.886719 248.621094 309.148438 250.226562 C 310.40625 251.832031 311.675781 253.460938 312.953125 255.113281 C 313.003906 251.683594 313.027344 248.175781 313.027344 244.597656 C 313.027344 241.019531 313 237.367188 312.949219 233.644531 C 311.671875 231.992188 310.402344 230.363281 309.144531 228.757812 C 307.886719 227.152344 306.632812 225.566406 305.390625 224.007812 C 304.058594 222.335938 302.738281 220.691406 301.421875 219.074219 C 300.109375 217.457031 298.804688 215.863281 297.507812 214.300781 C 296.105469 212.605469 294.714844 210.945312 293.335938 209.316406 C 291.953125 207.683594 290.582031 206.085938 289.222656 204.515625 C 287.730469 202.796875 286.253906 201.117188 284.789062 199.476562 C 283.320312 197.832031 281.867188 196.226562 280.421875 194.660156 C 278.816406 192.917969 277.226562 191.21875 275.648438 189.566406 C 274.070312 187.917969 272.507812 186.3125 270.957031 184.75 C 269.195312 182.980469 267.453125 181.273438 265.722656 179.621094 C 263.996094 177.96875 262.28125 176.378906 260.585938 174.84375 C 258.605469 173.058594 256.644531 171.351562 254.703125 169.722656 C 252.757812 168.097656 250.835938 166.550781 248.929688 165.085938 C 246.628906 163.316406 244.347656 161.664062 242.09375 160.128906 C 239.839844 158.59375 237.605469 157.179688 235.390625 155.878906 C 232.625 154.257812 229.894531 152.820312 227.183594 151.570312 C 224.472656 150.316406 221.789062 149.246094 219.117188 148.359375 C 215.898438 147.289062 212.703125 146.488281 209.523438 145.953125 C 206.339844 145.421875 203.167969 145.152344 200 145.152344 C 196.832031 145.152344 193.660156 145.421875 190.476562 145.953125 C 187.296875 146.488281 184.101562 147.289062 180.882812 148.359375 C 178.210938 149.246094 175.527344 150.316406 172.816406 151.570312 C 170.105469 152.820312 167.375 154.257812 164.609375 155.878906 C 162.394531 157.179688 160.160156 158.59375 157.90625 160.128906 C 155.652344 161.664062 153.371094 163.316406 151.070312 165.085938 C 149.164062 166.550781 147.242188 168.097656 145.296875 169.722656 C 143.355469 171.351562 141.394531 173.058594 139.414062 174.84375 C 137.71875 176.378906 136.003906 177.96875 134.277344 179.621094 C 132.546875 181.273438 130.804688 182.980469 129.042969 184.75 C 127.492188 186.3125 125.929688 187.917969 124.351562 189.566406 C 122.773438 191.21875 121.183594 192.917969 119.578125 194.660156 C 118.132812 196.226562 116.679688 197.832031 115.210938 199.476562 C 113.746094 201.117188 112.269531 202.796875 110.777344 204.515625 C 109.417969 206.085938 108.046875 207.683594 106.664062 209.316406 C 105.285156 210.945312 103.894531 212.605469 102.492188 214.300781 C 101.195312 215.863281 99.890625 217.457031 98.578125 219.074219 C 97.261719 220.691406 95.941406 222.335938 94.609375 224.007812 C 93.367188 225.566406 92.113281 227.152344 90.855469 228.757812 C 89.597656 230.363281 88.328125 231.992188 87.050781 233.644531 C 87 237.367188 86.972656 241.019531 86.972656 244.597656 C 86.972656 248.175781 86.996094 251.683594 87.046875 255.113281 "/>
<path fill="none" stroke-width="1" stroke-linecap="butt" stroke-linejoin="miter" stroke="rgb(100%, 0%, 0%)" stroke-opacity="1" stroke-miterlimit="10" d="M 87.046875 255.113281 C 86.996094 251.683594 86.972656 248.175781 86.972656 244.597656 C 86.972656 241.019531 87 237.367188 87.050781 233.644531 "/>
<path fill="none" stroke-width="1" stroke-linecap="butt" stroke-linejoin="miter" stroke="rgb(100%, 0%, 0%)" stroke-opacity="1" stroke-miterlimit="10" d="M 100.40625 238.304688 C 100.355469 234.871094 100.332031 231.367188 100.332031 227.789062 C 100.332031 224.210938 100.359375 220.558594 100.40625 216.832031 "/>
<path fill="none" stroke-width="1" stroke-linecap="butt" stroke-linejoin="miter" stroke="rgb(100%, 0%, 0%)" stroke-opacity="1" stroke-miterlimit="10" d="M 113.160156 223.261719 C 113.113281 219.828125 113.089844 216.324219 113.089844 212.746094 C 113.09375 209.167969 113.117188 205.515625 113.160156 201.789062 "/>
<path fill="none" stroke-width="1" stroke-linecap="butt" stroke-linejoin="miter" stroke="rgb(100%, 0%, 0%)" stroke-opacity="1" stroke-miterlimit="10" d="M 125.359375 209.988281 C 125.316406 206.558594 125.292969 203.050781 125.296875 199.472656 C 125.296875 195.894531 125.316406 192.242188 125.359375 188.515625 "/>
<path fill="none" stroke-width="1" stroke-linecap="butt" stroke-linejoin="miter" stroke="rgb(100%, 0%, 0%)" stroke-opacity="1" stroke-miterlimit="10" d="M 137.046875 198.484375 C 137.007812 195.054688 136.988281 191.546875 136.992188 187.96875 C 136.992188 184.390625 137.011719 180.738281 137.046875 177.011719 "/>
<path fill="none" stroke-width="1" stroke-linecap="butt" stroke-linejoin="miter" stroke="rgb(100%, 0%, 0%)" stroke-opacity="1" stroke-miterlimit="10" d="M 148.28125 188.75 C 148.246094 185.320312 148.230469 181.816406 148.230469 178.234375 C 148.234375 174.65625 148.25 171.003906 148.28125 167.277344 "/>
<path fill="none" stroke-width="1" stroke-linecap="butt" stroke-linejoin="miter" stroke="rgb(100%, 0%, 0%)" stroke-opacity="1" stroke-miterlimit="10" d="M 159.121094 180.785156 C 159.09375 177.355469 159.078125 173.851562 159.082031 170.273438 C 159.082031 166.691406 159.09375 163.039062 159.121094 159.316406 "/>
<path fill="none" stroke-width="1" stroke-linecap="butt" stroke-linejoin="miter" stroke="rgb(100%, 0%, 0%)" stroke-opacity="1" stroke-miterlimit="10" d="M 169.636719 174.589844 C 169.613281 171.160156 169.605469 167.65625 169.605469 164.078125 C 169.605469 160.5 169.617188 156.847656 169.632812 153.121094 "/>
<path fill="none" stroke-width="1" stroke-linecap="butt" stroke-linejoin="miter" stroke="rgb(100%, 0%, 0%)" stroke-opacity="1" stroke-miterlimit="10" d="M 179.898438 170.167969 C 179.882812 166.734375 179.878906 163.230469 179.878906 159.652344 C 179.878906 156.074219 179.886719 152.421875 179.898438 148.695312 "/>
<path fill="none" stroke-width="1" stroke-linecap="butt" stroke-linejoin="miter" stroke="rgb(100%, 0%, 0%)" stroke-opacity="1" stroke-miterlimit="10" d="M 189.992188 167.511719 C 189.984375 164.078125 189.980469 160.574219 189.980469 156.996094 C 189.984375 153.417969 189.984375 149.765625 189.992188 146.039062 "/>
<path fill="none" stroke-width="1" stroke-linecap="butt" stroke-linejoin="miter" stroke="rgb(100%, 0%, 0%)" stroke-opacity="1" stroke-miterlimit="10" d="M 200 166.625 C 200 163.191406 200 159.6875 200 156.109375 C 200 152.53125 200 148.878906 200 145.152344 "/>
<path fill="none" stroke-width="1" stroke-linecap="butt" stroke-linejoin="miter" stroke="rgb(100%, 0%, 0%)" stroke-opacity="1" stroke-miterlimit="10" d="M 210.007812 167.511719 C 210.015625 164.078125 210.019531 160.574219 210.019531 156.996094 C 210.015625 153.417969 210.015625 149.765625 210.007812 146.039062 "/>
<path fill="none" stroke-width="1" stroke-linecap="butt" stroke-linejoin="miter" stroke="rgb(100%, 0%, 0%)" stroke-opacity="1" stroke-miterlimit="10" d="M 220.101562 170.167969 C 220.117188 166.734375 220.121094 163.230469 220.121094 159.652344 C 220.121094 156.074219 220.113281 152.421875 220.101562 148.695312 "/>
<path fill="none" stroke-width="1" stroke-linecap="butt" stroke-linejoin="miter" stroke="rgb(100%, 0%, 0%)" stroke-opacity="1" stroke-miterlimit="10" d="M 230.363281 174.589844 C 230.386719 171.160156 230.394531 167.65625 230.394531 164.078125 C 230.394531 160.5 230.382812 156.847656 230.367188 153.121094 "/>
<path fill="none" stroke-width="1" stroke-linecap="butt" stroke-linejoin="miter" stroke="rgb(100%, 0%, 0%)" stroke-opacity="1" stroke-miterlimit="10" d="M 240.878906 180.785156 C 240.90625 177.355469 240.921875 173.851562 240.917969 170.273438 C 240.917969 166.691406 240.90625 163.039062 240.878906 159.316406 "/>
<path fill="none" stroke-width="1" stroke-linecap="butt" stroke-linejoin="miter" stroke="rgb(100%, 0%, 0%)" stroke-opacity="1" stroke-miterlimit="10" d="M 251.71875 188.75 C 251.753906 185.320312 251.769531 181.816406 251.769531 178.234375 C 251.765625 174.65625 251.75 171.003906 251.71875 167.277344 "/>
<path fill="none" stroke-width="1" stroke-linecap="butt" stroke-linejoin="miter" stroke="rgb(100%, 0%, 0%)" stroke-opacity="1" stroke-miterlimit="10" d="M 262.953125 198.484375 C 262.992188 195.054688 263.011719 191.546875 263.007812 187.96875 C 263.007812 184.390625 262.988281 180.738281 262.953125 177.011719 "/>
<path fill="none" stroke-width="1" stroke-linecap="butt" stroke-linejoin="miter" stroke="rgb(100%, 0%, 0%)" stroke-opacity="1" stroke-miterlimit="10" d="M 274.640625 209.988281 C 274.683594 206.558594 274.707031 203.050781 274.703125 199.472656 C 274.703125 195.894531 274.683594 192.242188 274.640625 188.515625 "/>
<path fill="none" stroke-width="1" stroke-linecap="butt" stroke-linejoin="miter" stroke="rgb(100%, 0%, 0%)" stroke-opacity="1" stroke-miterlimit="10" d="M 286.839844 223.261719 C 286.886719 219.828125 286.910156 216.324219 286.910156 212.746094 C 286.90625 209.167969 286.882812 205.515625 286.839844 201.789062 "/>
<path fill="none" stroke-width="1" stroke-linecap="butt" stroke-linejoin="miter" stroke="rgb(100%, 0%, 0%)" stroke-opacity="1" stroke-miterlimit="10" d="M 299.59375 238.304688 C 299.644531 234.871094 299.667969 231.367188 299.667969 227.789062 C 299.667969 224.210938 299.640625 220.558594 299.59375 216.832031 "/>
<path fill="none" stroke-width="1" stroke-linecap="butt" stroke-linejoin="miter" stroke="rgb(100%, 0%, 0%)" stroke-opacity="1" stroke-miterlimit="10" d="M 312.953125 255.113281 C 313.003906 251.683594 313.027344 248.175781 313.027344 244.597656 C 313.027344 241.019531 313 237.367188 312.949219 233.644531 "/>
<path fill="none" stroke-width="1" stroke-linecap="butt" stroke-linejoin="miter" stroke="rgb(100%, 0%, 0%)" stroke-opacity="1" stroke-miterlimit="10" d="M 87.046875 255.113281 C 88.324219 253.460938 89.59375 251.832031 90.851562 250.226562 C 92.113281 248.621094 93.363281 247.039062 94.605469 245.480469 C 95.9375 243.808594 97.261719 242.164062 98.574219 240.546875 C 99.890625 238.929688 101.195312 237.335938 102.488281 235.773438 C 103.890625 234.078125 105.28125 232.417969 106.664062 230.785156 C 108.042969 229.15625 109.414062 227.554688 110.777344 225.988281 C 112.265625 224.269531 113.746094 222.589844 115.210938 220.949219 C 116.675781 219.304688 118.132812 217.699219 119.574219 216.132812 C 121.179688 214.386719 122.773438 212.691406 124.351562 211.039062 C 125.925781 209.386719 127.492188 207.78125 129.042969 206.222656 C 130.804688 204.453125 132.546875 202.742188 134.277344 201.09375 C 136.003906 199.441406 137.71875 197.851562 139.417969 196.316406 C 141.398438 194.53125 143.359375 192.824219 145.300781 191.195312 C 147.242188 189.570312 149.164062 188.023438 151.070312 186.558594 C 153.375 184.789062 155.652344 183.136719 157.90625 181.601562 C 160.164062 180.066406 162.398438 178.652344 164.613281 177.351562 C 167.375 175.730469 170.109375 174.292969 172.820312 173.042969 C 175.527344 171.789062 178.214844 170.71875 180.882812 169.832031 C 184.101562 168.761719 187.296875 167.960938 190.480469 167.425781 C 193.660156 166.894531 196.832031 166.625 200 166.625 C 203.167969 166.625 206.339844 166.894531 209.519531 167.425781 C 212.703125 167.960938 215.898438 168.761719 219.117188 169.832031 C 221.785156 170.71875 224.472656 171.789062 227.179688 173.042969 C 229.890625 174.292969 232.625 175.730469 235.386719 177.351562 C 237.601562 178.652344 239.835938 180.066406 242.09375 181.601562 C 244.347656 183.136719 246.625 184.789062 248.929688 186.558594 C 250.835938 188.023438 252.757812 189.570312 254.699219 191.195312 C 256.640625 192.824219 258.601562 194.53125 260.582031 196.316406 C 262.28125 197.851562 263.996094 199.441406 265.722656 201.09375 C 267.453125 202.742188 269.195312 204.453125 270.957031 206.222656 C 272.507812 207.78125 274.074219 209.386719 275.648438 211.039062 C 277.226562 212.691406 278.820312 214.386719 280.425781 216.132812 C 281.867188 217.699219 283.324219 219.304688 284.789062 220.949219 C 286.253906 222.589844 287.734375 224.269531 289.222656 225.988281 C 290.585938 227.554688 291.957031 229.15625 293.335938 230.785156 C 294.71875 232.417969 296.109375 234.078125 297.511719 235.773438 C 298.804688 237.335938 300.109375 238.929688 301.425781 240.546875 C 302.738281 242.164062 304.0625 243.808594 305.394531 245.480469 C 306.636719 247.039062 307.886719 248.621094 309.148438 250.226562 C 310.40625 251.832031 311.675781 253.460938 312.953125 255.113281 "/>
<path fill="none" stroke-width="1" stroke-linecap="butt" stroke-linejoin="miter" stroke="rgb(100%, 0%, 0%)" stroke-opacity="1" stroke-miterlimit="10" d="M 87.050781 233.644531 C 88.328125 231.992188 89.597656 230.363281 90.855469 228.757812 C 92.113281 227.152344 93.367188 225.566406 94.609375 224.007812 C 95.941406 222.335938 97.261719 220.691406 98.578125 219.074219 C 99.890625 217.457031 101.195312 215.863281 102.492188 214.300781 C 103.894531 212.605469 105.285156 210.945312 106.664062 209.316406 C 108.046875 207.683594 109.417969 206.085938 110.777344 204.515625 C 112.269531 202.796875 113.746094 201.117188 115.210938 199.476562 C 116.679688 197.832031 118.132812 196.226562 119.578125 194.660156 C 121.183594 192.917969 122.773438 191.21875 124.351562 189.566406 C 125.929688 187.917969 127.492188 186.3125 129.042969 184.75 C 130.804688 182.980469 132.546875 181.273438 134.277344 179.621094 C 136.003906 177.96875 137.71875 176.378906 139.414062 174.84375 C 141.394531 173.058594 143.355469 171.351562 145.296875 169.722656 C 147.242188 168.097656 149.164062 166.550781 151.070312 165.085938 C 153.371094 163.316406 155.652344 161.664062 157.90625 160.128906 C 160.160156 158.59375 162.394531 157.179688 164.609375 155.878906 C 167.375 154.257812 170.105469 152.820312 172.816406 151.570312 C 175.527344 150.316406 178.210938 149.246094 180.882812 148.359375 C 184.101562 147.289062 187.296875 146.488281 190.476562 145.953125 C 193.660156 145.421875 196.832031 145.152344 200 145.152344 C 203.167969 145.152344 206.339844 145.421875 209.523438 145.953125 C 212.703125 146.488281 215.898438 147.289062 219.117188 148.359375 C 221.789062 149.246094 224.472656 150.316406 227.183594 151.570312 C 229.894531 152.820312 232.625 154.257812 235.390625 155.878906 C 237.605469 157.179688 239.839844 158.59375 242.09375 160.128906 C 244.347656 161.664062 246.628906 163.316406 248.929688 165.085938 C 250.835938 166.550781 252.757812 168.097656 254.703125 169.722656 C 256.644531 171.351562 258.605469 173.058594 260.585938 174.84375 C 262.28125 176.378906 263.996094 177.96875 265.722656 179.621094 C 267.453125 181.273438 269.195312 182.980469 270.957031 184.75 C 272.507812 186.3125 274.070312 187.917969 275.648438 189.566406 C 277.226562 191.21875 278.816406 192.917969 280.421875 194.660156 C 281.867188 196.226562 283.320312 197.832031 284.789062 199.476562 C 286.253906 201.117188 287.730469 202.796875 289.222656 204.515625 C 290.582031 206.085938 291.953125 207.683594 293.335938 209.316406 C 294.714844 210.945312 296.105469 212.605469 297.507812 214.300781 C 298.804688 215.863281 300.109375 217.457031 301.421875 219.074219 C 302.738281 220.691406 304.058594 222.335938 305.390625 224.007812 C 306.632812 225.566406 307.886719 227.152344 309.144531 228.757812 C 310.402344 230.363281 311.671875 231.992188 312.949219 233.644531 "/>
</svg>
