<?xml version="1.0" encoding="UTF-8"?>
<svg xmlns="http://www.w3.org/2000/svg" xmlns:xlink="http://www.w3.org/1999/xlink" width="400mm" height="400mm" viewBox="0 0 400 400" version="1.1">
<g id="surface516">
<rect x="0" y="0" width="400" height="400" style="fill:rgb(100%,100%,100%);fill-opacity:1;stroke:none;"/>
<path style=" stroke:none;fill-rule:nonzero;fill:rgb(100%,49.803922%,49.803922%);fill-opacity:1;" d="M 65.191406 177.367188 C 69.457031 179.917969 73.617188 182.386719 77.679688 184.765625 C 81.738281 187.144531 85.695312 189.441406 89.554688 191.652344 C 93.414062 193.863281 97.175781 195.988281 100.839844 198.03125 C 104.503906 200.070312 108.070312 202.027344 111.546875 203.898438 C 115.019531 205.765625 118.402344 207.554688 121.695312 209.253906 C 124.984375 210.953125 128.1875 212.570312 131.304688 214.097656 C 134.421875 215.628906 137.457031 217.074219 140.410156 218.433594 C 143.363281 219.796875 146.234375 221.070312 149.035156 222.261719 C 151.835938 223.449219 154.5625 224.554688 157.222656 225.574219 C 159.878906 226.597656 162.472656 227.53125 165.011719 228.382812 C 167.546875 229.230469 170.023438 229.996094 172.453125 230.675781 C 174.882812 231.355469 177.261719 231.949219 179.605469 232.460938 C 181.949219 232.96875 184.253906 233.394531 186.53125 233.734375 C 188.8125 234.074219 191.066406 234.328125 193.304688 234.5 C 195.546875 234.667969 197.773438 234.753906 200 234.753906 C 202.226562 234.753906 204.453125 234.667969 206.695312 234.5 C 208.933594 234.328125 211.1875 234.074219 213.46875 233.734375 C 215.746094 233.394531 218.050781 232.96875 220.394531 232.460938 C 222.738281 231.949219 225.117188 231.355469 227.546875 230.675781 C 229.976562 229.996094 232.453125 229.230469 234.988281 228.382812 C 237.527344 227.53125 240.121094 226.597656 242.777344 225.574219 C 245.4375 224.554688 248.164062 223.449219 250.964844 222.261719 C 253.765625 221.070312 256.636719 219.796875 259.589844 218.433594 C 262.542969 217.074219 265.578125 215.628906 268.695312 214.097656 C 271.8125 212.570312 275.015625 210.953125 278.304688 209.253906 C 281.597656 207.554688 284.980469 205.765625 288.453125 203.898438 C 291.929688 202.027344 295.496094 200.070312 299.160156 198.03125 C 302.824219 195.988281 306.585938 193.863281 310.445312 191.652344 C 314.304688 189.441406 318.261719 187.144531 322.320312 184.765625 C 326.382812 182.386719 330.542969 179.917969 334.808594 177.367188 C 334.691406 175.429688 334.632812 173.441406 334.628906 171.40625 C 334.628906 169.371094 334.683594 167.289062 334.800781 165.160156 C 330.535156 167.710938 326.375 170.175781 322.3125 172.554688 C 318.253906 174.9375 314.296875 177.234375 310.4375 179.441406 C 306.578125 181.652344 302.816406 183.78125 299.152344 185.820312 C 295.488281 187.859375 291.921875 189.816406 288.445312 191.6875 C 284.972656 193.558594 281.589844 195.34375 278.300781 197.042969 C 275.007812 198.742188 271.804688 200.359375 268.6875 201.886719 C 265.570312 203.417969 262.539062 204.863281 259.585938 206.222656 C 256.632812 207.582031 253.757812 208.859375 250.960938 210.046875 C 248.160156 211.238281 245.433594 212.34375 242.773438 213.363281 C 240.113281 214.382812 237.523438 215.316406 234.988281 216.167969 C 232.453125 217.015625 229.972656 217.78125 227.546875 218.460938 C 225.117188 219.140625 222.738281 219.734375 220.394531 220.246094 C 218.050781 220.753906 215.746094 221.179688 213.46875 221.519531 C 211.1875 221.859375 208.933594 222.113281 206.695312 222.28125 C 204.453125 222.453125 202.226562 222.539062 200 222.539062 C 197.773438 222.539062 195.546875 222.453125 193.304688 222.28125 C 191.066406 222.113281 188.8125 221.859375 186.53125 221.519531 C 184.253906 221.179688 181.949219 220.753906 179.605469 220.246094 C 177.261719 219.734375 174.882812 219.140625 172.453125 218.460938 C 170.027344 217.78125 167.546875 217.015625 165.011719 216.167969 C 162.476562 215.316406 159.886719 214.382812 157.226562 213.363281 C 154.566406 212.34375 151.839844 211.238281 149.039062 210.046875 C 146.242188 208.859375 143.367188 207.582031 140.414062 206.222656 C 137.460938 204.863281 134.429688 203.417969 131.3125 201.886719 C 128.195312 200.359375 124.992188 198.742188 121.699219 197.042969 C 118.410156 195.34375 115.027344 193.558594 111.554688 191.6875 C 108.078125 189.816406 104.511719 187.859375 100.847656 185.820312 C 97.183594 183.78125 93.421875 181.652344 89.5625 179.441406 C 85.703125 177.234375 81.746094 174.9375 77.6875 172.554688 C 73.625 170.175781 69.464844 167.710938 65.199219 165.160156 C 65.316406 167.289062 65.371094 169.371094 65.371094 171.40625 C 65.367188 173.441406 65.308594 175.429688 65.191406 177.367188 "/>
<path style="fill:none;stroke-width:1;stroke-linecap:butt;stroke-linejoin:miter;stroke:rgb(100%,0%,0%);stroke-opacity:1;stroke-miterlimit:10;" d="M 65.191406 177.367188 C 65.308594 175.429688 65.367188 173.441406 65.371094 171.40625 C 65.371094 169.371094 65.316406 167.289062 65.199219 165.160156 "/>
<path style="fill:none;stroke-width:1;stroke-linecap:butt;stroke-linejoin:miter;stroke:rgb(100%,0%,0%);stroke-opacity:1;stroke-miterlimit:10;" d="M 83.691406 188.273438 C 83.808594 186.332031 83.863281 184.347656 83.867188 182.3125 C 83.867188 180.277344 83.8125 178.195312 83.699219 176.0625 "/>
<path style="fill:none;stroke-width:1;stroke-linecap:butt;stroke-linejoin:miter;stroke:rgb(100%,0%,0%);stroke-opacity:1;stroke-miterlimit:10;" d="M 100.839844 198.03125 C 100.949219 196.089844 101.003906 194.101562 101.007812 192.070312 C 101.007812 190.035156 100.953125 187.953125 100.847656 185.820312 "/>
<path style="fill:none;stroke-width:1;stroke-linecap:butt;stroke-linejoin:miter;stroke:rgb(100%,0%,0%);stroke-opacity:1;stroke-miterlimit:10;" d="M 116.6875 206.640625 C 116.792969 204.699219 116.84375 202.710938 116.847656 200.675781 C 116.847656 198.640625 116.796875 196.558594 116.695312 194.429688 "/>
<path style="fill:none;stroke-width:1;stroke-linecap:butt;stroke-linejoin:miter;stroke:rgb(100%,0%,0%);stroke-opacity:1;stroke-miterlimit:10;" d="M 131.304688 214.097656 C 131.402344 212.160156 131.453125 210.171875 131.453125 208.136719 C 131.453125 206.101562 131.40625 204.019531 131.3125 201.886719 "/>
<path style="fill:none;stroke-width:1;stroke-linecap:butt;stroke-linejoin:miter;stroke:rgb(100%,0%,0%);stroke-opacity:1;stroke-miterlimit:10;" d="M 144.78125 220.410156 C 144.867188 218.46875 144.910156 216.484375 144.910156 214.449219 C 144.914062 212.414062 144.871094 210.332031 144.785156 208.199219 "/>
<path style="fill:none;stroke-width:1;stroke-linecap:butt;stroke-linejoin:miter;stroke:rgb(100%,0%,0%);stroke-opacity:1;stroke-miterlimit:10;" d="M 157.222656 225.574219 C 157.296875 223.632812 157.335938 221.648438 157.335938 219.613281 C 157.335938 217.578125 157.300781 215.496094 157.226562 213.363281 "/>
<path style="fill:none;stroke-width:1;stroke-linecap:butt;stroke-linejoin:miter;stroke:rgb(100%,0%,0%);stroke-opacity:1;stroke-miterlimit:10;" d="M 168.769531 229.59375 C 168.832031 227.648438 168.859375 225.664062 168.863281 223.628906 C 168.863281 221.59375 168.835938 219.511719 168.773438 217.378906 "/>
<path style="fill:none;stroke-width:1;stroke-linecap:butt;stroke-linejoin:miter;stroke:rgb(100%,0%,0%);stroke-opacity:1;stroke-miterlimit:10;" d="M 179.605469 232.460938 C 179.644531 230.515625 179.667969 228.53125 179.667969 226.496094 C 179.667969 224.460938 179.648438 222.378906 179.605469 220.246094 "/>
<path style="fill:none;stroke-width:1;stroke-linecap:butt;stroke-linejoin:miter;stroke:rgb(100%,0%,0%);stroke-opacity:1;stroke-miterlimit:10;" d="M 189.933594 234.179688 C 189.953125 232.238281 189.964844 230.25 189.964844 228.214844 C 189.964844 226.179688 189.957031 224.097656 189.933594 221.964844 "/>
<path style="fill:none;stroke-width:1;stroke-linecap:butt;stroke-linejoin:miter;stroke:rgb(100%,0%,0%);stroke-opacity:1;stroke-miterlimit:10;" d="M 200 234.753906 C 200 232.8125 200 230.824219 200 228.789062 C 200 226.753906 200 224.671875 200 222.539062 "/>
<path style="fill:none;stroke-width:1;stroke-linecap:butt;stroke-linejoin:miter;stroke:rgb(100%,0%,0%);stroke-opacity:1;stroke-miterlimit:10;" d="M 210.066406 234.179688 C 210.046875 232.238281 210.035156 230.25 210.035156 228.214844 C 210.035156 226.179688 210.042969 224.097656 210.066406 221.964844 "/>
<path style="fill:none;stroke-width:1;stroke-linecap:butt;stroke-linejoin:miter;stroke:rgb(100%,0%,0%);stroke-opacity:1;stroke-miterlimit:10;" d="M 220.394531 232.460938 C 220.355469 230.515625 220.332031 228.53125 220.332031 226.496094 C 220.332031 224.460938 220.351562 222.378906 220.394531 220.246094 "/>
<path style="fill:none;stroke-width:1;stroke-linecap:butt;stroke-linejoin:miter;stroke:rgb(100%,0%,0%);stroke-opacity:1;stroke-miterlimit:10;" d="M 231.230469 229.59375 C 231.167969 227.648438 231.140625 225.664062 231.136719 223.628906 C 231.136719 221.59375 231.164062 219.511719 231.226562 217.378906 "/>
<path style="fill:none;stroke-width:1;stroke-linecap:butt;stroke-linejoin:miter;stroke:rgb(100%,0%,0%);stroke-opacity:1;stroke-miterlimit:10;" d="M 242.777344 225.574219 C 242.703125 223.632812 242.664062 221.648438 242.664062 219.613281 C 242.664062 217.578125 242.699219 215.496094 242.773438 213.363281 "/>
<path style="fill:none;stroke-width:1;stroke-linecap:butt;stroke-linejoin:miter;stroke:rgb(100%,0%,0%);stroke-opacity:1;stroke-miterlimit:10;" d="M 255.21875 220.410156 C 255.132812 218.46875 255.089844 216.484375 255.089844 214.449219 C 255.085938 212.414062 255.128906 210.332031 255.214844 208.199219 "/>
<path style="fill:none;stroke-width:1;stroke-linecap:butt;stroke-linejoin:miter;stroke:rgb(100%,0%,0%);stroke-opacity:1;stroke-miterlimit:10;" d="M 268.695312 214.097656 C 268.597656 212.160156 268.546875 210.171875 268.546875 208.136719 C 268.546875 206.101562 268.59375 204.019531 268.6875 201.886719 "/>
<path style="fill:none;stroke-width:1;stroke-linecap:butt;stroke-linejoin:miter;stroke:rgb(100%,0%,0%);stroke-opacity:1;stroke-miterlimit:10;" d="M 283.3125 206.640625 C 283.207031 204.699219 283.15625 202.710938 283.152344 200.675781 C 283.152344 198.640625 283.203125 196.558594 283.304688 194.429688 "/>
<path style="fill:none;stroke-width:1;stroke-linecap:butt;stroke-linejoin:miter;stroke:rgb(100%,0%,0%);stroke-opacity:1;stroke-miterlimit:10;" d="M 299.160156 198.03125 C 299.050781 196.089844 298.996094 194.101562 298.992188 192.070312 C 298.992188 190.035156 299.046875 187.953125 299.152344 185.820312 "/>
<path style="fill:none;stroke-width:1;stroke-linecap:butt;stroke-linejoin:miter;stroke:rgb(100%,0%,0%);stroke-opacity:1;stroke-miterlimit:10;" d="M 316.308594 188.273438 C 316.191406 186.332031 316.136719 184.347656 316.132812 182.3125 C 316.132812 180.277344 316.1875 178.195312 316.300781 176.0625 "/>
<path style="fill:none;stroke-width:1;stroke-linecap:butt;stroke-linejoin:miter;stroke:rgb(100%,0%,0%);stroke-opacity:1;stroke-miterlimit:10;" d="M 334.808594 177.367188 C 334.691406 175.429688 334.632812 173.441406 334.628906 171.40625 C 334.628906 169.371094 334.683594 167.289062 334.800781 165.160156 "/>
<path style="fill:none;stroke-width:1;stroke-linecap:butt;stroke-linejoin:miter;stroke:rgb(100%,0%,0%);stroke-opacity:1;stroke-miterlimit:10;" d="M 65.191406 177.367188 C 69.457031 179.917969 73.617188 182.386719 77.679688 184.765625 C 81.738281 187.144531 85.695312 189.441406 89.554688 191.652344 C 93.414062 193.863281 97.175781 195.988281 100.839844 198.03125 C 104.503906 200.070312 108.070312 202.027344 111.546875 203.898438 C 115.019531 205.765625 118.402344 207.554688 121.695312 209.253906 C 124.984375 210.953125 128.1875 212.570312 131.304688 214.097656 C 134.421875 215.628906 137.457031 217.074219 140.410156 218.433594 C 143.363281 219.796875 146.234375 221.070312 149.035156 222.261719 C 151.835938 223.449219 154.5625 224.554688 157.222656 225.574219 C 159.878906 226.597656 162.472656 227.53125 165.011719 228.382812 C 167.546875 229.230469 170.023438 229.996094 172.453125 230.675781 C 174.882812 231.355469 177.261719 231.949219 179.605469 232.460938 C 181.949219 232.96875 184.253906 233.394531 186.53125 233.734375 C 188.8125 234.074219 191.066406 234.328125 193.304688 234.5 C 195.546875 234.667969 197.773438 234.753906 200 234.753906 C 202.226562 234.753906 204.453125 234.667969 206.695312 234.5 C 208.933594 234.328125 211.1875 234.074219 213.46875 233.734375 C 215.746094 233.394531 218.050781 232.96875 220.394531 232.460938 C 222.738281 231.949219 225.117188 231.355469 227.546875 230.675781 C 229.976562 229.996094 232.453125 229.230469 234.988281 228.382812 C 237.527344 227.53125 240.121094 226.597656 242.777344 225.574219 C 245.4375 224.554688 248.164062 223.449219 250.964844 222.261719 C 253.765625 221.070312 256.636719 219.796875 259.589844 218.433594 C 262.542969 217.074219 265.578125 215.628906 268.695312 214.097656 C 271.8125 212.570312 275.015625 210.953125 278.304688 209.253906 C 281.597656 207.554688 284.980469 205.765625 288.453125 203.898438 C 291.929688 202.027344 295.496094 200.070312 299.160156 198.03125 C 302.824219 195.988281 306.585938 193.863281 310.445312 191.652344 C 314.304688 189.441406 318.261719 187.144531 322.320312 184.765625 C 326.382812 182.386719 330.542969 179.917969 334.808594 177.367188 "/>
<path style="fill:none;stroke-width:1;stroke-linecap:butt;stroke-linejoin:miter;stroke:rgb(100%,0%,0%);stroke-opacity:1;stroke-miterlimit:10;" d="M 65.199219 165.160156 C 69.464844 167.710938 73.625 170.175781 77.6875 172.554688 C 81.746094 174.9375 85.703125 177.234375 89.5625 179.441406 C 93.421875 181.652344 97.183594 183.78125 100.847656 185.820312 C 104.511719 187.859375 108.078125 189.816406 111.554688 191.6875 C 115.027344 193.558594 118.410156 195.34375 121.699219 197.042969 C 124.992188 198.742188 128.195312 200.359375 131.3125 201.886719 C 134.429688 203.417969 137.460938 204.863281 140.414062 206.222656 C 143.367188 207.582031 146.242188 208.859375 149.039062 210.046875 C 151.839844 211.238281 154.566406 212.34375 157.226562 213.363281 C 159.886719 214.382812 162.476562 215.316406 165.011719 216.167969 C 167.546875 217.015625 170.027344 217.78125 172.453125 218.460938 C 174.882812 219.140625 177.261719 219.734375 179.605469 220.246094 C 181.949219 220.753906 184.253906 221.179688 186.53125 221.519531 C 188.8125 221.859375 191.066406 222.113281 193.304688 222.28125 C 195.546875 222.453125 197.773438 222.539062 200 222.539062 C 202.226562 222.539062 204.453125 222.453125 206.695312 222.28125 C 208.933594 222.113281 211.1875 221.859375 213.46875 221.519531 C 215.746094 221.179688 218.050781 220.753906 220.394531 220.246094 C 222.738281 219.734375 225.117188 219.140625 227.546875 218.460938 C 229.972656 217.78125 232.453125 217.015625 234.988281 216.167969 C 237.523438 215.316406 240.113281 214.382812 242.773438 213.363281 C 245.433594 212.34375 248.160156 211.238281 250.960938 210.046875 C 253.757812 208.859375 256.632812 207.582031 259.585938 206.222656 C 262.539062 204.863281 265.570312 203.417969 268.6875 201.886719 C 271.804688 200.359375 275.007812 198.742188 278.300781 197.042969 C 281.589844 195.34375 284.972656 193.558594 288.445312 191.6875 C 291.921875 189.816406 295.488281 187.859375 299.152344 185.820312 C 302.816406 183.78125 306.578125 181.652344 310.4375 179.441406 C 314.296875 177.234375 318.253906 174.9375 322.3125 172.554688 C 326.375 170.175781 330.535156 167.710938 334.800781 165.160156 "/>
</g>
</svg>
