<?xml version="1.0" encoding="UTF-8"?>
<svg xmlns="http://www.w3.org/2000/svg" xmlns:xlink="http://www.w3.org/1999/xlink" width="400mm" height="400mm" viewBox="0 0 400 400" version="1.1">
<g id="surface521">
<rect x="0" y="0" width="400" height="400" style="fill:rgb(100%,100%,100%);fill-opacity:1;stroke:none;"/>
<path style=" stroke:none;fill-rule:nonzero;fill:rgb(100%,49.803922%,49.803922%);fill-opacity:1;" d="M 70.398438 173.214844 C 74.378906 176.1875 78.269531 179.0625 82.070312 181.839844 C 85.871094 184.617188 89.582031 187.296875 93.203125 189.875 C 96.828125 192.453125 100.367188 194.929688 103.820312 197.3125 C 107.273438 199.691406 110.640625 201.972656 113.929688 204.152344 C 117.214844 206.335938 120.421875 208.417969 123.554688 210.402344 C 126.683594 212.382812 129.734375 214.269531 132.714844 216.054688 C 135.691406 217.835938 138.597656 219.523438 141.4375 221.109375 C 144.273438 222.695312 147.042969 224.183594 149.75 225.570312 C 152.457031 226.960938 155.101562 228.25 157.6875 229.4375 C 160.277344 230.628906 162.808594 231.71875 165.292969 232.710938 C 167.777344 233.699219 170.210938 234.59375 172.605469 235.386719 C 174.996094 236.179688 177.351562 236.871094 179.671875 237.46875 C 181.996094 238.0625 184.285156 238.558594 186.554688 238.953125 C 188.824219 239.351562 191.074219 239.648438 193.308594 239.84375 C 195.546875 240.042969 197.773438 240.140625 200 240.140625 C 202.226562 240.140625 204.453125 240.042969 206.691406 239.84375 C 208.925781 239.648438 211.175781 239.351562 213.445312 238.953125 C 215.714844 238.558594 218.003906 238.0625 220.328125 237.46875 C 222.648438 236.871094 225.003906 236.179688 227.394531 235.386719 C 229.789062 234.59375 232.222656 233.699219 234.707031 232.710938 C 237.191406 231.71875 239.722656 230.628906 242.3125 229.4375 C 244.898438 228.25 247.542969 226.960938 250.25 225.570312 C 252.957031 224.183594 255.726562 222.695312 258.5625 221.109375 C 261.402344 219.523438 264.308594 217.835938 267.285156 216.054688 C 270.265625 214.269531 273.316406 212.382812 276.445312 210.402344 C 279.578125 208.417969 282.785156 206.335938 286.070312 204.152344 C 289.359375 201.972656 292.726562 199.691406 296.179688 197.3125 C 299.632812 194.929688 303.171875 192.453125 306.796875 189.875 C 310.417969 187.296875 314.128906 184.617188 317.929688 181.839844 C 321.730469 179.0625 325.621094 176.1875 329.601562 173.214844 C 329.496094 171.082031 329.445312 168.894531 329.441406 166.652344 C 329.441406 164.410156 329.492188 162.113281 329.59375 159.757812 C 325.613281 162.734375 321.722656 165.609375 317.921875 168.382812 C 314.121094 171.160156 310.410156 173.839844 306.789062 176.417969 C 303.164062 178.996094 299.625 181.472656 296.171875 183.855469 C 292.71875 186.234375 289.351562 188.515625 286.0625 190.695312 C 282.777344 192.878906 279.570312 194.960938 276.441406 196.945312 C 273.3125 198.925781 270.257812 200.8125 267.28125 202.59375 C 264.300781 204.378906 261.394531 206.066406 258.558594 207.652344 C 255.71875 209.238281 252.953125 210.726562 250.246094 212.113281 C 247.539062 213.5 244.894531 214.789062 242.308594 215.980469 C 239.71875 217.167969 237.1875 218.257812 234.703125 219.25 C 232.222656 220.242188 229.789062 221.132812 227.394531 221.925781 C 225 222.71875 222.648438 223.414062 220.324219 224.007812 C 218.003906 224.601562 215.714844 225.097656 213.445312 225.492188 C 211.175781 225.890625 208.925781 226.1875 206.691406 226.386719 C 204.453125 226.582031 202.226562 226.683594 200 226.683594 C 197.773438 226.683594 195.546875 226.582031 193.308594 226.386719 C 191.074219 226.1875 188.824219 225.890625 186.554688 225.492188 C 184.285156 225.097656 181.996094 224.601562 179.675781 224.007812 C 177.351562 223.414062 175 222.71875 172.605469 221.925781 C 170.210938 221.132812 167.777344 220.242188 165.296875 219.25 C 162.8125 218.257812 160.28125 217.167969 157.691406 215.980469 C 155.105469 214.789062 152.460938 213.5 149.753906 212.113281 C 147.046875 210.726562 144.28125 209.238281 141.441406 207.652344 C 138.605469 206.066406 135.699219 204.378906 132.71875 202.59375 C 129.742188 200.8125 126.6875 198.925781 123.558594 196.945312 C 120.429688 194.960938 117.222656 192.878906 113.9375 190.695312 C 110.648438 188.515625 107.28125 186.234375 103.828125 183.855469 C 100.375 181.472656 96.835938 178.996094 93.210938 176.417969 C 89.589844 173.839844 85.878906 171.160156 82.078125 168.382812 C 78.277344 165.609375 74.386719 162.734375 70.40625 159.757812 C 70.507812 162.113281 70.558594 164.410156 70.558594 166.652344 C 70.554688 168.894531 70.503906 171.082031 70.398438 173.214844 "/>
<path style="fill:none;stroke-width:1;stroke-linecap:butt;stroke-linejoin:miter;stroke:rgb(100%,0%,0%);stroke-opacity:1;stroke-miterlimit:10;" d="M 70.398438 173.214844 C 70.503906 171.082031 70.554688 168.894531 70.558594 166.652344 C 70.558594 164.410156 70.507812 162.113281 70.40625 159.757812 "/>
<path style="fill:none;stroke-width:1;stroke-linecap:butt;stroke-linejoin:miter;stroke:rgb(100%,0%,0%);stroke-opacity:1;stroke-miterlimit:10;" d="M 87.703125 185.929688 C 87.804688 183.800781 87.855469 181.613281 87.855469 179.371094 C 87.855469 177.128906 87.808594 174.832031 87.710938 172.476562 "/>
<path style="fill:none;stroke-width:1;stroke-linecap:butt;stroke-linejoin:miter;stroke:rgb(100%,0%,0%);stroke-opacity:1;stroke-miterlimit:10;" d="M 103.820312 197.3125 C 103.914062 195.179688 103.964844 192.992188 103.964844 190.75 C 103.964844 188.507812 103.917969 186.210938 103.828125 183.855469 "/>
<path style="fill:none;stroke-width:1;stroke-linecap:butt;stroke-linejoin:miter;stroke:rgb(100%,0%,0%);stroke-opacity:1;stroke-miterlimit:10;" d="M 118.800781 207.351562 C 118.890625 205.21875 118.9375 203.03125 118.9375 200.789062 C 118.9375 198.546875 118.894531 196.25 118.808594 193.894531 "/>
<path style="fill:none;stroke-width:1;stroke-linecap:butt;stroke-linejoin:miter;stroke:rgb(100%,0%,0%);stroke-opacity:1;stroke-miterlimit:10;" d="M 132.714844 216.054688 C 132.796875 213.921875 132.839844 211.734375 132.839844 209.492188 C 132.84375 207.25 132.800781 204.953125 132.71875 202.59375 "/>
<path style="fill:none;stroke-width:1;stroke-linecap:butt;stroke-linejoin:miter;stroke:rgb(100%,0%,0%);stroke-opacity:1;stroke-miterlimit:10;" d="M 145.640625 223.414062 C 145.714844 221.28125 145.753906 219.09375 145.753906 216.851562 C 145.757812 214.609375 145.722656 212.3125 145.648438 209.957031 "/>
<path style="fill:none;stroke-width:1;stroke-linecap:butt;stroke-linejoin:miter;stroke:rgb(100%,0%,0%);stroke-opacity:1;stroke-miterlimit:10;" d="M 157.6875 229.4375 C 157.753906 227.304688 157.785156 225.117188 157.785156 222.875 C 157.785156 220.632812 157.757812 218.335938 157.691406 215.980469 "/>
<path style="fill:none;stroke-width:1;stroke-linecap:butt;stroke-linejoin:miter;stroke:rgb(100%,0%,0%);stroke-opacity:1;stroke-miterlimit:10;" d="M 168.980469 234.121094 C 169.03125 231.988281 169.058594 229.800781 169.058594 227.558594 C 169.058594 225.316406 169.035156 223.019531 168.984375 220.664062 "/>
<path style="fill:none;stroke-width:1;stroke-linecap:butt;stroke-linejoin:miter;stroke:rgb(100%,0%,0%);stroke-opacity:1;stroke-miterlimit:10;" d="M 179.671875 237.46875 C 179.707031 235.332031 179.726562 233.148438 179.726562 230.90625 C 179.726562 228.660156 179.710938 226.363281 179.675781 224.007812 "/>
<path style="fill:none;stroke-width:1;stroke-linecap:butt;stroke-linejoin:miter;stroke:rgb(100%,0%,0%);stroke-opacity:1;stroke-miterlimit:10;" d="M 189.945312 239.472656 C 189.960938 237.339844 189.972656 235.152344 189.972656 232.910156 C 189.972656 230.667969 189.964844 228.371094 189.945312 226.011719 "/>
<path style="fill:none;stroke-width:1;stroke-linecap:butt;stroke-linejoin:miter;stroke:rgb(100%,0%,0%);stroke-opacity:1;stroke-miterlimit:10;" d="M 200 240.140625 C 200 238.007812 200 235.824219 200 233.578125 C 200 231.335938 200 229.039062 200 226.683594 "/>
<path style="fill:none;stroke-width:1;stroke-linecap:butt;stroke-linejoin:miter;stroke:rgb(100%,0%,0%);stroke-opacity:1;stroke-miterlimit:10;" d="M 210.054688 239.472656 C 210.039062 237.339844 210.027344 235.152344 210.027344 232.910156 C 210.027344 230.667969 210.035156 228.371094 210.054688 226.011719 "/>
<path style="fill:none;stroke-width:1;stroke-linecap:butt;stroke-linejoin:miter;stroke:rgb(100%,0%,0%);stroke-opacity:1;stroke-miterlimit:10;" d="M 220.328125 237.46875 C 220.292969 235.332031 220.273438 233.148438 220.273438 230.90625 C 220.273438 228.660156 220.289062 226.363281 220.324219 224.007812 "/>
<path style="fill:none;stroke-width:1;stroke-linecap:butt;stroke-linejoin:miter;stroke:rgb(100%,0%,0%);stroke-opacity:1;stroke-miterlimit:10;" d="M 231.019531 234.121094 C 230.96875 231.988281 230.941406 229.800781 230.941406 227.558594 C 230.941406 225.316406 230.964844 223.019531 231.015625 220.664062 "/>
<path style="fill:none;stroke-width:1;stroke-linecap:butt;stroke-linejoin:miter;stroke:rgb(100%,0%,0%);stroke-opacity:1;stroke-miterlimit:10;" d="M 242.3125 229.4375 C 242.246094 227.304688 242.214844 225.117188 242.214844 222.875 C 242.214844 220.632812 242.242188 218.335938 242.308594 215.980469 "/>
<path style="fill:none;stroke-width:1;stroke-linecap:butt;stroke-linejoin:miter;stroke:rgb(100%,0%,0%);stroke-opacity:1;stroke-miterlimit:10;" d="M 254.359375 223.414062 C 254.285156 221.28125 254.246094 219.09375 254.246094 216.851562 C 254.242188 214.609375 254.277344 212.3125 254.351562 209.957031 "/>
<path style="fill:none;stroke-width:1;stroke-linecap:butt;stroke-linejoin:miter;stroke:rgb(100%,0%,0%);stroke-opacity:1;stroke-miterlimit:10;" d="M 267.285156 216.054688 C 267.203125 213.921875 267.160156 211.734375 267.160156 209.492188 C 267.15625 207.25 267.199219 204.953125 267.28125 202.59375 "/>
<path style="fill:none;stroke-width:1;stroke-linecap:butt;stroke-linejoin:miter;stroke:rgb(100%,0%,0%);stroke-opacity:1;stroke-miterlimit:10;" d="M 281.199219 207.351562 C 281.109375 205.21875 281.0625 203.03125 281.0625 200.789062 C 281.0625 198.546875 281.105469 196.25 281.191406 193.894531 "/>
<path style="fill:none;stroke-width:1;stroke-linecap:butt;stroke-linejoin:miter;stroke:rgb(100%,0%,0%);stroke-opacity:1;stroke-miterlimit:10;" d="M 296.179688 197.3125 C 296.085938 195.179688 296.035156 192.992188 296.035156 190.75 C 296.035156 188.507812 296.082031 186.210938 296.171875 183.855469 "/>
<path style="fill:none;stroke-width:1;stroke-linecap:butt;stroke-linejoin:miter;stroke:rgb(100%,0%,0%);stroke-opacity:1;stroke-miterlimit:10;" d="M 312.296875 185.929688 C 312.195312 183.800781 312.144531 181.613281 312.144531 179.371094 C 312.144531 177.128906 312.191406 174.832031 312.289062 172.476562 "/>
<path style="fill:none;stroke-width:1;stroke-linecap:butt;stroke-linejoin:miter;stroke:rgb(100%,0%,0%);stroke-opacity:1;stroke-miterlimit:10;" d="M 329.601562 173.214844 C 329.496094 171.082031 329.445312 168.894531 329.441406 166.652344 C 329.441406 164.410156 329.492188 162.113281 329.59375 159.757812 "/>
<path style="fill:none;stroke-width:1;stroke-linecap:butt;stroke-linejoin:miter;stroke:rgb(100%,0%,0%);stroke-opacity:1;stroke-miterlimit:10;" d="M 70.398438 173.214844 C 74.378906 176.1875 78.269531 179.0625 82.070312 181.839844 C 85.871094 184.617188 89.582031 187.296875 93.203125 189.875 C 96.828125 192.453125 100.367188 194.929688 103.820312 197.3125 C 107.273438 199.691406 110.640625 201.972656 113.929688 204.152344 C 117.214844 206.335938 120.421875 208.417969 123.554688 210.402344 C 126.683594 212.382812 129.734375 214.269531 132.714844 216.054688 C 135.691406 217.835938 138.597656 219.523438 141.4375 221.109375 C 144.273438 222.695312 147.042969 224.183594 149.75 225.570312 C 152.457031 226.960938 155.101562 228.25 157.6875 229.4375 C 160.277344 230.628906 162.808594 231.71875 165.292969 232.710938 C 167.777344 233.699219 170.210938 234.59375 172.605469 235.386719 C 174.996094 236.179688 177.351562 236.871094 179.671875 237.46875 C 181.996094 238.0625 184.285156 238.558594 186.554688 238.953125 C 188.824219 239.351562 191.074219 239.648438 193.308594 239.84375 C 195.546875 240.042969 197.773438 240.140625 200 240.140625 C 202.226562 240.140625 204.453125 240.042969 206.691406 239.84375 C 208.925781 239.648438 211.175781 239.351562 213.445312 238.953125 C 215.714844 238.558594 218.003906 238.0625 220.328125 237.46875 C 222.648438 236.871094 225.003906 236.179688 227.394531 235.386719 C 229.789062 234.59375 232.222656 233.699219 234.707031 232.710938 C 237.191406 231.71875 239.722656 230.628906 242.3125 229.4375 C 244.898438 228.25 247.542969 226.960938 250.25 225.570312 C 252.957031 224.183594 255.726562 222.695312 258.5625 221.109375 C 261.402344 219.523438 264.308594 217.835938 267.285156 216.054688 C 270.265625 214.269531 273.316406 212.382812 276.445312 210.402344 C 279.578125 208.417969 282.785156 206.335938 286.070312 204.152344 C 289.359375 201.972656 292.726562 199.691406 296.179688 197.3125 C 299.632812 194.929688 303.171875 192.453125 306.796875 189.875 C 310.417969 187.296875 314.128906 184.617188 317.929688 181.839844 C 321.730469 179.0625 325.621094 176.1875 329.601562 173.214844 "/>
<path style="fill:none;stroke-width:1;stroke-linecap:butt;stroke-linejoin:miter;stroke:rgb(100%,0%,0%);stroke-opacity:1;stroke-miterlimit:10;" d="M 70.40625 159.757812 C 74.386719 162.734375 78.277344 165.609375 82.078125 168.382812 C 85.878906 171.160156 89.589844 173.839844 93.210938 176.417969 C 96.835938 178.996094 100.375 181.472656 103.828125 183.855469 C 107.28125 186.234375 110.648438 188.515625 113.9375 190.695312 C 117.222656 192.878906 120.429688 194.960938 123.558594 196.945312 C 126.6875 198.925781 129.742188 200.8125 132.71875 202.59375 C 135.699219 204.378906 138.605469 206.066406 141.441406 207.652344 C 144.28125 209.238281 147.046875 210.726562 149.753906 212.113281 C 152.460938 213.5 155.105469 214.789062 157.691406 215.980469 C 160.28125 217.167969 162.8125 218.257812 165.296875 219.25 C 167.777344 220.242188 170.210938 221.132812 172.605469 221.925781 C 175 222.71875 177.351562 223.414062 179.675781 224.007812 C 181.996094 224.601562 184.285156 225.097656 186.554688 225.492188 C 188.824219 225.890625 191.074219 226.1875 193.308594 226.386719 C 195.546875 226.582031 197.773438 226.683594 200 226.683594 C 202.226562 226.683594 204.453125 226.582031 206.691406 226.386719 C 208.925781 226.1875 211.175781 225.890625 213.445312 225.492188 C 215.714844 225.097656 218.003906 224.601562 220.324219 224.007812 C 222.648438 223.414062 225 222.71875 227.394531 221.925781 C 229.789062 221.132812 232.222656 220.242188 234.703125 219.25 C 237.1875 218.257812 239.71875 217.167969 242.308594 215.980469 C 244.894531 214.789062 247.539062 213.5 250.246094 212.113281 C 252.953125 210.726562 255.71875 209.238281 258.558594 207.652344 C 261.394531 206.066406 264.300781 204.378906 267.28125 202.59375 C 270.257812 200.8125 273.3125 198.925781 276.441406 196.945312 C 279.570312 194.960938 282.777344 192.878906 286.0625 190.695312 C 289.351562 188.515625 292.71875 186.234375 296.171875 183.855469 C 299.625 181.472656 303.164062 178.996094 306.789062 176.417969 C 310.410156 173.839844 314.121094 171.160156 317.921875 168.382812 C 321.722656 165.609375 325.613281 162.734375 329.59375 159.757812 "/>
</g>
</svg>
